STARTFONT 2.1
COMMENT
COMMENT Converted from OpenType font "Hack-Bold.ttf" by "otf2bdf 3.0".
COMMENT
FONT -FreeType-Hack-Bold-R-Normal--14-100-100-100-P-70-ISO10646-1
SIZE 10 100 100
FONTBOUNDINGBOX 20 20 -10 -6
STARTPROPERTIES 19
FOUNDRY "FreeType"
FAMILY_NAME "Hack"
WEIGHT_NAME "Bold"
SLANT "R"
SETWIDTH_NAME "Normal"
ADD_STYLE_NAME ""
PIXEL_SIZE 14
POINT_SIZE 100
RESOLUTION_X 100
RESOLUTION_Y 100
SPACING "P"
AVERAGE_WIDTH 70
CHARSET_REGISTRY "ISO10646"
CHARSET_ENCODING "1"
FONT_ASCENT 12
FONT_DESCENT 3
COPYRIGHT "Copyright (c) 2018 Source Foundry Authors / Copyright (c) 2003 by Bitstream, Inc. All Rights Reserved."
_OTF_FONTFILE "Hack-Bold.ttf"
_OTF_PSNAME "Hack-Bold"
ENDPROPERTIES
CHARS 1624
STARTCHAR 0000
ENCODING 0
SWIDTH 0 0
DWIDTH 0 0
BBX 0 0 0 0
BITMAP
ENDCHAR
STARTCHAR 000D
ENCODING 13
SWIDTH 576 0
DWIDTH 8 0
BBX 0 0 0 0
BITMAP
ENDCHAR
STARTCHAR 0020
ENCODING 32
SWIDTH 576 0
DWIDTH 8 0
BBX 0 0 0 0
BITMAP
ENDCHAR
STARTCHAR 0021
ENCODING 33
SWIDTH 576 0
DWIDTH 8 0
BBX 2 10 3 0
BITMAP
C0
C0
C0
C0
C0
40
40
00
C0
C0
ENDCHAR
STARTCHAR 0022
ENCODING 34
SWIDTH 576 0
DWIDTH 8 0
BBX 5 4 2 6
BITMAP
98
98
98
98
ENDCHAR
STARTCHAR 0023
ENCODING 35
SWIDTH 576 0
DWIDTH 8 0
BBX 8 10 0 0
BITMAP
1B
12
7F
7F
34
24
FF
FF
6C
48
ENDCHAR
STARTCHAR 0024
ENCODING 36
SWIDTH 576 0
DWIDTH 8 0
BBX 6 13 1 -2
BITMAP
30
30
7C
D4
D0
78
3C
14
9C
FC
78
30
30
ENDCHAR
STARTCHAR 0025
ENCODING 37
SWIDTH 576 0
DWIDTH 8 0
BBX 8 10 0 0
BITMAP
70
D0
98
71
2E
36
CF
09
09
06
ENDCHAR
STARTCHAR 0026
ENCODING 38
SWIDTH 576 0
DWIDTH 8 0
BBX 8 10 0 0
BITMAP
3C
3C
60
30
78
59
CD
C7
7F
3F
ENDCHAR
STARTCHAR 0027
ENCODING 39
SWIDTH 576 0
DWIDTH 8 0
BBX 2 4 3 6
BITMAP
C0
C0
C0
C0
ENDCHAR
STARTCHAR 0028
ENCODING 40
SWIDTH 576 0
DWIDTH 8 0
BBX 4 13 2 -2
BITMAP
30
60
60
C0
C0
C0
C0
C0
C0
C0
60
60
30
ENDCHAR
STARTCHAR 0029
ENCODING 41
SWIDTH 576 0
DWIDTH 8 0
BBX 3 13 3 -2
BITMAP
C0
C0
60
60
60
60
20
60
60
60
60
C0
C0
ENDCHAR
STARTCHAR 002A
ENCODING 42
SWIDTH 576 0
DWIDTH 8 0
BBX 7 7 1 3
BITMAP
10
10
96
7C
30
68
CC
ENDCHAR
STARTCHAR 002B
ENCODING 43
SWIDTH 576 0
DWIDTH 8 0
BBX 8 8 0 1
BITMAP
18
18
18
FF
FF
18
18
18
ENDCHAR
STARTCHAR 002C
ENCODING 44
SWIDTH 576 0
DWIDTH 8 0
BBX 3 5 3 -3
BITMAP
C0
E0
40
40
80
ENDCHAR
STARTCHAR 002D
ENCODING 45
SWIDTH 576 0
DWIDTH 8 0
BBX 5 2 2 3
BITMAP
F8
F8
ENDCHAR
STARTCHAR 002E
ENCODING 46
SWIDTH 576 0
DWIDTH 8 0
BBX 2 3 3 0
BITMAP
C0
C0
C0
ENDCHAR
STARTCHAR 002F
ENCODING 47
SWIDTH 576 0
DWIDTH 8 0
BBX 7 11 1 -1
BITMAP
06
0C
08
18
18
10
30
20
60
40
C0
ENDCHAR
STARTCHAR 0030
ENCODING 48
SWIDTH 576 0
DWIDTH 8 0
BBX 7 10 1 0
BITMAP
78
7C
CC
DC
D6
D6
DC
CC
7C
78
ENDCHAR
STARTCHAR 0031
ENCODING 49
SWIDTH 576 0
DWIDTH 8 0
BBX 7 10 1 0
BITMAP
30
70
D0
90
10
10
10
10
FE
FE
ENDCHAR
STARTCHAR 0032
ENCODING 50
SWIDTH 576 0
DWIDTH 8 0
BBX 6 10 1 0
BITMAP
F8
FC
0C
0C
0C
18
30
60
FC
FC
ENDCHAR
STARTCHAR 0033
ENCODING 51
SWIDTH 576 0
DWIDTH 8 0
BBX 6 10 1 0
BITMAP
F8
FC
0C
3C
38
0C
04
0C
FC
F8
ENDCHAR
STARTCHAR 0034
ENCODING 52
SWIDTH 576 0
DWIDTH 8 0
BBX 7 10 1 0
BITMAP
1C
1C
2C
6C
4C
8C
FE
FE
0C
0C
ENDCHAR
STARTCHAR 0035
ENCODING 53
SWIDTH 576 0
DWIDTH 8 0
BBX 6 10 1 0
BITMAP
FC
FC
C0
F8
FC
0C
0C
0C
FC
F8
ENDCHAR
STARTCHAR 0036
ENCODING 54
SWIDTH 576 0
DWIDTH 8 0
BBX 7 10 1 0
BITMAP
3C
7C
C0
F8
FC
C6
C6
C6
7C
78
ENDCHAR
STARTCHAR 0037
ENCODING 55
SWIDTH 576 0
DWIDTH 8 0
BBX 6 10 1 0
BITMAP
FC
FC
0C
18
18
18
30
30
60
60
ENDCHAR
STARTCHAR 0038
ENCODING 56
SWIDTH 576 0
DWIDTH 8 0
BBX 6 10 1 0
BITMAP
78
EC
CC
6C
78
CC
C4
C4
FC
78
ENDCHAR
STARTCHAR 0039
ENCODING 57
SWIDTH 576 0
DWIDTH 8 0
BBX 6 10 1 0
BITMAP
78
FC
CC
CC
FC
74
0C
0C
FC
F8
ENDCHAR
STARTCHAR 003A
ENCODING 58
SWIDTH 576 0
DWIDTH 8 0
BBX 2 8 3 0
BITMAP
C0
C0
C0
00
00
C0
C0
C0
ENDCHAR
STARTCHAR 003B
ENCODING 59
SWIDTH 576 0
DWIDTH 8 0
BBX 3 11 3 -3
BITMAP
C0
C0
C0
00
00
00
C0
E0
60
40
80
ENDCHAR
STARTCHAR 003C
ENCODING 60
SWIDTH 576 0
DWIDTH 8 0
BBX 7 7 1 1
BITMAP
02
1E
F8
C0
F0
3E
06
ENDCHAR
STARTCHAR 003D
ENCODING 61
SWIDTH 576 0
DWIDTH 8 0
BBX 7 5 1 2
BITMAP
FE
FE
00
FE
FE
ENDCHAR
STARTCHAR 003E
ENCODING 62
SWIDTH 576 0
DWIDTH 8 0
BBX 7 7 1 1
BITMAP
80
E0
3C
06
1E
F0
C0
ENDCHAR
STARTCHAR 003F
ENCODING 63
SWIDTH 576 0
DWIDTH 8 0
BBX 5 11 2 0
BITMAP
F0
F8
88
18
10
20
60
60
00
60
60
ENDCHAR
STARTCHAR 0040
ENCODING 64
SWIDTH 576 0
DWIDTH 8 0
BBX 8 12 0 -2
BITMAP
1C
7E
63
CD
DF
93
91
D3
CF
60
3F
1E
ENDCHAR
STARTCHAR 0041
ENCODING 65
SWIDTH 576 0
DWIDTH 8 0
BBX 8 10 0 0
BITMAP
1C
1C
3C
34
36
66
7E
7E
63
C3
ENDCHAR
STARTCHAR 0042
ENCODING 66
SWIDTH 576 0
DWIDTH 8 0
BBX 7 10 1 0
BITMAP
FC
FC
C6
FC
FC
C6
C6
C6
FE
FC
ENDCHAR
STARTCHAR 0043
ENCODING 67
SWIDTH 576 0
DWIDTH 8 0
BBX 6 10 1 0
BITMAP
3C
7C
E4
C0
C0
C0
C0
E4
7C
3C
ENDCHAR
STARTCHAR 0044
ENCODING 68
SWIDTH 576 0
DWIDTH 8 0
BBX 7 10 1 0
BITMAP
F8
FC
CC
C6
C6
C6
C6
CC
FC
F8
ENDCHAR
STARTCHAR 0045
ENCODING 69
SWIDTH 576 0
DWIDTH 8 0
BBX 6 10 1 0
BITMAP
FC
FC
C0
C0
FC
FC
C0
C0
FC
FC
ENDCHAR
STARTCHAR 0046
ENCODING 70
SWIDTH 576 0
DWIDTH 8 0
BBX 7 10 1 0
BITMAP
FE
FE
C0
C0
FC
FC
C0
C0
C0
C0
ENDCHAR
STARTCHAR 0047
ENCODING 71
SWIDTH 576 0
DWIDTH 8 0
BBX 7 10 1 0
BITMAP
3C
7C
C2
C0
CE
CE
C6
C6
7E
3C
ENDCHAR
STARTCHAR 0048
ENCODING 72
SWIDTH 576 0
DWIDTH 8 0
BBX 6 10 1 0
BITMAP
CC
CC
CC
FC
FC
CC
CC
CC
CC
CC
ENDCHAR
STARTCHAR 0049
ENCODING 73
SWIDTH 576 0
DWIDTH 8 0
BBX 6 10 1 0
BITMAP
FC
FC
30
30
30
30
30
30
FC
FC
ENDCHAR
STARTCHAR 004A
ENCODING 74
SWIDTH 576 0
DWIDTH 8 0
BBX 6 10 1 0
BITMAP
7C
7C
0C
0C
0C
0C
0C
8C
FC
F8
ENDCHAR
STARTCHAR 004B
ENCODING 75
SWIDTH 576 0
DWIDTH 8 0
BBX 7 10 1 0
BITMAP
C6
CC
D8
F0
F0
F8
D8
CC
CC
C6
ENDCHAR
STARTCHAR 004C
ENCODING 76
SWIDTH 576 0
DWIDTH 8 0
BBX 6 10 2 0
BITMAP
C0
C0
C0
C0
C0
C0
C0
C0
FC
FC
ENDCHAR
STARTCHAR 004D
ENCODING 77
SWIDTH 576 0
DWIDTH 8 0
BBX 7 10 1 0
BITMAP
CE
CE
EE
BE
B6
B6
86
86
86
86
ENDCHAR
STARTCHAR 004E
ENCODING 78
SWIDTH 576 0
DWIDTH 8 0
BBX 7 10 1 0
BITMAP
C6
E6
E6
E6
F6
D6
D6
DE
CE
CE
ENDCHAR
STARTCHAR 004F
ENCODING 79
SWIDTH 576 0
DWIDTH 8 0
BBX 7 10 1 0
BITMAP
78
FC
CC
C6
C6
C6
C6
CC
FC
78
ENDCHAR
STARTCHAR 0050
ENCODING 80
SWIDTH 576 0
DWIDTH 8 0
BBX 7 10 1 0
BITMAP
FC
FE
C6
C6
FE
FC
C0
C0
C0
C0
ENDCHAR
STARTCHAR 0051
ENCODING 81
SWIDTH 576 0
DWIDTH 8 0
BBX 7 12 1 -2
BITMAP
78
FC
CC
C6
C6
C6
C6
CC
FC
78
0C
06
ENDCHAR
STARTCHAR 0052
ENCODING 82
SWIDTH 576 0
DWIDTH 8 0
BBX 7 10 1 0
BITMAP
F8
FC
CC
CC
FC
F8
DC
CC
CE
C6
ENDCHAR
STARTCHAR 0053
ENCODING 83
SWIDTH 576 0
DWIDTH 8 0
BBX 7 10 1 0
BITMAP
7C
FC
C4
C0
78
3C
0C
8E
FC
F8
ENDCHAR
STARTCHAR 0054
ENCODING 84
SWIDTH 576 0
DWIDTH 8 0
BBX 7 10 1 0
BITMAP
FE
FE
30
30
30
30
30
30
30
30
ENDCHAR
STARTCHAR 0055
ENCODING 85
SWIDTH 576 0
DWIDTH 8 0
BBX 7 10 1 0
BITMAP
C6
C6
C6
C6
C6
C6
C6
CE
FC
78
ENDCHAR
STARTCHAR 0056
ENCODING 86
SWIDTH 576 0
DWIDTH 8 0
BBX 8 10 0 0
BITMAP
E3
63
66
66
66
36
34
3C
3C
1C
ENDCHAR
STARTCHAR 0057
ENCODING 87
SWIDTH 576 0
DWIDTH 8 0
BBX 8 10 0 0
BITMAP
C1
C3
DB
DB
5F
5F
57
76
66
66
ENDCHAR
STARTCHAR 0058
ENCODING 88
SWIDTH 576 0
DWIDTH 8 0
BBX 8 10 0 0
BITMAP
E3
66
36
3C
18
1C
3C
36
66
E3
ENDCHAR
STARTCHAR 0059
ENCODING 89
SWIDTH 576 0
DWIDTH 8 0
BBX 8 10 0 0
BITMAP
C3
67
66
3E
3C
18
18
18
18
18
ENDCHAR
STARTCHAR 005A
ENCODING 90
SWIDTH 576 0
DWIDTH 8 0
BBX 7 10 1 0
BITMAP
FE
FE
0C
18
38
30
60
E0
FE
FE
ENDCHAR
STARTCHAR 005B
ENCODING 91
SWIDTH 576 0
DWIDTH 8 0
BBX 5 14 2 -2
BITMAP
F8
F8
C0
C0
C0
C0
C0
C0
C0
C0
C0
C0
F8
F8
ENDCHAR
STARTCHAR 005C
ENCODING 92
SWIDTH 576 0
DWIDTH 8 0
BBX 7 11 1 -1
BITMAP
80
C0
40
60
20
30
10
18
08
0C
06
ENDCHAR
STARTCHAR 005D
ENCODING 93
SWIDTH 576 0
DWIDTH 8 0
BBX 4 14 2 -2
BITMAP
F0
F0
10
10
10
10
10
10
10
10
10
10
F0
F0
ENDCHAR
STARTCHAR 005E
ENCODING 94
SWIDTH 576 0
DWIDTH 8 0
BBX 8 4 0 7
BITMAP
18
3C
76
E3
ENDCHAR
STARTCHAR 005F
ENCODING 95
SWIDTH 576 0
DWIDTH 8 0
BBX 7 2 1 -3
BITMAP
FE
FE
ENDCHAR
STARTCHAR 0060
ENCODING 96
SWIDTH 576 0
DWIDTH 8 0
BBX 4 3 1 9
BITMAP
C0
60
30
ENDCHAR
STARTCHAR 0061
ENCODING 97
SWIDTH 576 0
DWIDTH 8 0
BBX 7 8 1 0
BITMAP
78
FC
3C
FE
C6
CC
FC
76
ENDCHAR
STARTCHAR 0062
ENCODING 98
SWIDTH 576 0
DWIDTH 8 0
BBX 7 11 1 0
BITMAP
C0
C0
C0
DC
FC
C6
C6
C6
CE
FC
DC
ENDCHAR
STARTCHAR 0063
ENCODING 99
SWIDTH 576 0
DWIDTH 8 0
BBX 6 8 1 0
BITMAP
3C
7C
C0
C0
C0
C0
7C
3C
ENDCHAR
STARTCHAR 0064
ENCODING 100
SWIDTH 576 0
DWIDTH 8 0
BBX 6 11 1 0
BITMAP
0C
0C
0C
7C
FC
CC
CC
CC
CC
FC
7C
ENDCHAR
STARTCHAR 0065
ENCODING 101
SWIDTH 576 0
DWIDTH 8 0
BBX 7 8 1 0
BITMAP
78
FC
C6
FE
FE
C0
FC
7C
ENDCHAR
STARTCHAR 0066
ENCODING 102
SWIDTH 576 0
DWIDTH 8 0
BBX 6 11 1 0
BITMAP
1C
3C
30
FC
FC
30
30
30
30
30
30
ENDCHAR
STARTCHAR 0067
ENCODING 103
SWIDTH 576 0
DWIDTH 8 0
BBX 6 11 1 -3
BITMAP
74
FC
CC
CC
CC
CC
FC
7C
0C
FC
F8
ENDCHAR
STARTCHAR 0068
ENCODING 104
SWIDTH 576 0
DWIDTH 8 0
BBX 6 11 1 0
BITMAP
C0
C0
C0
DC
FC
CC
CC
CC
CC
CC
CC
ENDCHAR
STARTCHAR 0069
ENCODING 105
SWIDTH 576 0
DWIDTH 8 0
BBX 7 11 1 0
BITMAP
30
30
00
F0
F0
30
30
30
30
3E
1E
ENDCHAR
STARTCHAR 006A
ENCODING 106
SWIDTH 576 0
DWIDTH 8 0
BBX 5 14 1 -3
BITMAP
18
18
00
78
78
18
18
18
18
18
18
18
F8
F0
ENDCHAR
STARTCHAR 006B
ENCODING 107
SWIDTH 576 0
DWIDTH 8 0
BBX 7 11 1 0
BITMAP
C0
C0
C0
CE
DC
F8
F0
F8
CC
CC
C6
ENDCHAR
STARTCHAR 006C
ENCODING 108
SWIDTH 576 0
DWIDTH 8 0
BBX 6 11 1 0
BITMAP
F0
F0
30
30
30
30
30
30
30
3C
1C
ENDCHAR
STARTCHAR 006D
ENCODING 109
SWIDTH 576 0
DWIDTH 8 0
BBX 7 8 1 0
BITMAP
EC
FE
B6
B6
B6
B6
B6
B6
ENDCHAR
STARTCHAR 006E
ENCODING 110
SWIDTH 576 0
DWIDTH 8 0
BBX 6 8 1 0
BITMAP
DC
FC
CC
CC
CC
CC
CC
CC
ENDCHAR
STARTCHAR 006F
ENCODING 111
SWIDTH 576 0
DWIDTH 8 0
BBX 7 8 1 0
BITMAP
78
FC
CE
C6
C6
CE
FC
78
ENDCHAR
STARTCHAR 0070
ENCODING 112
SWIDTH 576 0
DWIDTH 8 0
BBX 7 11 1 -3
BITMAP
DC
FC
C6
C6
C6
CE
FC
DC
C0
C0
C0
ENDCHAR
STARTCHAR 0071
ENCODING 113
SWIDTH 576 0
DWIDTH 8 0
BBX 6 11 1 -3
BITMAP
7C
FC
CC
CC
CC
CC
FC
7C
0C
0C
0C
ENDCHAR
STARTCHAR 0072
ENCODING 114
SWIDTH 576 0
DWIDTH 8 0
BBX 5 8 2 0
BITMAP
F8
F8
C0
C0
C0
C0
C0
C0
ENDCHAR
STARTCHAR 0073
ENCODING 115
SWIDTH 576 0
DWIDTH 8 0
BBX 6 8 1 0
BITMAP
7C
FC
C0
78
3C
0C
FC
F8
ENDCHAR
STARTCHAR 0074
ENCODING 116
SWIDTH 576 0
DWIDTH 8 0
BBX 6 11 1 0
BITMAP
30
30
30
FC
FC
30
30
30
30
3C
3C
ENDCHAR
STARTCHAR 0075
ENCODING 117
SWIDTH 576 0
DWIDTH 8 0
BBX 6 8 1 0
BITMAP
CC
CC
CC
CC
CC
CC
FC
7C
ENDCHAR
STARTCHAR 0076
ENCODING 118
SWIDTH 576 0
DWIDTH 8 0
BBX 7 8 1 0
BITMAP
C6
CC
CC
4C
68
78
38
38
ENDCHAR
STARTCHAR 0077
ENCODING 119
SWIDTH 576 0
DWIDTH 8 0
BBX 8 8 0 0
BITMAP
C1
C3
DB
5B
5B
56
76
66
ENDCHAR
STARTCHAR 0078
ENCODING 120
SWIDTH 576 0
DWIDTH 8 0
BBX 8 8 0 0
BITMAP
67
36
3C
18
1C
3C
76
E7
ENDCHAR
STARTCHAR 0079
ENCODING 121
SWIDTH 576 0
DWIDTH 8 0
BBX 8 11 0 -3
BITMAP
E3
67
66
36
34
3C
1C
18
18
78
70
ENDCHAR
STARTCHAR 007A
ENCODING 122
SWIDTH 576 0
DWIDTH 8 0
BBX 6 8 1 0
BITMAP
FC
FC
1C
38
30
60
FC
FC
ENDCHAR
STARTCHAR 007B
ENCODING 123
SWIDTH 576 0
DWIDTH 8 0
BBX 6 14 1 -3
BITMAP
1C
3C
30
30
30
30
E0
F0
30
30
30
30
3C
1C
ENDCHAR
STARTCHAR 007C
ENCODING 124
SWIDTH 576 0
DWIDTH 8 0
BBX 2 14 3 -3
BITMAP
C0
C0
C0
C0
C0
C0
C0
C0
C0
C0
C0
C0
C0
C0
ENDCHAR
STARTCHAR 007D
ENCODING 125
SWIDTH 576 0
DWIDTH 8 0
BBX 6 14 2 -3
BITMAP
E0
E0
20
20
20
30
3C
3C
30
20
20
60
E0
C0
ENDCHAR
STARTCHAR 007E
ENCODING 126
SWIDTH 576 0
DWIDTH 8 0
BBX 8 4 0 2
BITMAP
73
7B
4F
CE
ENDCHAR
STARTCHAR 00A0
ENCODING 160
SWIDTH 576 0
DWIDTH 8 0
BBX 0 0 0 0
BITMAP
ENDCHAR
STARTCHAR 00A1
ENCODING 161
SWIDTH 576 0
DWIDTH 8 0
BBX 2 11 3 -1
BITMAP
C0
C0
C0
00
40
40
C0
C0
C0
C0
C0
ENDCHAR
STARTCHAR 00A2
ENCODING 162
SWIDTH 576 0
DWIDTH 8 0
BBX 6 12 1 -2
BITMAP
10
10
3C
7C
D0
D0
D0
D0
7C
3C
10
10
ENDCHAR
STARTCHAR 00A3
ENCODING 163
SWIDTH 576 0
DWIDTH 8 0
BBX 7 10 1 0
BITMAP
3C
3C
60
60
FC
FC
60
60
FE
FE
ENDCHAR
STARTCHAR 00A4
ENCODING 164
SWIDTH 576 0
DWIDTH 8 0
BBX 7 7 1 1
BITMAP
44
FE
6C
44
6C
7E
C4
ENDCHAR
STARTCHAR 00A5
ENCODING 165
SWIDTH 576 0
DWIDTH 8 0
BBX 8 10 0 0
BITMAP
C3
66
36
FF
FF
FF
FF
18
18
18
ENDCHAR
STARTCHAR 00A6
ENCODING 166
SWIDTH 576 0
DWIDTH 8 0
BBX 2 12 3 -2
BITMAP
C0
C0
C0
C0
C0
00
00
C0
C0
C0
C0
C0
ENDCHAR
STARTCHAR 00A7
ENCODING 167
SWIDTH 576 0
DWIDTH 8 0
BBX 6 12 1 -2
BITMAP
78
78
40
70
78
CC
C4
7C
18
0C
7C
78
ENDCHAR
STARTCHAR 00A8
ENCODING 168
SWIDTH 576 0
DWIDTH 8 0
BBX 4 2 2 9
BITMAP
D0
D0
ENDCHAR
STARTCHAR 00A9
ENCODING 169
SWIDTH 576 0
DWIDTH 8 0
BBX 8 9 0 1
BITMAP
3C
62
9D
A1
A1
A1
9D
42
3C
ENDCHAR
STARTCHAR 00AA
ENCODING 170
SWIDTH 576 0
DWIDTH 8 0
BBX 5 7 2 4
BITMAP
F0
90
F8
98
98
F8
F8
ENDCHAR
STARTCHAR 00AB
ENCODING 171
SWIDTH 576 0
DWIDTH 8 0
BBX 7 6 0 1
BITMAP
12
36
D8
48
36
12
ENDCHAR
STARTCHAR 00AC
ENCODING 172
SWIDTH 576 0
DWIDTH 8 0
BBX 7 4 1 3
BITMAP
FE
FE
06
06
ENDCHAR
STARTCHAR 00AD
ENCODING 173
SWIDTH 576 0
DWIDTH 8 0
BBX 4 2 2 3
BITMAP
F0
F0
ENDCHAR
STARTCHAR 00AE
ENCODING 174
SWIDTH 576 0
DWIDTH 8 0
BBX 8 9 0 1
BITMAP
3C
42
BD
B5
B9
BD
B5
42
3C
ENDCHAR
STARTCHAR 00AF
ENCODING 175
SWIDTH 576 0
DWIDTH 8 0
BBX 4 2 2 10
BITMAP
F0
F0
ENDCHAR
STARTCHAR 00B0
ENCODING 176
SWIDTH 576 0
DWIDTH 8 0
BBX 4 5 2 6
BITMAP
70
90
90
90
70
ENDCHAR
STARTCHAR 00B1
ENCODING 177
SWIDTH 576 0
DWIDTH 8 0
BBX 7 9 1 0
BITMAP
30
30
FE
FE
30
30
30
FE
FE
ENDCHAR
STARTCHAR 00B2
ENCODING 178
SWIDTH 576 0
DWIDTH 8 0
BBX 4 5 2 8
BITMAP
F0
10
30
40
F0
ENDCHAR
STARTCHAR 00B3
ENCODING 179
SWIDTH 576 0
DWIDTH 8 0
BBX 5 5 2 8
BITMAP
F0
60
10
18
F0
ENDCHAR
STARTCHAR 00B4
ENCODING 180
SWIDTH 576 0
DWIDTH 8 0
BBX 4 3 3 9
BITMAP
30
60
C0
ENDCHAR
STARTCHAR 00B5
ENCODING 181
SWIDTH 576 0
DWIDTH 8 0
BBX 7 11 1 -3
BITMAP
CC
CC
CC
CC
CC
CC
FE
F6
C0
C0
C0
ENDCHAR
STARTCHAR 00B6
ENCODING 182
SWIDTH 576 0
DWIDTH 8 0
BBX 7 12 0 -2
BITMAP
3E
7E
7A
FA
7A
7A
1A
1A
1A
1A
1A
1A
ENDCHAR
STARTCHAR 00B7
ENCODING 183
SWIDTH 576 0
DWIDTH 8 0
BBX 2 2 3 4
BITMAP
C0
C0
ENDCHAR
STARTCHAR 00B8
ENCODING 184
SWIDTH 576 0
DWIDTH 8 0
BBX 4 3 2 -3
BITMAP
20
30
E0
ENDCHAR
STARTCHAR 00B9
ENCODING 185
SWIDTH 576 0
DWIDTH 8 0
BBX 5 5 2 8
BITMAP
E0
20
20
20
F8
ENDCHAR
STARTCHAR 00BA
ENCODING 186
SWIDTH 576 0
DWIDTH 8 0
BBX 5 7 2 3
BITMAP
70
98
98
98
70
00
F8
ENDCHAR
STARTCHAR 00BB
ENCODING 187
SWIDTH 576 0
DWIDTH 8 0
BBX 6 6 2 1
BITMAP
90
D8
6C
6C
D8
90
ENDCHAR
STARTCHAR 00BC
ENCODING 188
SWIDTH 576 0
DWIDTH 8 0
BBX 8 13 0 -2
BITMAP
E0
20
20
20
20
F8
0F
F0
06
0A
12
1F
02
ENDCHAR
STARTCHAR 00BD
ENCODING 189
SWIDTH 576 0
DWIDTH 8 0
BBX 8 13 0 -2
BITMAP
E0
20
20
20
F8
07
78
9E
13
02
06
08
1F
ENDCHAR
STARTCHAR 00BE
ENCODING 190
SWIDTH 576 0
DWIDTH 8 0
BBX 8 13 0 -2
BITMAP
70
18
30
08
08
F1
1E
E0
06
0A
12
1F
02
ENDCHAR
STARTCHAR 00BF
ENCODING 191
SWIDTH 576 0
DWIDTH 8 0
BBX 6 11 1 0
BITMAP
10
38
00
10
10
30
60
C0
C4
FC
78
ENDCHAR
STARTCHAR 00C0
ENCODING 192
SWIDTH 576 0
DWIDTH 8 0
BBX 8 13 0 0
BITMAP
30
18
00
1C
1C
3C
34
36
66
7E
7E
63
C3
ENDCHAR
STARTCHAR 00C1
ENCODING 193
SWIDTH 576 0
DWIDTH 8 0
BBX 8 13 0 0
BITMAP
0C
18
00
1C
1C
3C
34
36
66
7E
7E
63
C3
ENDCHAR
STARTCHAR 00C2
ENCODING 194
SWIDTH 576 0
DWIDTH 8 0
BBX 8 13 0 0
BITMAP
1C
34
02
1C
1C
3C
34
36
66
7E
7E
63
C3
ENDCHAR
STARTCHAR 00C3
ENCODING 195
SWIDTH 576 0
DWIDTH 8 0
BBX 8 13 0 0
BITMAP
32
2C
00
1C
1C
3C
34
36
66
7E
7E
63
C3
ENDCHAR
STARTCHAR 00C4
ENCODING 196
SWIDTH 576 0
DWIDTH 8 0
BBX 8 13 0 0
BITMAP
34
34
00
1C
1C
3C
34
36
66
7E
7E
63
C3
ENDCHAR
STARTCHAR 00C5
ENCODING 197
SWIDTH 576 0
DWIDTH 8 0
BBX 8 13 0 0
BITMAP
18
24
24
1C
1C
3C
34
36
66
7E
7E
63
C3
ENDCHAR
STARTCHAR 00C6
ENCODING 198
SWIDTH 576 0
DWIDTH 8 0
BBX 8 10 0 0
BITMAP
3F
3F
2C
2F
6F
6C
7C
7C
CF
CF
ENDCHAR
STARTCHAR 00C7
ENCODING 199
SWIDTH 576 0
DWIDTH 8 0
BBX 6 13 1 -3
BITMAP
3C
7C
E4
C0
C0
C0
C0
C0
64
7C
08
08
38
ENDCHAR
STARTCHAR 00C8
ENCODING 200
SWIDTH 576 0
DWIDTH 8 0
BBX 6 13 1 0
BITMAP
60
10
00
FC
FC
C0
C0
FC
FC
C0
C0
FC
FC
ENDCHAR
STARTCHAR 00C9
ENCODING 201
SWIDTH 576 0
DWIDTH 8 0
BBX 6 13 1 0
BITMAP
1C
30
00
FC
FC
C0
C0
FC
FC
C0
C0
FC
FC
ENDCHAR
STARTCHAR 00CA
ENCODING 202
SWIDTH 576 0
DWIDTH 8 0
BBX 6 13 1 0
BITMAP
38
6C
00
FC
FC
C0
C0
FC
FC
C0
C0
FC
FC
ENDCHAR
STARTCHAR 00CB
ENCODING 203
SWIDTH 576 0
DWIDTH 8 0
BBX 6 13 1 0
BITMAP
6C
6C
00
FC
FC
C0
C0
FC
FC
C0
C0
FC
FC
ENDCHAR
STARTCHAR 00CC
ENCODING 204
SWIDTH 576 0
DWIDTH 8 0
BBX 6 13 1 0
BITMAP
60
30
00
FC
FC
30
30
30
30
30
30
FC
FC
ENDCHAR
STARTCHAR 00CD
ENCODING 205
SWIDTH 576 0
DWIDTH 8 0
BBX 6 13 1 0
BITMAP
18
30
00
FC
FC
30
30
30
30
30
30
FC
FC
ENDCHAR
STARTCHAR 00CE
ENCODING 206
SWIDTH 576 0
DWIDTH 8 0
BBX 6 13 1 0
BITMAP
38
68
04
FC
FC
30
30
30
30
30
30
FC
FC
ENDCHAR
STARTCHAR 00CF
ENCODING 207
SWIDTH 576 0
DWIDTH 8 0
BBX 6 13 1 0
BITMAP
68
68
00
FC
FC
30
30
30
30
30
30
FC
FC
ENDCHAR
STARTCHAR 00D0
ENCODING 208
SWIDTH 576 0
DWIDTH 8 0
BBX 8 10 0 0
BITMAP
7C
7E
66
63
F3
F3
63
66
7E
7C
ENDCHAR
STARTCHAR 00D1
ENCODING 209
SWIDTH 576 0
DWIDTH 8 0
BBX 7 13 1 0
BITMAP
64
58
00
C6
E6
E6
E6
F6
D6
D6
DE
CE
CE
ENDCHAR
STARTCHAR 00D2
ENCODING 210
SWIDTH 576 0
DWIDTH 8 0
BBX 7 13 1 0
BITMAP
60
30
00
78
FC
CC
C6
C6
C6
C6
CC
FC
78
ENDCHAR
STARTCHAR 00D3
ENCODING 211
SWIDTH 576 0
DWIDTH 8 0
BBX 7 13 1 0
BITMAP
18
10
20
78
FC
CC
C6
C6
C6
C6
CC
FC
78
ENDCHAR
STARTCHAR 00D4
ENCODING 212
SWIDTH 576 0
DWIDTH 8 0
BBX 7 13 1 0
BITMAP
38
68
04
78
FC
CC
C6
C6
C6
C6
CC
FC
78
ENDCHAR
STARTCHAR 00D5
ENCODING 213
SWIDTH 576 0
DWIDTH 8 0
BBX 7 13 1 0
BITMAP
64
58
00
78
FC
CC
C6
C6
C6
C6
CC
FC
78
ENDCHAR
STARTCHAR 00D6
ENCODING 214
SWIDTH 576 0
DWIDTH 8 0
BBX 7 13 1 0
BITMAP
68
68
00
78
FC
CC
C6
C6
C6
C6
CC
FC
78
ENDCHAR
STARTCHAR 00D7
ENCODING 215
SWIDTH 576 0
DWIDTH 8 0
BBX 7 7 1 1
BITMAP
84
CE
78
30
78
CE
84
ENDCHAR
STARTCHAR 00D8
ENCODING 216
SWIDTH 576 0
DWIDTH 8 0
BBX 8 10 0 0
BITMAP
3D
7F
66
6F
6B
7B
73
66
7E
FC
ENDCHAR
STARTCHAR 00D9
ENCODING 217
SWIDTH 576 0
DWIDTH 8 0
BBX 7 13 1 0
BITMAP
60
30
00
C6
C6
C6
C6
C6
C6
C6
CE
FC
78
ENDCHAR
STARTCHAR 00DA
ENCODING 218
SWIDTH 576 0
DWIDTH 8 0
BBX 7 13 1 0
BITMAP
18
30
00
C6
C6
C6
C6
C6
C6
C6
CE
FC
78
ENDCHAR
STARTCHAR 00DB
ENCODING 219
SWIDTH 576 0
DWIDTH 8 0
BBX 7 13 1 0
BITMAP
38
68
04
C6
C6
C6
C6
C6
C6
C6
CE
FC
78
ENDCHAR
STARTCHAR 00DC
ENCODING 220
SWIDTH 576 0
DWIDTH 8 0
BBX 7 13 1 0
BITMAP
68
68
00
C6
C6
C6
C6
C6
C6
C6
CE
FC
78
ENDCHAR
STARTCHAR 00DD
ENCODING 221
SWIDTH 576 0
DWIDTH 8 0
BBX 8 13 0 0
BITMAP
0C
18
00
C3
67
66
3E
3C
18
18
18
18
18
ENDCHAR
STARTCHAR 00DE
ENCODING 222
SWIDTH 576 0
DWIDTH 8 0
BBX 7 10 1 0
BITMAP
C0
F0
FC
CE
C6
CE
FC
F0
C0
C0
ENDCHAR
STARTCHAR 00DF
ENCODING 223
SWIDTH 576 0
DWIDTH 8 0
BBX 7 11 1 0
BITMAP
78
FC
CC
DC
D0
D8
DC
CE
C6
FE
FC
ENDCHAR
STARTCHAR 00E0
ENCODING 224
SWIDTH 576 0
DWIDTH 8 0
BBX 7 12 1 0
BITMAP
E0
20
30
00
78
FC
3C
FE
C6
CC
DC
76
ENDCHAR
STARTCHAR 00E1
ENCODING 225
SWIDTH 576 0
DWIDTH 8 0
BBX 7 12 1 0
BITMAP
0C
18
30
00
78
FC
3C
FE
C6
CC
FC
76
ENDCHAR
STARTCHAR 00E2
ENCODING 226
SWIDTH 576 0
DWIDTH 8 0
BBX 7 12 1 0
BITMAP
30
78
4C
00
78
FC
3C
FE
C6
CC
FC
76
ENDCHAR
STARTCHAR 00E3
ENCODING 227
SWIDTH 576 0
DWIDTH 8 0
BBX 7 11 1 0
BITMAP
64
58
00
78
FC
3C
FE
C6
CC
FC
76
ENDCHAR
STARTCHAR 00E4
ENCODING 228
SWIDTH 576 0
DWIDTH 8 0
BBX 7 11 1 0
BITMAP
68
68
00
78
FC
3C
FE
C6
CC
FC
76
ENDCHAR
STARTCHAR 00E5
ENCODING 229
SWIDTH 576 0
DWIDTH 8 0
BBX 7 13 1 0
BITMAP
30
48
48
30
00
78
FC
3C
FE
C6
CC
FC
76
ENDCHAR
STARTCHAR 00E6
ENCODING 230
SWIDTH 576 0
DWIDTH 8 0
BBX 8 8 0 0
BITMAP
7E
7F
19
7F
FF
D8
FF
77
ENDCHAR
STARTCHAR 00E7
ENCODING 231
SWIDTH 576 0
DWIDTH 8 0
BBX 6 11 1 -3
BITMAP
3C
7C
E0
C0
C0
C0
64
7C
08
08
38
ENDCHAR
STARTCHAR 00E8
ENCODING 232
SWIDTH 576 0
DWIDTH 8 0
BBX 7 12 1 0
BITMAP
60
20
10
00
78
FC
C6
FE
FE
C0
FC
7C
ENDCHAR
STARTCHAR 00E9
ENCODING 233
SWIDTH 576 0
DWIDTH 8 0
BBX 7 12 1 0
BITMAP
0C
18
30
00
78
FC
C6
FE
FE
C0
FC
7C
ENDCHAR
STARTCHAR 00EA
ENCODING 234
SWIDTH 576 0
DWIDTH 8 0
BBX 7 12 1 0
BITMAP
30
28
4C
00
78
FC
C6
FE
FE
C0
FC
7C
ENDCHAR
STARTCHAR 00EB
ENCODING 235
SWIDTH 576 0
DWIDTH 8 0
BBX 7 11 1 0
BITMAP
6C
6C
00
78
FC
C6
FE
FE
C0
FC
7C
ENDCHAR
STARTCHAR 00EC
ENCODING 236
SWIDTH 576 0
DWIDTH 8 0
BBX 7 12 1 0
BITMAP
C0
60
30
00
F0
F0
30
30
30
30
3E
1E
ENDCHAR
STARTCHAR 00ED
ENCODING 237
SWIDTH 576 0
DWIDTH 8 0
BBX 7 12 1 0
BITMAP
0C
18
30
00
F0
F0
30
30
30
30
3E
1E
ENDCHAR
STARTCHAR 00EE
ENCODING 238
SWIDTH 576 0
DWIDTH 8 0
BBX 7 12 1 0
BITMAP
30
70
C8
00
F0
F0
30
30
30
30
3E
1E
ENDCHAR
STARTCHAR 00EF
ENCODING 239
SWIDTH 576 0
DWIDTH 8 0
BBX 7 11 1 0
BITMAP
58
58
00
F0
F0
30
30
30
30
3E
1E
ENDCHAR
STARTCHAR 00F0
ENCODING 240
SWIDTH 576 0
DWIDTH 8 0
BBX 7 11 1 0
BITMAP
6C
30
D8
3C
FC
C4
C6
C6
CC
FC
78
ENDCHAR
STARTCHAR 00F1
ENCODING 241
SWIDTH 576 0
DWIDTH 8 0
BBX 6 11 1 0
BITMAP
64
58
00
DC
FC
CC
CC
CC
CC
CC
CC
ENDCHAR
STARTCHAR 00F2
ENCODING 242
SWIDTH 576 0
DWIDTH 8 0
BBX 7 11 1 0
BITMAP
E0
30
00
78
FC
CE
C6
C6
CE
FC
78
ENDCHAR
STARTCHAR 00F3
ENCODING 243
SWIDTH 576 0
DWIDTH 8 0
BBX 7 11 1 0
BITMAP
0C
30
00
78
FC
CE
C6
C6
CE
FC
78
ENDCHAR
STARTCHAR 00F4
ENCODING 244
SWIDTH 576 0
DWIDTH 8 0
BBX 7 11 1 0
BITMAP
30
6C
00
78
FC
CE
C6
C6
CE
FC
78
ENDCHAR
STARTCHAR 00F5
ENCODING 245
SWIDTH 576 0
DWIDTH 8 0
BBX 7 11 1 0
BITMAP
64
58
00
78
FC
CE
C6
C6
CE
FC
78
ENDCHAR
STARTCHAR 00F6
ENCODING 246
SWIDTH 576 0
DWIDTH 8 0
BBX 7 11 1 0
BITMAP
68
68
00
78
FC
CE
C6
C6
CE
FC
78
ENDCHAR
STARTCHAR 00F7
ENCODING 247
SWIDTH 576 0
DWIDTH 8 0
BBX 8 8 0 1
BITMAP
18
18
00
FF
FF
00
18
18
ENDCHAR
STARTCHAR 00F8
ENCODING 248
SWIDTH 576 0
DWIDTH 8 0
BBX 8 10 0 -1
BITMAP
01
3F
7E
66
6B
7B
77
7E
FC
40
ENDCHAR
STARTCHAR 00F9
ENCODING 249
SWIDTH 576 0
DWIDTH 8 0
BBX 6 12 1 0
BITMAP
C0
60
30
00
CC
CC
CC
CC
CC
CC
FC
7C
ENDCHAR
STARTCHAR 00FA
ENCODING 250
SWIDTH 576 0
DWIDTH 8 0
BBX 6 12 1 0
BITMAP
0C
18
30
00
CC
CC
CC
CC
CC
CC
FC
7C
ENDCHAR
STARTCHAR 00FB
ENCODING 251
SWIDTH 576 0
DWIDTH 8 0
BBX 6 12 1 0
BITMAP
30
38
4C
00
CC
CC
CC
CC
CC
CC
FC
7C
ENDCHAR
STARTCHAR 00FC
ENCODING 252
SWIDTH 576 0
DWIDTH 8 0
BBX 6 11 1 0
BITMAP
68
68
00
CC
CC
CC
CC
CC
CC
FC
7C
ENDCHAR
STARTCHAR 00FD
ENCODING 253
SWIDTH 576 0
DWIDTH 8 0
BBX 8 15 0 -3
BITMAP
06
0C
18
00
E3
67
66
36
34
3C
1C
18
18
78
70
ENDCHAR
STARTCHAR 00FE
ENCODING 254
SWIDTH 576 0
DWIDTH 8 0
BBX 7 14 1 -3
BITMAP
C0
C0
C0
DC
FC
C6
C6
C6
C6
FC
DC
C0
C0
C0
ENDCHAR
STARTCHAR 00FF
ENCODING 255
SWIDTH 576 0
DWIDTH 8 0
BBX 8 14 0 -3
BITMAP
34
34
00
E3
67
66
36
34
3C
1C
18
18
78
70
ENDCHAR
STARTCHAR 0100
ENCODING 256
SWIDTH 576 0
DWIDTH 8 0
BBX 8 13 0 0
BITMAP
3C
3C
00
1C
1C
3C
34
36
66
7E
7E
63
C3
ENDCHAR
STARTCHAR 0101
ENCODING 257
SWIDTH 576 0
DWIDTH 8 0
BBX 7 11 1 0
BITMAP
78
78
00
78
FC
3C
FE
C6
CC
FC
76
ENDCHAR
STARTCHAR 0102
ENCODING 258
SWIDTH 576 0
DWIDTH 8 0
BBX 8 13 0 0
BITMAP
24
1C
00
1C
1C
3C
34
36
66
7E
7E
63
C3
ENDCHAR
STARTCHAR 0103
ENCODING 259
SWIDTH 576 0
DWIDTH 8 0
BBX 7 11 1 0
BITMAP
48
38
00
78
FC
3C
FE
C6
CC
DC
76
ENDCHAR
STARTCHAR 0104
ENCODING 260
SWIDTH 576 0
DWIDTH 8 0
BBX 8 13 0 -3
BITMAP
1C
1C
3C
34
36
66
7E
7E
63
C3
02
06
03
ENDCHAR
STARTCHAR 0105
ENCODING 261
SWIDTH 576 0
DWIDTH 8 0
BBX 7 11 1 -3
BITMAP
78
FC
04
7E
FE
CC
FC
76
0C
08
0E
ENDCHAR
STARTCHAR 0106
ENCODING 262
SWIDTH 576 0
DWIDTH 8 0
BBX 6 13 1 0
BITMAP
0C
18
00
3C
7C
E4
C0
C0
C0
C0
E4
7C
3C
ENDCHAR
STARTCHAR 0107
ENCODING 263
SWIDTH 576 0
DWIDTH 8 0
BBX 7 12 1 0
BITMAP
0E
08
18
00
3C
7C
C0
C0
C0
C0
7C
3C
ENDCHAR
STARTCHAR 0108
ENCODING 264
SWIDTH 576 0
DWIDTH 8 0
BBX 6 13 1 0
BITMAP
38
6C
00
3C
7C
E4
C0
C0
C0
C0
E4
7C
3C
ENDCHAR
STARTCHAR 0109
ENCODING 265
SWIDTH 576 0
DWIDTH 8 0
BBX 6 11 1 0
BITMAP
38
6C
00
3C
7C
C0
C0
C0
C0
7C
3C
ENDCHAR
STARTCHAR 010A
ENCODING 266
SWIDTH 576 0
DWIDTH 8 0
BBX 6 13 1 0
BITMAP
18
18
00
3C
7C
E4
C0
C0
C0
C0
E4
7C
3C
ENDCHAR
STARTCHAR 010B
ENCODING 267
SWIDTH 576 0
DWIDTH 8 0
BBX 6 11 1 0
BITMAP
18
18
00
3C
7C
C0
C0
C0
C0
7C
3C
ENDCHAR
STARTCHAR 010C
ENCODING 268
SWIDTH 576 0
DWIDTH 8 0
BBX 7 13 1 0
BITMAP
66
3C
00
3C
7C
E2
C0
C0
C0
C0
E2
7C
3C
ENDCHAR
STARTCHAR 010D
ENCODING 269
SWIDTH 576 0
DWIDTH 8 0
BBX 6 12 1 0
BITMAP
64
3C
18
00
3C
7C
E0
C0
C0
E0
7C
3C
ENDCHAR
STARTCHAR 010E
ENCODING 270
SWIDTH 576 0
DWIDTH 8 0
BBX 7 13 1 0
BITMAP
4C
38
00
F8
FC
CC
C6
C6
C6
C6
CC
FC
F8
ENDCHAR
STARTCHAR 010F
ENCODING 271
SWIDTH 576 0
DWIDTH 8 0
BBX 9 11 1 0
BITMAP
0D80
0D00
0F00
7C00
FC00
CC00
CC00
CC00
CC00
FC00
7C00
ENDCHAR
STARTCHAR 0110
ENCODING 272
SWIDTH 576 0
DWIDTH 8 0
BBX 8 10 0 0
BITMAP
7C
7E
66
63
F3
F3
63
66
7E
7C
ENDCHAR
STARTCHAR 0111
ENCODING 273
SWIDTH 576 0
DWIDTH 8 0
BBX 7 11 1 0
BITMAP
3E
3E
0C
7C
FC
CC
CC
CC
CC
FC
7C
ENDCHAR
STARTCHAR 0112
ENCODING 274
SWIDTH 576 0
DWIDTH 8 0
BBX 6 13 1 0
BITMAP
7C
7C
00
FC
FC
C0
C0
FC
FC
C0
C0
FC
FC
ENDCHAR
STARTCHAR 0113
ENCODING 275
SWIDTH 576 0
DWIDTH 8 0
BBX 7 11 1 0
BITMAP
7C
7C
00
78
FC
C6
FE
FE
C0
FC
7C
ENDCHAR
STARTCHAR 0114
ENCODING 276
SWIDTH 576 0
DWIDTH 8 0
BBX 6 13 1 0
BITMAP
64
38
00
FC
FC
C0
C0
FC
FC
C0
C0
FC
FC
ENDCHAR
STARTCHAR 0115
ENCODING 277
SWIDTH 576 0
DWIDTH 8 0
BBX 7 11 1 0
BITMAP
48
38
00
78
FC
C6
FE
FE
C0
FC
7C
ENDCHAR
STARTCHAR 0116
ENCODING 278
SWIDTH 576 0
DWIDTH 8 0
BBX 6 13 1 0
BITMAP
30
30
00
FC
FC
C0
C0
FC
FC
C0
C0
FC
FC
ENDCHAR
STARTCHAR 0117
ENCODING 279
SWIDTH 576 0
DWIDTH 8 0
BBX 7 11 1 0
BITMAP
30
30
00
78
FC
C6
FE
FE
C0
FC
7C
ENDCHAR
STARTCHAR 0118
ENCODING 280
SWIDTH 576 0
DWIDTH 8 0
BBX 6 13 1 -3
BITMAP
FC
FC
C0
C0
FC
FC
C0
C0
FC
FC
08
08
0C
ENDCHAR
STARTCHAR 0119
ENCODING 281
SWIDTH 576 0
DWIDTH 8 0
BBX 7 11 1 -3
BITMAP
78
FC
C6
FE
FE
C0
FC
7C
08
08
0C
ENDCHAR
STARTCHAR 011A
ENCODING 282
SWIDTH 576 0
DWIDTH 8 0
BBX 6 13 1 0
BITMAP
6C
38
00
FC
FC
C0
C0
FC
FC
C0
C0
FC
FC
ENDCHAR
STARTCHAR 011B
ENCODING 283
SWIDTH 576 0
DWIDTH 8 0
BBX 7 12 1 0
BITMAP
4C
38
30
00
78
FC
C6
FE
FE
C0
FC
7C
ENDCHAR
STARTCHAR 011C
ENCODING 284
SWIDTH 576 0
DWIDTH 8 0
BBX 7 13 1 0
BITMAP
38
2C
40
3C
7C
C2
C0
CE
CE
C6
C6
7E
3C
ENDCHAR
STARTCHAR 011D
ENCODING 285
SWIDTH 576 0
DWIDTH 8 0
BBX 6 15 1 -3
BITMAP
10
38
4C
00
74
FC
CC
CC
CC
CC
FC
7C
0C
FC
F8
ENDCHAR
STARTCHAR 011E
ENCODING 286
SWIDTH 576 0
DWIDTH 8 0
BBX 7 13 1 0
BITMAP
64
38
00
3C
7C
E2
C0
CE
CE
C6
E6
7E
3C
ENDCHAR
STARTCHAR 011F
ENCODING 287
SWIDTH 576 0
DWIDTH 8 0
BBX 6 14 1 -3
BITMAP
48
38
00
74
FC
CC
CC
CC
CC
FC
7C
0C
FC
F8
ENDCHAR
STARTCHAR 0120
ENCODING 288
SWIDTH 576 0
DWIDTH 8 0
BBX 7 13 1 0
BITMAP
18
18
00
3C
7C
C2
C0
CE
CE
C6
C6
7E
3C
ENDCHAR
STARTCHAR 0121
ENCODING 289
SWIDTH 576 0
DWIDTH 8 0
BBX 6 14 1 -3
BITMAP
30
30
00
74
FC
CC
CC
CC
CC
FC
7C
0C
FC
F8
ENDCHAR
STARTCHAR 0122
ENCODING 290
SWIDTH 576 0
DWIDTH 8 0
BBX 7 13 1 -3
BITMAP
3C
7C
C2
C0
CE
CE
C6
C6
7E
3C
00
18
10
ENDCHAR
STARTCHAR 0123
ENCODING 291
SWIDTH 576 0
DWIDTH 8 0
BBX 6 14 1 -3
BITMAP
18
30
00
74
FC
CC
CC
CC
CC
FC
7C
0C
FC
F8
ENDCHAR
STARTCHAR 0124
ENCODING 292
SWIDTH 576 0
DWIDTH 8 0
BBX 6 13 1 0
BITMAP
38
68
04
CC
CC
CC
FC
FC
CC
CC
CC
CC
CC
ENDCHAR
STARTCHAR 0125
ENCODING 293
SWIDTH 576 0
DWIDTH 8 0
BBX 6 13 1 0
BITMAP
38
64
C0
C0
C0
DC
FC
CC
CC
CC
CC
CC
CC
ENDCHAR
STARTCHAR 0126
ENCODING 294
SWIDTH 576 0
DWIDTH 8 0
BBX 8 10 0 0
BITMAP
66
FF
FF
7E
7E
66
66
66
66
66
ENDCHAR
STARTCHAR 0127
ENCODING 295
SWIDTH 576 0
DWIDTH 8 0
BBX 7 11 0 0
BITMAP
60
F8
F8
6E
7E
66
66
66
66
66
66
ENDCHAR
STARTCHAR 0128
ENCODING 296
SWIDTH 576 0
DWIDTH 8 0
BBX 6 13 1 0
BITMAP
64
58
00
FC
FC
30
30
30
30
30
30
FC
FC
ENDCHAR
STARTCHAR 0129
ENCODING 297
SWIDTH 576 0
DWIDTH 8 0
BBX 7 11 1 0
BITMAP
68
98
00
F0
F0
30
30
30
30
3E
1E
ENDCHAR
STARTCHAR 012A
ENCODING 298
SWIDTH 576 0
DWIDTH 8 0
BBX 6 13 1 0
BITMAP
78
78
00
FC
FC
30
30
30
30
30
30
FC
FC
ENDCHAR
STARTCHAR 012B
ENCODING 299
SWIDTH 576 0
DWIDTH 8 0
BBX 7 11 1 0
BITMAP
78
78
00
F0
F0
30
30
30
30
3E
1E
ENDCHAR
STARTCHAR 012C
ENCODING 300
SWIDTH 576 0
DWIDTH 8 0
BBX 6 13 1 0
BITMAP
48
38
00
FC
FC
30
30
30
30
30
30
FC
FC
ENDCHAR
STARTCHAR 012D
ENCODING 301
SWIDTH 576 0
DWIDTH 8 0
BBX 7 11 1 0
BITMAP
48
70
00
F0
F0
30
30
30
30
3E
1E
ENDCHAR
STARTCHAR 012E
ENCODING 302
SWIDTH 576 0
DWIDTH 8 0
BBX 6 13 1 -3
BITMAP
FC
FC
30
30
30
30
30
30
FC
FC
10
30
18
ENDCHAR
STARTCHAR 012F
ENCODING 303
SWIDTH 576 0
DWIDTH 8 0
BBX 7 14 1 -3
BITMAP
30
30
00
F0
F0
30
30
30
30
3E
1E
08
08
0E
ENDCHAR
STARTCHAR 0130
ENCODING 304
SWIDTH 576 0
DWIDTH 8 0
BBX 6 13 1 0
BITMAP
30
30
00
FC
FC
30
30
30
30
30
30
FC
FC
ENDCHAR
STARTCHAR 0131
ENCODING 305
SWIDTH 576 0
DWIDTH 8 0
BBX 7 8 1 0
BITMAP
F0
F0
30
30
30
30
3E
1E
ENDCHAR
STARTCHAR 0132
ENCODING 306
SWIDTH 576 0
DWIDTH 8 0
BBX 6 10 1 0
BITMAP
CC
CC
CC
CC
CC
CC
0C
0C
FC
F0
ENDCHAR
STARTCHAR 0133
ENCODING 307
SWIDTH 576 0
DWIDTH 8 0
BBX 7 14 1 -3
BITMAP
C6
C6
00
C6
C6
C6
C6
C6
C6
C6
C6
06
3C
38
ENDCHAR
STARTCHAR 0134
ENCODING 308
SWIDTH 576 0
DWIDTH 8 0
BBX 7 13 1 0
BITMAP
1C
16
20
7C
7C
0C
0C
0C
0C
0C
8C
FC
F8
ENDCHAR
STARTCHAR 0135
ENCODING 309
SWIDTH 576 0
DWIDTH 8 0
BBX 7 15 1 -3
BITMAP
18
38
66
00
78
78
18
18
18
18
18
18
18
F8
F0
ENDCHAR
STARTCHAR 0136
ENCODING 310
SWIDTH 576 0
DWIDTH 8 0
BBX 7 13 1 -3
BITMAP
C6
CC
D8
F0
F0
F8
D8
CC
CC
C6
00
18
30
ENDCHAR
STARTCHAR 0137
ENCODING 311
SWIDTH 576 0
DWIDTH 8 0
BBX 7 14 1 -3
BITMAP
C0
C0
C0
CE
DC
F8
F0
F8
CC
CC
C6
00
18
30
ENDCHAR
STARTCHAR 0138
ENCODING 312
SWIDTH 576 0
DWIDTH 8 0
BBX 7 8 1 0
BITMAP
CE
DC
F8
F0
F8
CC
CC
C6
ENDCHAR
STARTCHAR 0139
ENCODING 313
SWIDTH 576 0
DWIDTH 8 0
BBX 6 13 2 0
BITMAP
30
60
00
C0
C0
C0
C0
C0
C0
C0
C0
FC
FC
ENDCHAR
STARTCHAR 013A
ENCODING 314
SWIDTH 576 0
DWIDTH 8 0
BBX 6 13 1 0
BITMAP
18
30
F0
F0
30
30
30
30
30
30
30
3C
1C
ENDCHAR
STARTCHAR 013B
ENCODING 315
SWIDTH 576 0
DWIDTH 8 0
BBX 6 13 2 -3
BITMAP
C0
C0
C0
C0
C0
C0
C0
C0
FC
FC
00
30
60
ENDCHAR
STARTCHAR 013C
ENCODING 316
SWIDTH 576 0
DWIDTH 8 0
BBX 6 14 1 -3
BITMAP
F0
F0
30
30
30
30
30
30
30
3C
1C
00
30
20
ENDCHAR
STARTCHAR 013D
ENCODING 317
SWIDTH 576 0
DWIDTH 8 0
BBX 6 10 2 0
BITMAP
CC
C8
D8
C0
C0
C0
C0
C0
FC
FC
ENDCHAR
STARTCHAR 013E
ENCODING 318
SWIDTH 576 0
DWIDTH 8 0
BBX 7 11 1 0
BITMAP
F6
F6
34
30
30
30
30
30
30
3C
1C
ENDCHAR
STARTCHAR 013F
ENCODING 319
SWIDTH 576 0
DWIDTH 8 0
BBX 6 10 2 0
BITMAP
C0
C0
C0
C0
D8
D8
C0
C0
FC
FC
ENDCHAR
STARTCHAR 0140
ENCODING 320
SWIDTH 576 0
DWIDTH 8 0
BBX 7 11 0 0
BITMAP
F0
F0
30
30
30
36
36
30
30
1E
1E
ENDCHAR
STARTCHAR 0141
ENCODING 321
SWIDTH 576 0
DWIDTH 8 0
BBX 8 10 0 0
BITMAP
30
30
34
3C
30
70
B0
30
3F
3F
ENDCHAR
STARTCHAR 0142
ENCODING 322
SWIDTH 576 0
DWIDTH 8 0
BBX 8 11 0 0
BITMAP
78
78
1A
1E
1C
38
F8
58
18
1F
0F
ENDCHAR
STARTCHAR 0143
ENCODING 323
SWIDTH 576 0
DWIDTH 8 0
BBX 7 13 1 0
BITMAP
1C
10
20
C6
E6
E6
E6
F6
D6
D6
DE
CE
CE
ENDCHAR
STARTCHAR 0144
ENCODING 324
SWIDTH 576 0
DWIDTH 8 0
BBX 6 12 1 0
BITMAP
0C
18
30
00
DC
FC
CC
CC
CC
CC
CC
CC
ENDCHAR
STARTCHAR 0145
ENCODING 325
SWIDTH 576 0
DWIDTH 8 0
BBX 7 13 1 -3
BITMAP
C6
E6
E6
E6
F6
D6
D6
DE
CE
CE
00
30
30
ENDCHAR
STARTCHAR 0146
ENCODING 326
SWIDTH 576 0
DWIDTH 8 0
BBX 6 11 1 -3
BITMAP
DC
FC
CC
CC
CC
CC
CC
CC
00
10
30
ENDCHAR
STARTCHAR 0147
ENCODING 327
SWIDTH 576 0
DWIDTH 8 0
BBX 7 13 1 0
BITMAP
6C
38
00
C6
E6
E6
E6
F6
D6
D6
DE
CE
CE
ENDCHAR
STARTCHAR 0148
ENCODING 328
SWIDTH 576 0
DWIDTH 8 0
BBX 6 12 1 0
BITMAP
44
28
38
00
DC
FC
CC
CC
CC
CC
CC
CC
ENDCHAR
STARTCHAR 0149
ENCODING 329
SWIDTH 576 0
DWIDTH 8 0
BBX 8 11 0 0
BITMAP
C0
C0
C0
F7
BF
3B
33
33
33
33
33
ENDCHAR
STARTCHAR 014A
ENCODING 330
SWIDTH 576 0
DWIDTH 8 0
BBX 7 13 1 -3
BITMAP
FC
FC
C6
C6
C6
C6
C6
C6
C6
C6
06
1C
1C
ENDCHAR
STARTCHAR 014B
ENCODING 331
SWIDTH 576 0
DWIDTH 8 0
BBX 6 11 1 -3
BITMAP
DC
FC
CC
CC
CC
CC
CC
CC
0C
1C
18
ENDCHAR
STARTCHAR 014C
ENCODING 332
SWIDTH 576 0
DWIDTH 8 0
BBX 7 13 1 0
BITMAP
78
78
00
78
FC
CC
C6
C6
C6
C6
CC
FC
78
ENDCHAR
STARTCHAR 014D
ENCODING 333
SWIDTH 576 0
DWIDTH 8 0
BBX 7 11 1 0
BITMAP
78
78
00
78
FC
CE
C6
C6
CE
FC
78
ENDCHAR
STARTCHAR 014E
ENCODING 334
SWIDTH 576 0
DWIDTH 8 0
BBX 7 13 1 0
BITMAP
48
38
00
78
FC
CC
C6
C6
C6
C6
CC
FC
78
ENDCHAR
STARTCHAR 014F
ENCODING 335
SWIDTH 576 0
DWIDTH 8 0
BBX 7 11 1 0
BITMAP
48
38
00
78
FC
CE
C6
C6
CE
FC
78
ENDCHAR
STARTCHAR 0150
ENCODING 336
SWIDTH 576 0
DWIDTH 8 0
BBX 7 13 1 0
BITMAP
3E
58
00
78
FC
CC
C6
C6
C6
C6
CC
FC
78
ENDCHAR
STARTCHAR 0151
ENCODING 337
SWIDTH 576 0
DWIDTH 8 0
BBX 7 12 1 0
BITMAP
34
28
58
00
78
FC
CE
C6
C6
CE
FC
78
ENDCHAR
STARTCHAR 0152
ENCODING 338
SWIDTH 576 0
DWIDTH 8 0
BBX 8 10 0 0
BITMAP
3F
7F
6C
4F
CF
CC
4C
6C
7F
3F
ENDCHAR
STARTCHAR 0153
ENCODING 339
SWIDTH 576 0
DWIDTH 8 0
BBX 8 8 0 0
BITMAP
76
FF
D9
CF
CF
D8
FF
77
ENDCHAR
STARTCHAR 0154
ENCODING 340
SWIDTH 576 0
DWIDTH 8 0
BBX 7 13 1 0
BITMAP
18
30
00
F8
FC
CC
CC
FC
F8
DC
CC
CE
C6
ENDCHAR
STARTCHAR 0155
ENCODING 341
SWIDTH 576 0
DWIDTH 8 0
BBX 6 12 2 0
BITMAP
0C
18
30
00
DC
FC
C0
C0
C0
C0
C0
C0
ENDCHAR
STARTCHAR 0156
ENCODING 342
SWIDTH 576 0
DWIDTH 8 0
BBX 7 13 1 -3
BITMAP
F8
FC
CC
CC
FC
F8
CC
CC
C6
C6
00
18
30
ENDCHAR
STARTCHAR 0157
ENCODING 343
SWIDTH 576 0
DWIDTH 8 0
BBX 6 11 2 -3
BITMAP
DC
FC
C0
C0
C0
C0
C0
C0
00
C0
80
ENDCHAR
STARTCHAR 0158
ENCODING 344
SWIDTH 576 0
DWIDTH 8 0
BBX 7 13 1 0
BITMAP
CC
78
00
F8
FC
CC
CC
FC
F8
DC
CC
CE
C6
ENDCHAR
STARTCHAR 0159
ENCODING 345
SWIDTH 576 0
DWIDTH 8 0
BBX 6 12 2 0
BITMAP
C8
58
30
00
DC
FC
C0
C0
C0
C0
C0
C0
ENDCHAR
STARTCHAR 015A
ENCODING 346
SWIDTH 576 0
DWIDTH 8 0
BBX 7 13 1 0
BITMAP
1C
10
20
7C
FC
C4
C0
78
3C
0C
8E
FC
F8
ENDCHAR
STARTCHAR 015B
ENCODING 347
SWIDTH 576 0
DWIDTH 8 0
BBX 6 12 1 0
BITMAP
0C
18
30
00
7C
FC
C0
78
3C
0C
FC
F8
ENDCHAR
STARTCHAR 015C
ENCODING 348
SWIDTH 576 0
DWIDTH 8 0
BBX 7 13 1 0
BITMAP
30
68
04
7C
FC
C4
C0
78
3C
0C
8E
FC
F8
ENDCHAR
STARTCHAR 015D
ENCODING 349
SWIDTH 576 0
DWIDTH 8 0
BBX 6 11 1 0
BITMAP
30
6C
00
7C
FC
C0
78
3C
0C
FC
F8
ENDCHAR
STARTCHAR 015E
ENCODING 350
SWIDTH 576 0
DWIDTH 8 0
BBX 7 13 1 -3
BITMAP
7C
FC
C4
C0
78
3C
0C
8E
FC
F8
10
18
70
ENDCHAR
STARTCHAR 015F
ENCODING 351
SWIDTH 576 0
DWIDTH 8 0
BBX 6 11 1 -3
BITMAP
7C
FC
C0
70
3C
0C
FC
F8
10
18
70
ENDCHAR
STARTCHAR 0160
ENCODING 352
SWIDTH 576 0
DWIDTH 8 0
BBX 7 13 1 0
BITMAP
4C
38
00
7C
FC
C4
C0
78
3C
0C
8E
FC
F8
ENDCHAR
STARTCHAR 0161
ENCODING 353
SWIDTH 576 0
DWIDTH 8 0
BBX 6 12 1 0
BITMAP
4C
78
30
00
7C
EC
C0
F8
3C
0C
FC
F8
ENDCHAR
STARTCHAR 0162
ENCODING 354
SWIDTH 576 0
DWIDTH 8 0
BBX 7 13 1 -3
BITMAP
FE
FE
30
30
30
30
30
30
30
30
10
18
70
ENDCHAR
STARTCHAR 0163
ENCODING 355
SWIDTH 576 0
DWIDTH 8 0
BBX 6 14 1 -3
BITMAP
30
30
30
FC
FC
30
30
30
30
3C
3C
08
04
1C
ENDCHAR
STARTCHAR 0164
ENCODING 356
SWIDTH 576 0
DWIDTH 8 0
BBX 7 13 1 0
BITMAP
4C
38
00
FE
FE
30
30
30
30
30
30
30
30
ENDCHAR
STARTCHAR 0165
ENCODING 357
SWIDTH 576 0
DWIDTH 8 0
BBX 7 12 1 0
BITMAP
06
16
34
30
FC
FC
30
30
30
30
3C
3C
ENDCHAR
STARTCHAR 0166
ENCODING 358
SWIDTH 576 0
DWIDTH 8 0
BBX 7 10 1 0
BITMAP
FE
FE
30
30
30
FC
FC
30
30
30
ENDCHAR
STARTCHAR 0167
ENCODING 359
SWIDTH 576 0
DWIDTH 8 0
BBX 6 11 1 0
BITMAP
30
30
30
FC
FC
F8
F8
30
30
3C
3C
ENDCHAR
STARTCHAR 0168
ENCODING 360
SWIDTH 576 0
DWIDTH 8 0
BBX 7 13 1 0
BITMAP
64
58
00
C6
C6
C6
C6
C6
C6
C6
CE
FC
78
ENDCHAR
STARTCHAR 0169
ENCODING 361
SWIDTH 576 0
DWIDTH 8 0
BBX 6 11 1 0
BITMAP
64
58
00
CC
CC
CC
CC
CC
CC
FC
7C
ENDCHAR
STARTCHAR 016A
ENCODING 362
SWIDTH 576 0
DWIDTH 8 0
BBX 7 13 1 0
BITMAP
78
78
00
C6
C6
C6
C6
C6
C6
C6
CE
FC
78
ENDCHAR
STARTCHAR 016B
ENCODING 363
SWIDTH 576 0
DWIDTH 8 0
BBX 6 10 1 0
BITMAP
78
78
CC
CC
CC
CC
CC
CC
FC
7C
ENDCHAR
STARTCHAR 016C
ENCODING 364
SWIDTH 576 0
DWIDTH 8 0
BBX 7 13 1 0
BITMAP
48
38
00
C6
C6
C6
C6
C6
C6
C6
C6
FC
78
ENDCHAR
STARTCHAR 016D
ENCODING 365
SWIDTH 576 0
DWIDTH 8 0
BBX 6 11 1 0
BITMAP
48
38
00
CC
CC
CC
CC
CC
CC
FC
7C
ENDCHAR
STARTCHAR 016E
ENCODING 366
SWIDTH 576 0
DWIDTH 8 0
BBX 7 13 1 0
BITMAP
30
78
48
FE
D6
C6
C6
C6
C6
C6
CE
FC
78
ENDCHAR
STARTCHAR 016F
ENCODING 367
SWIDTH 576 0
DWIDTH 8 0
BBX 6 13 1 0
BITMAP
30
48
48
30
00
CC
CC
CC
CC
CC
CC
FC
7C
ENDCHAR
STARTCHAR 0170
ENCODING 368
SWIDTH 576 0
DWIDTH 8 0
BBX 7 13 1 0
BITMAP
3E
58
00
C6
C6
C6
C6
C6
C6
C6
CE
FC
78
ENDCHAR
STARTCHAR 0171
ENCODING 369
SWIDTH 576 0
DWIDTH 8 0
BBX 6 12 1 0
BITMAP
34
28
58
00
CC
CC
CC
CC
CC
CC
FC
7C
ENDCHAR
STARTCHAR 0172
ENCODING 370
SWIDTH 576 0
DWIDTH 8 0
BBX 7 13 1 -3
BITMAP
C6
C6
C6
C6
C6
C6
C6
CE
FC
78
20
20
38
ENDCHAR
STARTCHAR 0173
ENCODING 371
SWIDTH 576 0
DWIDTH 8 0
BBX 7 11 1 -3
BITMAP
CC
CC
CC
CC
CC
CC
FC
7C
04
0C
06
ENDCHAR
STARTCHAR 0174
ENCODING 372
SWIDTH 576 0
DWIDTH 8 0
BBX 8 13 0 0
BITMAP
1C
34
02
C1
C3
DB
DB
5F
5F
57
76
66
66
ENDCHAR
STARTCHAR 0175
ENCODING 373
SWIDTH 576 0
DWIDTH 8 0
BBX 8 12 0 0
BITMAP
18
1C
26
00
C1
C3
DB
5B
5B
56
76
66
ENDCHAR
STARTCHAR 0176
ENCODING 374
SWIDTH 576 0
DWIDTH 8 0
BBX 8 13 0 0
BITMAP
1C
34
02
C3
67
66
3E
3C
18
18
18
18
18
ENDCHAR
STARTCHAR 0177
ENCODING 375
SWIDTH 576 0
DWIDTH 8 0
BBX 8 15 0 -3
BITMAP
18
1C
26
00
E3
67
66
36
34
3C
1C
18
18
78
70
ENDCHAR
STARTCHAR 0178
ENCODING 376
SWIDTH 576 0
DWIDTH 8 0
BBX 8 13 0 0
BITMAP
34
34
00
C3
67
66
3E
3C
18
18
18
18
18
ENDCHAR
STARTCHAR 0179
ENCODING 377
SWIDTH 576 0
DWIDTH 8 0
BBX 7 13 1 0
BITMAP
1C
10
20
FE
FE
0C
18
38
30
60
E0
FE
FE
ENDCHAR
STARTCHAR 017A
ENCODING 378
SWIDTH 576 0
DWIDTH 8 0
BBX 6 12 1 0
BITMAP
0C
18
30
00
FC
FC
1C
38
30
60
FC
FC
ENDCHAR
STARTCHAR 017B
ENCODING 379
SWIDTH 576 0
DWIDTH 8 0
BBX 7 13 1 0
BITMAP
10
10
00
FE
FE
0C
18
38
30
60
E0
FE
FE
ENDCHAR
STARTCHAR 017C
ENCODING 380
SWIDTH 576 0
DWIDTH 8 0
BBX 6 11 1 0
BITMAP
30
30
00
FC
FC
1C
38
30
60
FC
FC
ENDCHAR
STARTCHAR 017D
ENCODING 381
SWIDTH 576 0
DWIDTH 8 0
BBX 7 13 1 0
BITMAP
4C
38
00
FE
FE
0C
18
38
30
60
E0
FE
FE
ENDCHAR
STARTCHAR 017E
ENCODING 382
SWIDTH 576 0
DWIDTH 8 0
BBX 6 12 1 0
BITMAP
44
68
30
00
FC
FC
1C
38
30
60
FC
FC
ENDCHAR
STARTCHAR 017F
ENCODING 383
SWIDTH 576 0
DWIDTH 8 0
BBX 6 13 1 -2
BITMAP
1C
3C
30
F0
F0
30
30
30
30
30
30
30
30
ENDCHAR
STARTCHAR 0192
ENCODING 402
SWIDTH 576 0
DWIDTH 8 0
BBX 8 14 0 -3
BITMAP
07
0F
0C
08
18
7E
7E
18
18
18
10
30
F0
E0
ENDCHAR
STARTCHAR 01A0
ENCODING 416
SWIDTH 576 0
DWIDTH 8 0
BBX 8 10 0 0
BITMAP
39
7F
C7
C6
C6
C6
C6
C6
7C
38
ENDCHAR
STARTCHAR 01A1
ENCODING 417
SWIDTH 576 0
DWIDTH 8 0
BBX 8 8 0 0
BITMAP
39
7D
C7
C6
C6
C6
7C
38
ENDCHAR
STARTCHAR 01A4
ENCODING 420
SWIDTH 576 0
DWIDTH 8 0
BBX 8 10 0 0
BITMAP
FE
FF
B3
33
3F
3E
30
30
30
30
ENDCHAR
STARTCHAR 01AF
ENCODING 431
SWIDTH 576 0
DWIDTH 8 0
BBX 8 11 0 0
BITMAP
01
C7
C7
C6
C6
C6
C6
C6
C6
FC
7C
ENDCHAR
STARTCHAR 01B0
ENCODING 432
SWIDTH 576 0
DWIDTH 8 0
BBX 8 8 0 0
BITMAP
CD
CD
CF
CC
CC
CC
FC
7C
ENDCHAR
STARTCHAR 01E6
ENCODING 486
SWIDTH 576 0
DWIDTH 8 0
BBX 7 13 1 0
BITMAP
64
38
00
3C
7C
C2
C0
CE
CE
C6
C6
7E
3C
ENDCHAR
STARTCHAR 01E7
ENCODING 487
SWIDTH 576 0
DWIDTH 8 0
BBX 6 15 1 -3
BITMAP
CC
68
30
00
74
FC
CC
CC
CC
CC
FC
7C
0C
FC
F8
ENDCHAR
STARTCHAR 01FE
ENCODING 510
SWIDTH 576 0
DWIDTH 8 0
BBX 8 13 0 0
BITMAP
0C
08
10
3D
7F
66
6F
6B
7B
73
66
7E
FC
ENDCHAR
STARTCHAR 01FF
ENCODING 511
SWIDTH 576 0
DWIDTH 8 0
BBX 8 13 0 -1
BITMAP
06
0C
18
01
3F
7E
67
6B
7B
77
7E
FC
40
ENDCHAR
STARTCHAR 0218
ENCODING 536
SWIDTH 576 0
DWIDTH 8 0
BBX 7 13 1 -3
BITMAP
7C
FC
C4
C0
78
3C
0C
8E
FC
F8
00
30
20
ENDCHAR
STARTCHAR 0219
ENCODING 537
SWIDTH 576 0
DWIDTH 8 0
BBX 6 11 1 -3
BITMAP
7C
FC
C0
78
3C
0C
FC
F8
00
30
20
ENDCHAR
STARTCHAR 021A
ENCODING 538
SWIDTH 576 0
DWIDTH 8 0
BBX 7 13 1 -3
BITMAP
FE
FE
30
30
30
30
30
30
30
30
10
18
70
ENDCHAR
STARTCHAR 021B
ENCODING 539
SWIDTH 576 0
DWIDTH 8 0
BBX 6 14 1 -3
BITMAP
30
30
30
FC
FC
30
30
30
30
3C
3C
08
04
1C
ENDCHAR
STARTCHAR 02B9
ENCODING 697
SWIDTH 576 0
DWIDTH 8 0
BBX 2 3 3 8
BITMAP
40
40
C0
ENDCHAR
STARTCHAR 02BB
ENCODING 699
SWIDTH 576 0
DWIDTH 8 0
BBX 3 5 3 6
BITMAP
60
40
C0
C0
C0
ENDCHAR
STARTCHAR 02BC
ENCODING 700
SWIDTH 576 0
DWIDTH 8 0
BBX 3 5 3 6
BITMAP
60
60
60
C0
C0
ENDCHAR
STARTCHAR 02BD
ENCODING 701
SWIDTH 576 0
DWIDTH 8 0
BBX 2 4 3 8
BITMAP
C0
C0
80
40
ENDCHAR
STARTCHAR 02BE
ENCODING 702
SWIDTH 576 0
DWIDTH 8 0
BBX 2 4 3 7
BITMAP
80
40
40
80
ENDCHAR
STARTCHAR 02BF
ENCODING 703
SWIDTH 576 0
DWIDTH 8 0
BBX 2 4 3 7
BITMAP
40
80
80
40
ENDCHAR
STARTCHAR 02C0
ENCODING 704
SWIDTH 576 0
DWIDTH 8 0
BBX 4 6 2 5
BITMAP
E0
10
10
70
40
40
ENDCHAR
STARTCHAR 02C1
ENCODING 705
SWIDTH 576 0
DWIDTH 8 0
BBX 4 6 2 5
BITMAP
70
C0
C0
60
20
20
ENDCHAR
STARTCHAR 02C6
ENCODING 710
SWIDTH 576 0
DWIDTH 8 0
BBX 5 3 2 9
BITMAP
60
70
98
ENDCHAR
STARTCHAR 02C7
ENCODING 711
SWIDTH 576 0
DWIDTH 8 0
BBX 5 3 2 9
BITMAP
88
D0
60
ENDCHAR
STARTCHAR 02C8
ENCODING 712
SWIDTH 576 0
DWIDTH 8 0
BBX 1 4 4 7
BITMAP
80
80
80
80
ENDCHAR
STARTCHAR 02C9
ENCODING 713
SWIDTH 576 0
DWIDTH 8 0
BBX 4 2 2 10
BITMAP
F0
F0
ENDCHAR
STARTCHAR 02CC
ENCODING 716
SWIDTH 576 0
DWIDTH 8 0
BBX 1 4 4 -1
BITMAP
80
80
80
80
ENDCHAR
STARTCHAR 02CD
ENCODING 717
SWIDTH 576 0
DWIDTH 8 0
BBX 4 2 2 -3
BITMAP
F0
F0
ENDCHAR
STARTCHAR 02CE
ENCODING 718
SWIDTH 576 0
DWIDTH 8 0
BBX 4 3 2 -4
BITMAP
C0
60
30
ENDCHAR
STARTCHAR 02CF
ENCODING 719
SWIDTH 576 0
DWIDTH 8 0
BBX 3 3 3 -4
BITMAP
60
40
80
ENDCHAR
STARTCHAR 02D0
ENCODING 720
SWIDTH 576 0
DWIDTH 8 0
BBX 3 8 3 0
BITMAP
E0
40
40
00
00
40
40
E0
ENDCHAR
STARTCHAR 02D1
ENCODING 721
SWIDTH 576 0
DWIDTH 8 0
BBX 3 3 3 5
BITMAP
E0
40
40
ENDCHAR
STARTCHAR 02D8
ENCODING 728
SWIDTH 576 0
DWIDTH 8 0
BBX 4 2 2 9
BITMAP
90
70
ENDCHAR
STARTCHAR 02D9
ENCODING 729
SWIDTH 576 0
DWIDTH 8 0
BBX 2 2 3 9
BITMAP
C0
C0
ENDCHAR
STARTCHAR 02DA
ENCODING 730
SWIDTH 576 0
DWIDTH 8 0
BBX 4 4 2 9
BITMAP
60
90
90
60
ENDCHAR
STARTCHAR 02DB
ENCODING 731
SWIDTH 576 0
DWIDTH 8 0
BBX 3 3 3 -3
BITMAP
C0
80
E0
ENDCHAR
STARTCHAR 02DC
ENCODING 732
SWIDTH 576 0
DWIDTH 8 0
BBX 5 2 2 9
BITMAP
C8
B0
ENDCHAR
STARTCHAR 02DD
ENCODING 733
SWIDTH 576 0
DWIDTH 8 0
BBX 5 3 2 9
BITMAP
68
50
B0
ENDCHAR
STARTCHAR 0300
ENCODING 768
SWIDTH 0 0
DWIDTH 0 0
BBX 4 3 -7 9
BITMAP
C0
60
30
ENDCHAR
STARTCHAR 0301
ENCODING 769
SWIDTH 0 0
DWIDTH 0 0
BBX 4 3 -5 9
BITMAP
30
60
C0
ENDCHAR
STARTCHAR 0302
ENCODING 770
SWIDTH 0 0
DWIDTH 0 0
BBX 5 3 -7 9
BITMAP
30
70
C8
ENDCHAR
STARTCHAR 0303
ENCODING 771
SWIDTH 0 0
DWIDTH 0 0
BBX 5 2 -7 9
BITMAP
68
98
ENDCHAR
STARTCHAR 0304
ENCODING 772
SWIDTH 0 0
DWIDTH 0 0
BBX 4 2 -6 10
BITMAP
F0
F0
ENDCHAR
STARTCHAR 0305
ENCODING 773
SWIDTH 0 0
DWIDTH 0 0
BBX 8 2 -8 9
BITMAP
FF
FF
ENDCHAR
STARTCHAR 0306
ENCODING 774
SWIDTH 0 0
DWIDTH 0 0
BBX 4 2 -6 9
BITMAP
90
E0
ENDCHAR
STARTCHAR 0307
ENCODING 775
SWIDTH 0 0
DWIDTH 0 0
BBX 2 2 -5 9
BITMAP
C0
C0
ENDCHAR
STARTCHAR 0308
ENCODING 776
SWIDTH 0 0
DWIDTH 0 0
BBX 4 2 -6 9
BITMAP
B0
B0
ENDCHAR
STARTCHAR 0309
ENCODING 777
SWIDTH 0 0
DWIDTH 0 0
BBX 3 3 -6 9
BITMAP
E0
20
60
ENDCHAR
STARTCHAR 030A
ENCODING 778
SWIDTH 0 0
DWIDTH 0 0
BBX 4 4 -6 9
BITMAP
60
90
90
60
ENDCHAR
STARTCHAR 030B
ENCODING 779
SWIDTH 0 0
DWIDTH 0 0
BBX 5 3 -6 9
BITMAP
58
D0
A0
ENDCHAR
STARTCHAR 030C
ENCODING 780
SWIDTH 0 0
DWIDTH 0 0
BBX 5 3 -7 9
BITMAP
88
58
30
ENDCHAR
STARTCHAR 030D
ENCODING 781
SWIDTH 0 0
DWIDTH 0 0
BBX 1 3 -5 9
BITMAP
80
80
80
ENDCHAR
STARTCHAR 030E
ENCODING 782
SWIDTH 0 0
DWIDTH 0 0
BBX 5 3 -7 9
BITMAP
C8
C8
C8
ENDCHAR
STARTCHAR 030F
ENCODING 783
SWIDTH 0 0
DWIDTH 0 0
BBX 5 3 -7 9
BITMAP
B0
D0
68
ENDCHAR
STARTCHAR 0310
ENCODING 784
SWIDTH 0 0
DWIDTH 0 0
BBX 4 4 -6 9
BITMAP
60
60
90
E0
ENDCHAR
STARTCHAR 0311
ENCODING 785
SWIDTH 0 0
DWIDTH 0 0
BBX 4 2 -6 9
BITMAP
E0
90
ENDCHAR
STARTCHAR 0312
ENCODING 786
SWIDTH 0 0
DWIDTH 0 0
BBX 2 2 -5 6
BITMAP
40
C0
ENDCHAR
STARTCHAR 0313
ENCODING 787
SWIDTH 0 0
DWIDTH 0 0
BBX 2 4 -5 8
BITMAP
C0
C0
40
80
ENDCHAR
STARTCHAR 0314
ENCODING 788
SWIDTH 0 0
DWIDTH 0 0
BBX 2 4 -5 8
BITMAP
C0
C0
80
C0
ENDCHAR
STARTCHAR 0315
ENCODING 789
SWIDTH 0 0
DWIDTH 0 0
BBX 2 3 -5 9
BITMAP
C0
C0
80
ENDCHAR
STARTCHAR 0316
ENCODING 790
SWIDTH 0 0
DWIDTH 0 0
BBX 4 3 -6 -4
BITMAP
C0
60
30
ENDCHAR
STARTCHAR 0317
ENCODING 791
SWIDTH 0 0
DWIDTH 0 0
BBX 4 3 -6 -4
BITMAP
30
60
C0
ENDCHAR
STARTCHAR 0318
ENCODING 792
SWIDTH 0 0
DWIDTH 0 0
BBX 3 4 -6 -6
BITMAP
60
E0
E0
60
ENDCHAR
STARTCHAR 0319
ENCODING 793
SWIDTH 0 0
DWIDTH 0 0
BBX 2 4 -5 -6
BITMAP
80
C0
C0
80
ENDCHAR
STARTCHAR 031A
ENCODING 794
SWIDTH 0 0
DWIDTH 0 0
BBX 4 4 -6 10
BITMAP
F0
F0
30
30
ENDCHAR
STARTCHAR 031B
ENCODING 795
SWIDTH 0 0
DWIDTH 0 0
BBX 3 3 -6 5
BITMAP
20
A0
60
ENDCHAR
STARTCHAR 031C
ENCODING 796
SWIDTH 0 0
DWIDTH 0 0
BBX 2 3 -5 -4
BITMAP
C0
80
C0
ENDCHAR
STARTCHAR 031D
ENCODING 797
SWIDTH 0 0
DWIDTH 0 0
BBX 4 2 -6 -4
BITMAP
40
F0
ENDCHAR
STARTCHAR 031E
ENCODING 798
SWIDTH 0 0
DWIDTH 0 0
BBX 4 3 -6 -5
BITMAP
F0
F0
40
ENDCHAR
STARTCHAR 031F
ENCODING 799
SWIDTH 0 0
DWIDTH 0 0
BBX 4 4 -6 -6
BITMAP
60
F0
F0
60
ENDCHAR
STARTCHAR 0320
ENCODING 800
SWIDTH 0 0
DWIDTH 0 0
BBX 4 2 -6 -3
BITMAP
F0
F0
ENDCHAR
STARTCHAR 0321
ENCODING 801
SWIDTH 0 0
DWIDTH 0 0
BBX 4 4 -5 -3
BITMAP
30
30
F0
E0
ENDCHAR
STARTCHAR 0322
ENCODING 802
SWIDTH 0 0
DWIDTH 0 0
BBX 3 4 -7 -3
BITMAP
C0
C0
E0
60
ENDCHAR
STARTCHAR 0323
ENCODING 803
SWIDTH 0 0
DWIDTH 0 0
BBX 2 2 -5 -3
BITMAP
C0
C0
ENDCHAR
STARTCHAR 0324
ENCODING 804
SWIDTH 0 0
DWIDTH 0 0
BBX 4 2 -6 -3
BITMAP
B0
B0
ENDCHAR
STARTCHAR 0325
ENCODING 805
SWIDTH 0 0
DWIDTH 0 0
BBX 3 3 -6 -4
BITMAP
60
A0
60
ENDCHAR
STARTCHAR 0326
ENCODING 806
SWIDTH 0 0
DWIDTH 0 0
BBX 3 2 -6 -3
BITMAP
60
C0
ENDCHAR
STARTCHAR 0327
ENCODING 807
SWIDTH 0 0
DWIDTH 0 0
BBX 3 3 -6 -3
BITMAP
60
20
E0
ENDCHAR
STARTCHAR 0328
ENCODING 808
SWIDTH 0 0
DWIDTH 0 0
BBX 3 3 -6 -3
BITMAP
40
80
60
ENDCHAR
STARTCHAR 0329
ENCODING 809
SWIDTH 0 0
DWIDTH 0 0
BBX 1 3 -5 -5
BITMAP
80
80
80
ENDCHAR
STARTCHAR 032A
ENCODING 810
SWIDTH 0 0
DWIDTH 0 0
BBX 4 3 -6 -4
BITMAP
F0
F0
90
ENDCHAR
STARTCHAR 032B
ENCODING 811
SWIDTH 0 0
DWIDTH 0 0
BBX 6 2 -7 -3
BITMAP
A4
F8
ENDCHAR
STARTCHAR 032C
ENCODING 812
SWIDTH 0 0
DWIDTH 0 0
BBX 5 3 -7 -3
BITMAP
88
58
30
ENDCHAR
STARTCHAR 032D
ENCODING 813
SWIDTH 0 0
DWIDTH 0 0
BBX 5 3 -7 -3
BITMAP
30
70
C8
ENDCHAR
STARTCHAR 032E
ENCODING 814
SWIDTH 0 0
DWIDTH 0 0
BBX 4 2 -6 -3
BITMAP
90
E0
ENDCHAR
STARTCHAR 032F
ENCODING 815
SWIDTH 0 0
DWIDTH 0 0
BBX 4 2 -6 -3
BITMAP
E0
90
ENDCHAR
STARTCHAR 0330
ENCODING 816
SWIDTH 0 0
DWIDTH 0 0
BBX 5 2 -7 -3
BITMAP
68
98
ENDCHAR
STARTCHAR 0331
ENCODING 817
SWIDTH 0 0
DWIDTH 0 0
BBX 4 2 -6 -3
BITMAP
F0
F0
ENDCHAR
STARTCHAR 0332
ENCODING 818
SWIDTH 0 0
DWIDTH 0 0
BBX 8 2 -8 -3
BITMAP
FF
FF
ENDCHAR
STARTCHAR 0333
ENCODING 819
SWIDTH 0 0
DWIDTH 0 0
BBX 8 4 -8 -3
BITMAP
FF
FF
FF
FF
ENDCHAR
STARTCHAR 0334
ENCODING 820
SWIDTH 0 0
DWIDTH 0 0
BBX 7 3 -8 3
BITMAP
62
FE
8E
ENDCHAR
STARTCHAR 0335
ENCODING 821
SWIDTH 0 0
DWIDTH 0 0
BBX 5 2 -7 3
BITMAP
F8
F8
ENDCHAR
STARTCHAR 0336
ENCODING 822
SWIDTH 0 0
DWIDTH 0 0
BBX 8 2 -8 3
BITMAP
FF
FF
ENDCHAR
STARTCHAR 0337
ENCODING 823
SWIDTH 0 0
DWIDTH 0 0
BBX 8 9 -8 -1
BITMAP
03
06
0C
08
10
30
60
C0
80
ENDCHAR
STARTCHAR 0338
ENCODING 824
SWIDTH 0 0
DWIDTH 0 0
BBX 8 11 -8 0
BITMAP
02
03
06
04
0C
18
10
20
60
C0
80
ENDCHAR
STARTCHAR 0339
ENCODING 825
SWIDTH 0 0
DWIDTH 0 0
BBX 2 3 -5 -4
BITMAP
80
40
80
ENDCHAR
STARTCHAR 033A
ENCODING 826
SWIDTH 0 0
DWIDTH 0 0
BBX 4 2 -6 -3
BITMAP
90
F0
ENDCHAR
STARTCHAR 033B
ENCODING 827
SWIDTH 0 0
DWIDTH 0 0
BBX 4 4 -6 -5
BITMAP
F0
F0
F0
F0
ENDCHAR
STARTCHAR 033C
ENCODING 828
SWIDTH 0 0
DWIDTH 0 0
BBX 6 2 -7 -3
BITMAP
78
AC
ENDCHAR
STARTCHAR 033D
ENCODING 829
SWIDTH 0 0
DWIDTH 0 0
BBX 4 4 -6 8
BITMAP
A0
F0
60
B0
ENDCHAR
STARTCHAR 033E
ENCODING 830
SWIDTH 0 0
DWIDTH 0 0
BBX 2 4 -5 8
BITMAP
C0
80
40
C0
ENDCHAR
STARTCHAR 033F
ENCODING 831
SWIDTH 0 0
DWIDTH 0 0
BBX 8 2 -8 8
BITMAP
FF
FF
ENDCHAR
STARTCHAR 0358
ENCODING 856
SWIDTH 0 0
DWIDTH 0 0
BBX 2 2 -2 9
BITMAP
C0
C0
ENDCHAR
STARTCHAR 0361
ENCODING 865
SWIDTH 0 0
DWIDTH 0 0
BBX 12 2 -10 11
BITMAP
3FC0
C030
ENDCHAR
STARTCHAR 0384
ENCODING 900
SWIDTH 576 0
DWIDTH 8 0
BBX 4 3 3 9
BITMAP
30
60
C0
ENDCHAR
STARTCHAR 0385
ENCODING 901
SWIDTH 576 0
DWIDTH 8 0
BBX 6 4 1 9
BITMAP
0C
18
FC
CC
ENDCHAR
STARTCHAR 0386
ENCODING 902
SWIDTH 576 0
DWIDTH 8 0
BBX 9 12 -1 0
BITMAP
3000
2000
6E00
CE00
1E00
1A00
1B00
3300
3F00
3F00
3180
6180
ENDCHAR
STARTCHAR 0388
ENCODING 904
SWIDTH 576 0
DWIDTH 8 0
BBX 9 12 -2 0
BITMAP
2000
6000
DF80
9F80
1800
1800
1F80
1F80
1800
1800
1F80
1F80
ENDCHAR
STARTCHAR 0389
ENCODING 905
SWIDTH 576 0
DWIDTH 8 0
BBX 10 11 -3 0
BITMAP
3000
6CC0
8CC0
0CC0
0FC0
0FC0
0CC0
0CC0
0CC0
0CC0
0CC0
ENDCHAR
STARTCHAR 038A
ENCODING 906
SWIDTH 576 0
DWIDTH 8 0
BBX 9 11 -2 0
BITMAP
7000
5F80
9F80
0600
0600
0600
0600
0600
0600
1F80
1F80
ENDCHAR
STARTCHAR 038C
ENCODING 908
SWIDTH 576 0
DWIDTH 8 0
BBX 9 12 -1 0
BITMAP
3000
7E00
FF00
3300
3180
3180
3180
3180
3180
3300
3F00
1E00
ENDCHAR
STARTCHAR 038E
ENCODING 910
SWIDTH 576 0
DWIDTH 8 0
BBX 12 11 -4 0
BITMAP
3000
6E30
CF70
03D0
01C0
0180
0180
0180
0180
0180
0180
ENDCHAR
STARTCHAR 038F
ENCODING 911
SWIDTH 576 0
DWIDTH 8 0
BBX 9 12 -1 0
BITMAP
3000
6000
DE00
3F00
3300
3180
3180
3180
3300
3300
1A00
3B80
ENDCHAR
STARTCHAR 0390
ENCODING 912
SWIDTH 576 0
DWIDTH 8 0
BBX 6 13 1 0
BITMAP
0C
10
EC
CC
00
70
70
30
30
30
30
3C
1C
ENDCHAR
STARTCHAR 0391
ENCODING 913
SWIDTH 576 0
DWIDTH 8 0
BBX 8 10 0 0
BITMAP
1C
1C
3C
34
36
66
7E
7E
63
C3
ENDCHAR
STARTCHAR 0392
ENCODING 914
SWIDTH 576 0
DWIDTH 8 0
BBX 7 10 1 0
BITMAP
FC
FC
C6
FC
FC
C6
C6
C6
FE
FC
ENDCHAR
STARTCHAR 0393
ENCODING 915
SWIDTH 576 0
DWIDTH 8 0
BBX 7 10 1 0
BITMAP
FE
FE
C0
C0
C0
C0
C0
C0
C0
C0
ENDCHAR
STARTCHAR 0394
ENCODING 916
SWIDTH 576 0
DWIDTH 8 0
BBX 8 10 0 0
BITMAP
1C
1C
3C
34
36
66
66
62
7F
FF
ENDCHAR
STARTCHAR 0395
ENCODING 917
SWIDTH 576 0
DWIDTH 8 0
BBX 6 10 1 0
BITMAP
FC
FC
C0
C0
FC
FC
C0
C0
FC
FC
ENDCHAR
STARTCHAR 0396
ENCODING 918
SWIDTH 576 0
DWIDTH 8 0
BBX 7 10 1 0
BITMAP
FE
FE
0C
18
38
30
60
E0
FE
FE
ENDCHAR
STARTCHAR 0397
ENCODING 919
SWIDTH 576 0
DWIDTH 8 0
BBX 6 10 1 0
BITMAP
CC
CC
CC
FC
FC
CC
CC
CC
CC
CC
ENDCHAR
STARTCHAR 0398
ENCODING 920
SWIDTH 576 0
DWIDTH 8 0
BBX 8 10 0 0
BITMAP
3C
7E
E3
C3
DF
DF
C3
C3
7E
3C
ENDCHAR
STARTCHAR 0399
ENCODING 921
SWIDTH 576 0
DWIDTH 8 0
BBX 6 10 1 0
BITMAP
FC
FC
30
30
30
30
30
30
FC
FC
ENDCHAR
STARTCHAR 039A
ENCODING 922
SWIDTH 576 0
DWIDTH 8 0
BBX 7 10 1 0
BITMAP
C6
CC
D8
F0
F0
F8
D8
CC
CC
C6
ENDCHAR
STARTCHAR 039B
ENCODING 923
SWIDTH 576 0
DWIDTH 8 0
BBX 8 10 0 0
BITMAP
1C
1C
3C
34
36
66
66
62
63
C3
ENDCHAR
STARTCHAR 039C
ENCODING 924
SWIDTH 576 0
DWIDTH 8 0
BBX 7 10 1 0
BITMAP
CE
CE
EE
BE
B6
B6
86
86
86
86
ENDCHAR
STARTCHAR 039D
ENCODING 925
SWIDTH 576 0
DWIDTH 8 0
BBX 7 10 1 0
BITMAP
C6
E6
E6
E6
F6
D6
D6
DE
CE
CE
ENDCHAR
STARTCHAR 039E
ENCODING 926
SWIDTH 576 0
DWIDTH 8 0
BBX 6 10 1 0
BITMAP
FC
FC
00
38
38
00
00
00
FC
FC
ENDCHAR
STARTCHAR 039F
ENCODING 927
SWIDTH 576 0
DWIDTH 8 0
BBX 7 11 1 0
BITMAP
78
FC
CC
C6
C6
C6
C6
C6
CC
FC
78
ENDCHAR
STARTCHAR 03A0
ENCODING 928
SWIDTH 576 0
DWIDTH 8 0
BBX 6 10 1 0
BITMAP
FC
FC
CC
CC
CC
CC
CC
CC
CC
CC
ENDCHAR
STARTCHAR 03A1
ENCODING 929
SWIDTH 576 0
DWIDTH 8 0
BBX 7 10 1 0
BITMAP
FC
FC
C6
C6
FC
FC
C0
C0
C0
C0
ENDCHAR
STARTCHAR 03A3
ENCODING 931
SWIDTH 576 0
DWIDTH 8 0
BBX 7 10 1 0
BITMAP
FE
FE
E0
60
30
38
60
E0
FE
FE
ENDCHAR
STARTCHAR 03A4
ENCODING 932
SWIDTH 576 0
DWIDTH 8 0
BBX 7 10 1 0
BITMAP
FE
FE
30
30
30
30
30
30
30
30
ENDCHAR
STARTCHAR 03A5
ENCODING 933
SWIDTH 576 0
DWIDTH 8 0
BBX 8 10 0 0
BITMAP
E7
F7
3F
1C
18
18
18
18
18
18
ENDCHAR
STARTCHAR 03A6
ENCODING 934
SWIDTH 576 0
DWIDTH 8 0
BBX 7 10 1 0
BITMAP
78
78
78
FC
B6
B6
FC
78
78
78
ENDCHAR
STARTCHAR 03A7
ENCODING 935
SWIDTH 576 0
DWIDTH 8 0
BBX 8 10 0 0
BITMAP
E3
66
36
3C
18
1C
3C
36
66
E3
ENDCHAR
STARTCHAR 03A8
ENCODING 936
SWIDTH 576 0
DWIDTH 8 0
BBX 7 10 1 0
BITMAP
F6
F6
F6
F6
F6
FC
7C
30
78
78
ENDCHAR
STARTCHAR 03A9
ENCODING 937
SWIDTH 576 0
DWIDTH 8 0
BBX 7 10 1 0
BITMAP
78
FC
CC
C6
C6
C6
CC
CC
EE
EE
ENDCHAR
STARTCHAR 03AA
ENCODING 938
SWIDTH 576 0
DWIDTH 8 0
BBX 6 13 1 0
BITMAP
68
68
00
FC
FC
30
30
30
30
30
30
FC
FC
ENDCHAR
STARTCHAR 03AB
ENCODING 939
SWIDTH 576 0
DWIDTH 8 0
BBX 8 13 0 0
BITMAP
34
34
00
E7
F7
3F
1C
18
18
18
18
18
18
ENDCHAR
STARTCHAR 03AC
ENCODING 940
SWIDTH 576 0
DWIDTH 8 0
BBX 8 12 0 0
BITMAP
06
0C
18
00
3B
7E
6E
C6
C6
4E
6F
3B
ENDCHAR
STARTCHAR 03AD
ENCODING 941
SWIDTH 576 0
DWIDTH 8 0
BBX 6 12 1 0
BITMAP
0C
18
30
00
7C
FC
C0
78
F8
C0
FC
7C
ENDCHAR
STARTCHAR 03AE
ENCODING 942
SWIDTH 576 0
DWIDTH 8 0
BBX 6 15 1 -3
BITMAP
0C
18
30
00
DC
FC
CC
CC
CC
CC
CC
CC
0C
0C
0C
ENDCHAR
STARTCHAR 03AF
ENCODING 943
SWIDTH 576 0
DWIDTH 8 0
BBX 5 12 2 0
BITMAP
18
30
60
00
E0
E0
60
60
60
60
78
38
ENDCHAR
STARTCHAR 03B0
ENCODING 944
SWIDTH 576 0
DWIDTH 8 0
BBX 7 13 1 0
BITMAP
0C
10
EC
CC
00
EC
E6
66
66
66
66
7C
78
ENDCHAR
STARTCHAR 03B1
ENCODING 945
SWIDTH 576 0
DWIDTH 8 0
BBX 8 8 0 0
BITMAP
3B
7E
6E
C6
C6
4E
6F
3B
ENDCHAR
STARTCHAR 03B2
ENCODING 946
SWIDTH 576 0
DWIDTH 8 0
BBX 7 14 1 -3
BITMAP
78
FC
CC
CC
CC
D8
DC
C6
C6
FC
FC
C0
C0
C0
ENDCHAR
STARTCHAR 03B3
ENCODING 947
SWIDTH 576 0
DWIDTH 8 0
BBX 7 11 1 -3
BITMAP
86
CC
6C
6C
78
38
38
30
30
30
30
ENDCHAR
STARTCHAR 03B4
ENCODING 948
SWIDTH 576 0
DWIDTH 8 0
BBX 7 11 1 0
BITMAP
7C
FC
C0
78
FC
CE
C6
C6
CE
FC
78
ENDCHAR
STARTCHAR 03B5
ENCODING 949
SWIDTH 576 0
DWIDTH 8 0
BBX 6 8 1 0
BITMAP
7C
FC
C0
78
F8
C0
FC
7C
ENDCHAR
STARTCHAR 03B6
ENCODING 950
SWIDTH 576 0
DWIDTH 8 0
BBX 6 14 1 -3
BITMAP
FC
FC
38
70
60
C0
C0
C0
C0
78
3C
04
0C
0C
ENDCHAR
STARTCHAR 03B7
ENCODING 951
SWIDTH 576 0
DWIDTH 8 0
BBX 6 11 1 -3
BITMAP
DC
FC
CC
CC
CC
CC
CC
CC
0C
0C
0C
ENDCHAR
STARTCHAR 03B8
ENCODING 952
SWIDTH 576 0
DWIDTH 8 0
BBX 7 11 1 0
BITMAP
38
7C
CC
C6
FE
FE
C6
C6
CC
7C
38
ENDCHAR
STARTCHAR 03B9
ENCODING 953
SWIDTH 576 0
DWIDTH 8 0
BBX 5 8 2 0
BITMAP
E0
E0
60
60
60
60
78
38
ENDCHAR
STARTCHAR 03BA
ENCODING 954
SWIDTH 576 0
DWIDTH 8 0
BBX 7 8 1 0
BITMAP
CE
DC
F8
F0
F8
CC
CC
C6
ENDCHAR
STARTCHAR 03BB
ENCODING 955
SWIDTH 576 0
DWIDTH 8 0
BBX 7 11 1 0
BITMAP
E0
F0
30
30
38
38
78
6C
EC
CC
C6
ENDCHAR
STARTCHAR 03BC
ENCODING 956
SWIDTH 576 0
DWIDTH 8 0
BBX 7 11 1 -3
BITMAP
CC
CC
CC
CC
CC
CC
FE
F6
C0
C0
C0
ENDCHAR
STARTCHAR 03BD
ENCODING 957
SWIDTH 576 0
DWIDTH 8 0
BBX 8 8 0 0
BITMAP
E6
66
63
63
76
3E
3C
38
ENDCHAR
STARTCHAR 03BE
ENCODING 958
SWIDTH 576 0
DWIDTH 8 0
BBX 6 14 1 -3
BITMAP
FC
FC
60
C0
60
38
78
C0
C0
F0
7C
04
0C
0C
ENDCHAR
STARTCHAR 03BF
ENCODING 959
SWIDTH 576 0
DWIDTH 8 0
BBX 7 8 1 0
BITMAP
78
FC
CE
C6
C6
CE
FC
78
ENDCHAR
STARTCHAR 03C0
ENCODING 960
SWIDTH 576 0
DWIDTH 8 0
BBX 8 8 0 0
BITMAP
FF
FF
66
66
66
66
66
67
ENDCHAR
STARTCHAR 03C1
ENCODING 961
SWIDTH 576 0
DWIDTH 8 0
BBX 7 11 1 -3
BITMAP
78
7C
C6
C6
C6
C6
FC
DC
C0
C0
C0
ENDCHAR
STARTCHAR 03C2
ENCODING 962
SWIDTH 576 0
DWIDTH 8 0
BBX 6 11 1 -3
BITMAP
3C
7C
E4
C0
C0
C0
70
3C
04
0C
0C
ENDCHAR
STARTCHAR 03C3
ENCODING 963
SWIDTH 576 0
DWIDTH 8 0
BBX 7 8 1 0
BITMAP
7E
FE
CC
C6
C6
CC
FC
78
ENDCHAR
STARTCHAR 03C4
ENCODING 964
SWIDTH 576 0
DWIDTH 8 0
BBX 6 8 1 0
BITMAP
FC
FC
30
30
30
30
3C
1C
ENDCHAR
STARTCHAR 03C5
ENCODING 965
SWIDTH 576 0
DWIDTH 8 0
BBX 7 8 1 0
BITMAP
EC
E6
66
66
66
66
7C
78
ENDCHAR
STARTCHAR 03C6
ENCODING 966
SWIDTH 576 0
DWIDTH 8 0
BBX 8 11 0 -3
BITMAP
2E
7F
5B
DB
DB
7B
7E
3E
18
18
18
ENDCHAR
STARTCHAR 03C7
ENCODING 967
SWIDTH 576 0
DWIDTH 8 0
BBX 8 11 0 -3
BITMAP
E3
E6
36
3C
1C
18
1C
3C
3C
67
63
ENDCHAR
STARTCHAR 03C8
ENCODING 968
SWIDTH 576 0
DWIDTH 8 0
BBX 8 11 0 -3
BITMAP
DB
DB
DB
DB
DB
7B
7E
3E
18
18
18
ENDCHAR
STARTCHAR 03C9
ENCODING 969
SWIDTH 576 0
DWIDTH 8 0
BBX 8 8 0 0
BITMAP
66
63
43
DB
DB
5B
7F
76
ENDCHAR
STARTCHAR 03CA
ENCODING 970
SWIDTH 576 0
DWIDTH 8 0
BBX 5 11 2 0
BITMAP
D0
D0
00
E0
E0
60
60
60
60
78
38
ENDCHAR
STARTCHAR 03CB
ENCODING 971
SWIDTH 576 0
DWIDTH 8 0
BBX 7 11 1 0
BITMAP
68
68
00
EC
E6
66
66
66
66
7C
78
ENDCHAR
STARTCHAR 03CC
ENCODING 972
SWIDTH 576 0
DWIDTH 8 0
BBX 7 12 1 0
BITMAP
0C
18
30
00
78
FC
CE
C6
C6
CE
FC
78
ENDCHAR
STARTCHAR 03CD
ENCODING 973
SWIDTH 576 0
DWIDTH 8 0
BBX 7 12 1 0
BITMAP
0C
18
30
00
EC
E6
66
66
66
66
7C
78
ENDCHAR
STARTCHAR 03CE
ENCODING 974
SWIDTH 576 0
DWIDTH 8 0
BBX 8 12 0 0
BITMAP
06
0C
18
00
66
63
43
DB
DB
5B
7F
76
ENDCHAR
STARTCHAR 03F4
ENCODING 1012
SWIDTH 576 0
DWIDTH 8 0
BBX 7 11 1 0
BITMAP
78
FC
CC
C6
FE
FE
C6
C6
CC
FC
78
ENDCHAR
STARTCHAR 0400
ENCODING 1024
SWIDTH 576 0
DWIDTH 8 0
BBX 6 13 1 0
BITMAP
60
10
00
FC
FC
C0
C0
FC
FC
C0
C0
FC
FC
ENDCHAR
STARTCHAR 0401
ENCODING 1025
SWIDTH 576 0
DWIDTH 8 0
BBX 6 13 1 0
BITMAP
68
68
00
FC
FC
C0
C0
FC
FC
C0
C0
FC
FC
ENDCHAR
STARTCHAR 0402
ENCODING 1026
SWIDTH 576 0
DWIDTH 8 0
BBX 8 14 0 -3
BITMAP
FC
FC
60
60
6E
7F
63
63
63
63
63
03
0F
0E
ENDCHAR
STARTCHAR 0403
ENCODING 1027
SWIDTH 576 0
DWIDTH 8 0
BBX 7 13 1 0
BITMAP
1C
30
00
FE
FE
C0
C0
C0
C0
C0
C0
C0
C0
ENDCHAR
STARTCHAR 0404
ENCODING 1028
SWIDTH 576 0
DWIDTH 8 0
BBX 6 10 1 0
BITMAP
3C
7C
C4
C0
FC
FC
C0
E4
7C
3C
ENDCHAR
STARTCHAR 0405
ENCODING 1029
SWIDTH 576 0
DWIDTH 8 0
BBX 7 10 1 0
BITMAP
7C
FC
C4
C0
78
3C
0C
8E
FC
F8
ENDCHAR
STARTCHAR 0406
ENCODING 1030
SWIDTH 576 0
DWIDTH 8 0
BBX 6 10 1 0
BITMAP
FC
FC
30
30
30
30
30
30
FC
FC
ENDCHAR
STARTCHAR 0407
ENCODING 1031
SWIDTH 576 0
DWIDTH 8 0
BBX 6 13 1 0
BITMAP
68
68
00
FC
FC
30
30
30
30
30
30
FC
FC
ENDCHAR
STARTCHAR 0408
ENCODING 1032
SWIDTH 576 0
DWIDTH 8 0
BBX 6 10 1 0
BITMAP
7C
7C
0C
0C
0C
0C
0C
8C
FC
F8
ENDCHAR
STARTCHAR 0409
ENCODING 1033
SWIDTH 576 0
DWIDTH 8 0
BBX 8 10 0 0
BITMAP
7C
7C
6C
6C
6F
6F
6D
6D
EF
CE
ENDCHAR
STARTCHAR 040A
ENCODING 1034
SWIDTH 576 0
DWIDTH 8 0
BBX 8 10 0 0
BITMAP
CC
CC
CC
FC
FF
CF
CD
CD
CF
CE
ENDCHAR
STARTCHAR 040B
ENCODING 1035
SWIDTH 576 0
DWIDTH 8 0
BBX 8 11 0 0
BITMAP
FC
FC
60
60
6E
7F
63
63
63
63
63
ENDCHAR
STARTCHAR 040C
ENCODING 1036
SWIDTH 576 0
DWIDTH 8 0
BBX 7 13 1 0
BITMAP
1C
30
00
CE
CC
D8
F0
F0
F8
D8
CC
CC
C6
ENDCHAR
STARTCHAR 040D
ENCODING 1037
SWIDTH 576 0
DWIDTH 8 0
BBX 7 13 1 0
BITMAP
60
10
00
CE
CE
DE
DE
D6
F6
E6
E6
E6
C6
ENDCHAR
STARTCHAR 040E
ENCODING 1038
SWIDTH 576 0
DWIDTH 8 0
BBX 8 13 0 0
BITMAP
26
1C
00
E3
63
36
36
1C
1C
0C
18
78
70
ENDCHAR
STARTCHAR 040F
ENCODING 1039
SWIDTH 576 0
DWIDTH 8 0
BBX 6 12 1 -2
BITMAP
CC
CC
CC
CC
CC
CC
CC
CC
FC
FC
30
30
ENDCHAR
STARTCHAR 0410
ENCODING 1040
SWIDTH 576 0
DWIDTH 8 0
BBX 8 10 0 0
BITMAP
1C
1C
3C
34
36
66
7E
7E
63
C3
ENDCHAR
STARTCHAR 0411
ENCODING 1041
SWIDTH 576 0
DWIDTH 8 0
BBX 7 10 1 0
BITMAP
FC
FC
C0
F0
FC
CE
C6
C6
FC
F8
ENDCHAR
STARTCHAR 0412
ENCODING 1042
SWIDTH 576 0
DWIDTH 8 0
BBX 7 10 1 0
BITMAP
FC
FC
C6
FC
FC
C6
C6
C6
FE
FC
ENDCHAR
STARTCHAR 0413
ENCODING 1043
SWIDTH 576 0
DWIDTH 8 0
BBX 7 10 1 0
BITMAP
FE
FE
C0
C0
C0
C0
C0
C0
C0
C0
ENDCHAR
STARTCHAR 0414
ENCODING 1044
SWIDTH 576 0
DWIDTH 8 0
BBX 8 12 0 -2
BITMAP
7E
7E
66
66
66
66
66
66
FF
FF
C3
C3
ENDCHAR
STARTCHAR 0415
ENCODING 1045
SWIDTH 576 0
DWIDTH 8 0
BBX 6 10 1 0
BITMAP
FC
FC
C0
C0
FC
FC
C0
C0
FC
FC
ENDCHAR
STARTCHAR 0416
ENCODING 1046
SWIDTH 576 0
DWIDTH 8 0
BBX 8 10 0 0
BITMAP
DB
5B
7E
3E
3E
7E
7A
7B
5B
DB
ENDCHAR
STARTCHAR 0417
ENCODING 1047
SWIDTH 576 0
DWIDTH 8 0
BBX 6 10 1 0
BITMAP
F8
FC
0C
3C
38
0C
04
0C
FC
F8
ENDCHAR
STARTCHAR 0418
ENCODING 1048
SWIDTH 576 0
DWIDTH 8 0
BBX 7 10 1 0
BITMAP
CE
CE
DE
DE
D6
F6
E6
E6
E6
C6
ENDCHAR
STARTCHAR 0419
ENCODING 1049
SWIDTH 576 0
DWIDTH 8 0
BBX 7 13 1 0
BITMAP
48
38
00
CE
CE
DE
DE
D6
F6
E6
E6
E6
C6
ENDCHAR
STARTCHAR 041A
ENCODING 1050
SWIDTH 576 0
DWIDTH 8 0
BBX 7 10 1 0
BITMAP
CE
CC
D8
F0
F0
F8
D8
CC
CC
C6
ENDCHAR
STARTCHAR 041B
ENCODING 1051
SWIDTH 576 0
DWIDTH 8 0
BBX 8 10 0 0
BITMAP
3F
3F
33
33
33
33
33
63
E3
E3
ENDCHAR
STARTCHAR 041C
ENCODING 1052
SWIDTH 576 0
DWIDTH 8 0
BBX 7 10 1 0
BITMAP
CE
CE
EE
BE
B6
B6
86
86
86
86
ENDCHAR
STARTCHAR 041D
ENCODING 1053
SWIDTH 576 0
DWIDTH 8 0
BBX 6 10 1 0
BITMAP
CC
CC
CC
FC
FC
CC
CC
CC
CC
CC
ENDCHAR
STARTCHAR 041E
ENCODING 1054
SWIDTH 576 0
DWIDTH 8 0
BBX 7 10 1 0
BITMAP
78
FC
CC
C6
C6
C6
C6
CC
FC
78
ENDCHAR
STARTCHAR 041F
ENCODING 1055
SWIDTH 576 0
DWIDTH 8 0
BBX 6 10 1 0
BITMAP
FC
FC
CC
CC
CC
CC
CC
CC
CC
CC
ENDCHAR
STARTCHAR 0420
ENCODING 1056
SWIDTH 576 0
DWIDTH 8 0
BBX 7 10 1 0
BITMAP
FC
FC
C6
C6
FC
FC
C0
C0
C0
C0
ENDCHAR
STARTCHAR 0421
ENCODING 1057
SWIDTH 576 0
DWIDTH 8 0
BBX 6 10 1 0
BITMAP
3C
7C
E4
C0
C0
C0
C0
E4
7C
3C
ENDCHAR
STARTCHAR 0422
ENCODING 1058
SWIDTH 576 0
DWIDTH 8 0
BBX 7 10 1 0
BITMAP
FE
FE
30
30
30
30
30
30
30
30
ENDCHAR
STARTCHAR 0423
ENCODING 1059
SWIDTH 576 0
DWIDTH 8 0
BBX 8 10 0 0
BITMAP
E3
63
36
36
1C
1C
0C
18
78
70
ENDCHAR
STARTCHAR 0424
ENCODING 1060
SWIDTH 576 0
DWIDTH 8 0
BBX 8 10 0 0
BITMAP
18
3E
7F
DB
DB
DB
DB
7E
3E
18
ENDCHAR
STARTCHAR 0425
ENCODING 1061
SWIDTH 576 0
DWIDTH 8 0
BBX 8 10 0 0
BITMAP
E3
66
36
3C
18
1C
3C
36
66
E3
ENDCHAR
STARTCHAR 0426
ENCODING 1062
SWIDTH 576 0
DWIDTH 8 0
BBX 7 12 1 -2
BITMAP
CC
CC
CC
CC
CC
CC
CC
CC
FE
FE
06
06
ENDCHAR
STARTCHAR 0427
ENCODING 1063
SWIDTH 576 0
DWIDTH 8 0
BBX 7 11 1 0
BITMAP
C6
C6
C6
C6
CE
FE
76
06
06
06
06
ENDCHAR
STARTCHAR 0428
ENCODING 1064
SWIDTH 576 0
DWIDTH 8 0
BBX 7 10 1 0
BITMAP
B6
B6
B6
B6
B6
B6
B6
B6
FE
FE
ENDCHAR
STARTCHAR 0429
ENCODING 1065
SWIDTH 576 0
DWIDTH 8 0
BBX 7 12 1 -2
BITMAP
B6
B6
B6
B6
B6
B6
B6
B6
FE
FE
02
02
ENDCHAR
STARTCHAR 042A
ENCODING 1066
SWIDTH 576 0
DWIDTH 8 0
BBX 8 10 0 0
BITMAP
F0
F0
30
3C
3E
33
33
33
3F
3E
ENDCHAR
STARTCHAR 042B
ENCODING 1067
SWIDTH 576 0
DWIDTH 8 0
BBX 8 10 0 0
BITMAP
C3
C3
C3
E3
FB
CF
CF
CF
FB
F3
ENDCHAR
STARTCHAR 042C
ENCODING 1068
SWIDTH 576 0
DWIDTH 8 0
BBX 7 10 1 0
BITMAP
C0
C0
C0
F0
FC
CE
C6
C6
FC
F8
ENDCHAR
STARTCHAR 042D
ENCODING 1069
SWIDTH 576 0
DWIDTH 8 0
BBX 7 10 1 0
BITMAP
F8
FC
8C
0C
7E
7E
0C
8C
FC
F8
ENDCHAR
STARTCHAR 042E
ENCODING 1070
SWIDTH 576 0
DWIDTH 8 0
BBX 8 10 0 0
BITMAP
CE
DF
DB
FB
FB
DB
DB
DB
CF
CE
ENDCHAR
STARTCHAR 042F
ENCODING 1071
SWIDTH 576 0
DWIDTH 8 0
BBX 8 10 0 0
BITMAP
3F
7F
63
63
7F
3F
33
33
63
E3
ENDCHAR
STARTCHAR 0430
ENCODING 1072
SWIDTH 576 0
DWIDTH 8 0
BBX 7 8 1 0
BITMAP
78
FC
3C
FE
C6
CC
FC
76
ENDCHAR
STARTCHAR 0431
ENCODING 1073
SWIDTH 576 0
DWIDTH 8 0
BBX 7 12 1 0
BITMAP
04
7C
E0
C0
F8
FC
C6
C6
C6
C6
FC
78
ENDCHAR
STARTCHAR 0432
ENCODING 1074
SWIDTH 576 0
DWIDTH 8 0
BBX 7 8 1 0
BITMAP
FC
FC
CC
FC
FC
C6
FE
FC
ENDCHAR
STARTCHAR 0433
ENCODING 1075
SWIDTH 576 0
DWIDTH 8 0
BBX 5 8 2 0
BITMAP
F8
F8
C0
C0
C0
C0
C0
C0
ENDCHAR
STARTCHAR 0434
ENCODING 1076
SWIDTH 576 0
DWIDTH 8 0
BBX 8 9 0 -1
BITMAP
7E
7E
66
66
66
66
FF
FF
C1
ENDCHAR
STARTCHAR 0435
ENCODING 1077
SWIDTH 576 0
DWIDTH 8 0
BBX 7 8 1 0
BITMAP
78
FC
C6
FE
FE
C0
FC
7C
ENDCHAR
STARTCHAR 0436
ENCODING 1078
SWIDTH 576 0
DWIDTH 8 0
BBX 8 8 0 0
BITMAP
DB
7A
3E
3E
7E
7A
5B
DB
ENDCHAR
STARTCHAR 0437
ENCODING 1079
SWIDTH 576 0
DWIDTH 8 0
BBX 6 8 1 0
BITMAP
F8
FC
0C
3C
3C
0C
FC
F8
ENDCHAR
STARTCHAR 0438
ENCODING 1080
SWIDTH 576 0
DWIDTH 8 0
BBX 6 8 1 0
BITMAP
CC
CC
DC
DC
FC
EC
EC
CC
ENDCHAR
STARTCHAR 0439
ENCODING 1081
SWIDTH 576 0
DWIDTH 8 0
BBX 6 11 1 0
BITMAP
48
38
00
CC
CC
DC
DC
FC
EC
EC
CC
ENDCHAR
STARTCHAR 043A
ENCODING 1082
SWIDTH 576 0
DWIDTH 8 0
BBX 7 8 1 0
BITMAP
CE
DC
F8
F0
F8
CC
CC
C6
ENDCHAR
STARTCHAR 043B
ENCODING 1083
SWIDTH 576 0
DWIDTH 8 0
BBX 7 8 0 0
BITMAP
3E
3E
36
36
36
36
E6
E6
ENDCHAR
STARTCHAR 043C
ENCODING 1084
SWIDTH 576 0
DWIDTH 8 0
BBX 7 8 1 0
BITMAP
CE
CE
EE
BE
BE
B6
B6
86
ENDCHAR
STARTCHAR 043D
ENCODING 1085
SWIDTH 576 0
DWIDTH 8 0
BBX 6 8 1 0
BITMAP
CC
CC
CC
FC
FC
CC
CC
CC
ENDCHAR
STARTCHAR 043E
ENCODING 1086
SWIDTH 576 0
DWIDTH 8 0
BBX 7 8 1 0
BITMAP
78
FC
CE
C6
C6
CE
FC
78
ENDCHAR
STARTCHAR 043F
ENCODING 1087
SWIDTH 576 0
DWIDTH 8 0
BBX 6 8 1 0
BITMAP
FC
FC
CC
CC
CC
CC
CC
CC
ENDCHAR
STARTCHAR 0440
ENCODING 1088
SWIDTH 576 0
DWIDTH 8 0
BBX 7 11 1 -3
BITMAP
DC
FC
C6
C6
C6
C6
FC
DC
C0
C0
C0
ENDCHAR
STARTCHAR 0441
ENCODING 1089
SWIDTH 576 0
DWIDTH 8 0
BBX 6 8 1 0
BITMAP
3C
7C
C0
C0
C0
C0
7C
3C
ENDCHAR
STARTCHAR 0442
ENCODING 1090
SWIDTH 576 0
DWIDTH 8 0
BBX 6 8 1 0
BITMAP
FC
FC
30
30
30
30
30
30
ENDCHAR
STARTCHAR 0443
ENCODING 1091
SWIDTH 576 0
DWIDTH 8 0
BBX 8 11 0 -3
BITMAP
E3
67
66
36
34
3C
1C
18
18
78
70
ENDCHAR
STARTCHAR 0444
ENCODING 1092
SWIDTH 576 0
DWIDTH 8 0
BBX 7 14 1 -3
BITMAP
30
30
30
78
FC
B6
B6
B6
B6
FC
78
30
30
30
ENDCHAR
STARTCHAR 0445
ENCODING 1093
SWIDTH 576 0
DWIDTH 8 0
BBX 8 8 0 0
BITMAP
67
36
3C
18
1C
3C
76
E7
ENDCHAR
STARTCHAR 0446
ENCODING 1094
SWIDTH 576 0
DWIDTH 8 0
BBX 7 9 1 -1
BITMAP
CC
CC
CC
CC
CC
CC
FE
FE
02
ENDCHAR
STARTCHAR 0447
ENCODING 1095
SWIDTH 576 0
DWIDTH 8 0
BBX 6 8 1 0
BITMAP
CC
CC
CC
FC
7C
0C
0C
0C
ENDCHAR
STARTCHAR 0448
ENCODING 1096
SWIDTH 576 0
DWIDTH 8 0
BBX 7 8 1 0
BITMAP
B6
B6
B6
B6
B6
B6
FE
FE
ENDCHAR
STARTCHAR 0449
ENCODING 1097
SWIDTH 576 0
DWIDTH 8 0
BBX 8 9 0 -1
BITMAP
DB
DB
DB
DB
DB
DB
FF
FF
01
ENDCHAR
STARTCHAR 044A
ENCODING 1098
SWIDTH 576 0
DWIDTH 8 0
BBX 8 8 0 0
BITMAP
F0
F0
30
3E
3F
33
3F
3E
ENDCHAR
STARTCHAR 044B
ENCODING 1099
SWIDTH 576 0
DWIDTH 8 0
BBX 8 8 0 0
BITMAP
C3
C3
C3
F3
FB
DB
FB
F3
ENDCHAR
STARTCHAR 044C
ENCODING 1100
SWIDTH 576 0
DWIDTH 8 0
BBX 7 8 1 0
BITMAP
C0
C0
C0
FC
FE
C6
FE
FC
ENDCHAR
STARTCHAR 044D
ENCODING 1101
SWIDTH 576 0
DWIDTH 8 0
BBX 6 8 1 0
BITMAP
F8
FC
0C
7C
7C
0C
FC
F8
ENDCHAR
STARTCHAR 044E
ENCODING 1102
SWIDTH 576 0
DWIDTH 8 0
BBX 7 8 1 0
BITMAP
9C
BE
B6
F2
F2
B6
BE
9C
ENDCHAR
STARTCHAR 044F
ENCODING 1103
SWIDTH 576 0
DWIDTH 8 0
BBX 7 8 0 0
BITMAP
3E
7E
66
7E
3E
36
76
E6
ENDCHAR
STARTCHAR 0450
ENCODING 1104
SWIDTH 576 0
DWIDTH 8 0
BBX 7 12 1 0
BITMAP
60
20
10
00
78
FC
C6
FE
FE
C0
FC
7C
ENDCHAR
STARTCHAR 0451
ENCODING 1105
SWIDTH 576 0
DWIDTH 8 0
BBX 7 11 1 0
BITMAP
6C
6C
00
78
FC
C6
FE
FE
C0
FC
7C
ENDCHAR
STARTCHAR 0452
ENCODING 1106
SWIDTH 576 0
DWIDTH 8 0
BBX 8 14 0 -3
BITMAP
60
60
60
FC
FC
64
7E
73
63
63
63
06
0E
0C
ENDCHAR
STARTCHAR 0453
ENCODING 1107
SWIDTH 576 0
DWIDTH 8 0
BBX 5 12 2 0
BITMAP
18
10
60
00
F8
F8
C0
C0
C0
C0
C0
C0
ENDCHAR
STARTCHAR 0454
ENCODING 1108
SWIDTH 576 0
DWIDTH 8 0
BBX 6 8 1 0
BITMAP
3C
7C
C0
F8
F8
C0
7C
3C
ENDCHAR
STARTCHAR 0455
ENCODING 1109
SWIDTH 576 0
DWIDTH 8 0
BBX 6 8 1 0
BITMAP
7C
FC
C0
78
3C
0C
FC
F8
ENDCHAR
STARTCHAR 0456
ENCODING 1110
SWIDTH 576 0
DWIDTH 8 0
BBX 7 11 1 0
BITMAP
30
30
00
F0
F0
30
30
30
30
3E
1E
ENDCHAR
STARTCHAR 0457
ENCODING 1111
SWIDTH 576 0
DWIDTH 8 0
BBX 7 11 1 0
BITMAP
58
58
00
F0
F0
30
30
30
30
3E
1E
ENDCHAR
STARTCHAR 0458
ENCODING 1112
SWIDTH 576 0
DWIDTH 8 0
BBX 5 14 1 -3
BITMAP
18
18
00
78
78
18
18
18
18
18
18
18
F8
F0
ENDCHAR
STARTCHAR 0459
ENCODING 1113
SWIDTH 576 0
DWIDTH 8 0
BBX 8 8 0 0
BITMAP
7C
7C
6C
6E
6F
6D
EF
CE
ENDCHAR
STARTCHAR 045A
ENCODING 1114
SWIDTH 576 0
DWIDTH 8 0
BBX 8 8 0 0
BITMAP
CC
CC
CC
FE
FF
CD
CF
CE
ENDCHAR
STARTCHAR 045B
ENCODING 1115
SWIDTH 576 0
DWIDTH 8 0
BBX 8 11 0 0
BITMAP
60
60
60
FC
FC
64
7E
76
63
63
63
ENDCHAR
STARTCHAR 045C
ENCODING 1116
SWIDTH 576 0
DWIDTH 8 0
BBX 7 12 1 0
BITMAP
0C
18
30
00
CE
DC
F8
F0
F8
CC
CC
C6
ENDCHAR
STARTCHAR 045D
ENCODING 1117
SWIDTH 576 0
DWIDTH 8 0
BBX 6 12 1 0
BITMAP
60
20
10
00
CC
CC
DC
DC
FC
EC
EC
CC
ENDCHAR
STARTCHAR 045E
ENCODING 1118
SWIDTH 576 0
DWIDTH 8 0
BBX 8 14 0 -3
BITMAP
26
1C
00
E3
67
66
36
34
3C
1C
18
18
78
70
ENDCHAR
STARTCHAR 045F
ENCODING 1119
SWIDTH 576 0
DWIDTH 8 0
BBX 6 10 1 -2
BITMAP
CC
CC
CC
CC
CC
CC
FC
FC
30
30
ENDCHAR
STARTCHAR 0462
ENCODING 1122
SWIDTH 576 0
DWIDTH 8 0
BBX 8 10 0 0
BITMAP
FC
FC
30
3C
3E
33
33
33
3F
3E
ENDCHAR
STARTCHAR 0463
ENCODING 1123
SWIDTH 576 0
DWIDTH 8 0
BBX 8 11 0 0
BITMAP
30
30
30
FE
FE
30
3E
3F
33
3F
3E
ENDCHAR
STARTCHAR 0472
ENCODING 1138
SWIDTH 576 0
DWIDTH 8 0
BBX 7 10 1 0
BITMAP
78
FC
CC
FE
FE
C6
C6
CC
FC
78
ENDCHAR
STARTCHAR 0473
ENCODING 1139
SWIDTH 576 0
DWIDTH 8 0
BBX 7 8 1 0
BITMAP
78
FC
CE
FE
FE
CE
FC
78
ENDCHAR
STARTCHAR 0490
ENCODING 1168
SWIDTH 576 0
DWIDTH 8 0
BBX 6 13 2 0
BITMAP
0C
0C
0C
FC
FC
C0
C0
C0
C0
C0
C0
C0
C0
ENDCHAR
STARTCHAR 0491
ENCODING 1169
SWIDTH 576 0
DWIDTH 8 0
BBX 5 10 2 0
BITMAP
08
08
F8
F8
C0
C0
C0
C0
C0
C0
ENDCHAR
STARTCHAR 0492
ENCODING 1170
SWIDTH 576 0
DWIDTH 8 0
BBX 7 10 1 0
BITMAP
FE
FE
E0
E0
F8
F8
E0
E0
E0
E0
ENDCHAR
STARTCHAR 0493
ENCODING 1171
SWIDTH 576 0
DWIDTH 8 0
BBX 6 8 1 0
BITMAP
7C
7C
60
F8
F8
60
60
60
ENDCHAR
STARTCHAR 0494
ENCODING 1172
SWIDTH 576 0
DWIDTH 8 0
BBX 7 13 1 -3
BITMAP
FC
FC
C0
F8
FC
C6
C6
C6
C6
C6
06
1C
1C
ENDCHAR
STARTCHAR 0495
ENCODING 1173
SWIDTH 576 0
DWIDTH 8 0
BBX 5 11 2 -3
BITMAP
F8
F8
80
F0
F8
98
98
98
18
78
70
ENDCHAR
STARTCHAR 0496
ENCODING 1174
SWIDTH 576 0
DWIDTH 8 0
BBX 8 12 0 -2
BITMAP
DB
7B
7E
3E
3E
7E
7A
5B
5B
DB
01
01
ENDCHAR
STARTCHAR 0497
ENCODING 1175
SWIDTH 576 0
DWIDTH 8 0
BBX 8 10 0 -2
BITMAP
DB
7A
7E
3E
7E
7A
5B
DB
01
01
ENDCHAR
STARTCHAR 0498
ENCODING 1176
SWIDTH 576 0
DWIDTH 8 0
BBX 6 13 1 -3
BITMAP
F8
FC
0C
0C
38
3C
0C
0C
FC
F8
10
10
70
ENDCHAR
STARTCHAR 0499
ENCODING 1177
SWIDTH 576 0
DWIDTH 8 0
BBX 6 11 1 -3
BITMAP
F8
FC
0C
3C
38
0C
FC
F8
10
10
70
ENDCHAR
STARTCHAR 049A
ENCODING 1178
SWIDTH 576 0
DWIDTH 8 0
BBX 7 12 1 -2
BITMAP
C6
CC
D8
F0
F0
F8
DC
CC
CE
C6
06
06
ENDCHAR
STARTCHAR 049B
ENCODING 1179
SWIDTH 576 0
DWIDTH 8 0
BBX 7 10 1 -2
BITMAP
CE
DC
D8
F0
F8
D8
CC
C6
06
06
ENDCHAR
STARTCHAR 04A2
ENCODING 1186
SWIDTH 576 0
DWIDTH 8 0
BBX 8 12 1 -2
BITMAP
CC
CC
CC
FC
FC
CC
CC
CC
CF
CF
03
03
ENDCHAR
STARTCHAR 04A3
ENCODING 1187
SWIDTH 576 0
DWIDTH 8 0
BBX 8 10 0 -2
BITMAP
CC
CC
CC
FC
FC
CC
CC
CF
03
03
ENDCHAR
STARTCHAR 04A4
ENCODING 1188
SWIDTH 576 0
DWIDTH 8 0
BBX 7 10 1 0
BITMAP
9E
9E
98
F8
F8
98
98
98
98
98
ENDCHAR
STARTCHAR 04A5
ENCODING 1189
SWIDTH 576 0
DWIDTH 8 0
BBX 7 8 1 0
BITMAP
8E
8E
88
F8
F8
88
88
88
ENDCHAR
STARTCHAR 04AA
ENCODING 1194
SWIDTH 576 0
DWIDTH 8 0
BBX 6 13 1 -3
BITMAP
3C
7C
E4
C0
C0
C0
C0
C0
64
7C
08
08
38
ENDCHAR
STARTCHAR 04AB
ENCODING 1195
SWIDTH 576 0
DWIDTH 8 0
BBX 6 11 1 -3
BITMAP
3C
7C
C0
C0
C0
C0
E4
7C
10
08
38
ENDCHAR
STARTCHAR 04AC
ENCODING 1196
SWIDTH 576 0
DWIDTH 8 0
BBX 7 12 1 -2
BITMAP
FE
FE
30
30
30
30
30
30
3C
3C
0C
0C
ENDCHAR
STARTCHAR 04AD
ENCODING 1197
SWIDTH 576 0
DWIDTH 8 0
BBX 6 10 1 -2
BITMAP
FC
FC
30
30
30
30
30
3C
0C
0C
ENDCHAR
STARTCHAR 04AE
ENCODING 1198
SWIDTH 576 0
DWIDTH 8 0
BBX 8 10 0 0
BITMAP
C3
67
66
3E
3C
18
18
18
18
18
ENDCHAR
STARTCHAR 04AF
ENCODING 1199
SWIDTH 576 0
DWIDTH 8 0
BBX 8 11 0 -3
BITMAP
E3
66
66
36
3C
3C
1C
18
18
18
18
ENDCHAR
STARTCHAR 04B0
ENCODING 1200
SWIDTH 576 0
DWIDTH 8 0
BBX 8 10 0 0
BITMAP
C3
67
66
3C
3C
18
3E
3E
18
18
ENDCHAR
STARTCHAR 04B1
ENCODING 1201
SWIDTH 576 0
DWIDTH 8 0
BBX 8 11 0 -3
BITMAP
E3
66
66
36
3C
3C
1C
18
3E
3E
18
ENDCHAR
STARTCHAR 04B2
ENCODING 1202
SWIDTH 576 0
DWIDTH 8 0
BBX 8 12 0 -2
BITMAP
E3
66
36
3C
18
1C
3C
36
67
E3
03
03
ENDCHAR
STARTCHAR 04B3
ENCODING 1203
SWIDTH 576 0
DWIDTH 8 0
BBX 8 10 0 -2
BITMAP
67
36
3C
1C
18
3C
76
E7
03
03
ENDCHAR
STARTCHAR 04BA
ENCODING 1210
SWIDTH 576 0
DWIDTH 8 0
BBX 7 11 1 0
BITMAP
C0
C0
C0
C0
FC
EE
C6
C6
C6
C6
C6
ENDCHAR
STARTCHAR 04BB
ENCODING 1211
SWIDTH 576 0
DWIDTH 8 0
BBX 6 11 1 0
BITMAP
C0
C0
C0
DC
FC
CC
CC
CC
CC
CC
CC
ENDCHAR
STARTCHAR 04C0
ENCODING 1216
SWIDTH 576 0
DWIDTH 8 0
BBX 6 10 1 0
BITMAP
FC
FC
30
30
30
30
30
30
FC
FC
ENDCHAR
STARTCHAR 04C1
ENCODING 1217
SWIDTH 576 0
DWIDTH 8 0
BBX 8 13 0 0
BITMAP
24
1C
00
DB
5B
7E
3E
3E
7E
7A
7B
5B
DB
ENDCHAR
STARTCHAR 04C2
ENCODING 1218
SWIDTH 576 0
DWIDTH 8 0
BBX 8 11 0 0
BITMAP
24
1C
00
DB
7A
3E
3E
7E
7A
5B
DB
ENDCHAR
STARTCHAR 04C3
ENCODING 1219
SWIDTH 576 0
DWIDTH 8 0
BBX 7 13 1 -3
BITMAP
C6
CC
D8
F0
FC
EC
CC
CC
CC
CC
0C
3C
3C
ENDCHAR
STARTCHAR 04C4
ENCODING 1220
SWIDTH 576 0
DWIDTH 8 0
BBX 7 11 1 -3
BITMAP
CE
DC
F8
F0
FC
CC
CC
CC
0C
3C
38
ENDCHAR
STARTCHAR 04C7
ENCODING 1223
SWIDTH 576 0
DWIDTH 8 0
BBX 6 13 1 -3
BITMAP
CC
CC
CC
CC
FC
FC
CC
CC
CC
CC
0C
3C
3C
ENDCHAR
STARTCHAR 04C8
ENCODING 1224
SWIDTH 576 0
DWIDTH 8 0
BBX 6 11 1 -3
BITMAP
CC
CC
CC
FC
FC
CC
CC
CC
0C
3C
38
ENDCHAR
STARTCHAR 04CB
ENCODING 1227
SWIDTH 576 0
DWIDTH 8 0
BBX 7 13 1 -2
BITMAP
C6
C6
C6
C6
CE
FE
76
06
06
1E
1E
18
18
ENDCHAR
STARTCHAR 04CC
ENCODING 1228
SWIDTH 576 0
DWIDTH 8 0
BBX 6 10 1 -2
BITMAP
CC
CC
CC
FC
7C
0C
0C
3C
30
30
ENDCHAR
STARTCHAR 04CF
ENCODING 1231
SWIDTH 576 0
DWIDTH 8 0
BBX 2 11 3 0
BITMAP
C0
C0
C0
C0
C0
C0
C0
C0
C0
C0
C0
ENDCHAR
STARTCHAR 04D0
ENCODING 1232
SWIDTH 576 0
DWIDTH 8 0
BBX 8 13 0 0
BITMAP
24
1C
00
1C
1C
3C
34
36
66
7E
7E
63
C3
ENDCHAR
STARTCHAR 04D1
ENCODING 1233
SWIDTH 576 0
DWIDTH 8 0
BBX 7 11 1 0
BITMAP
48
38
00
78
FC
3C
FE
C6
CC
DC
76
ENDCHAR
STARTCHAR 04D2
ENCODING 1234
SWIDTH 576 0
DWIDTH 8 0
BBX 8 13 0 0
BITMAP
34
34
00
1C
1C
3C
34
36
66
7E
7E
63
C3
ENDCHAR
STARTCHAR 04D3
ENCODING 1235
SWIDTH 576 0
DWIDTH 8 0
BBX 7 11 1 0
BITMAP
68
68
00
78
FC
3C
FE
C6
CC
FC
76
ENDCHAR
STARTCHAR 04D4
ENCODING 1236
SWIDTH 576 0
DWIDTH 8 0
BBX 8 10 0 0
BITMAP
3F
3F
2C
2F
6F
6C
7C
7C
CF
CF
ENDCHAR
STARTCHAR 04D5
ENCODING 1237
SWIDTH 576 0
DWIDTH 8 0
BBX 8 8 0 0
BITMAP
7E
7F
19
7F
FF
D8
FF
77
ENDCHAR
STARTCHAR 04D6
ENCODING 1238
SWIDTH 576 0
DWIDTH 8 0
BBX 6 13 1 0
BITMAP
4C
38
00
FC
FC
C0
C0
FC
FC
C0
C0
FC
FC
ENDCHAR
STARTCHAR 04D7
ENCODING 1239
SWIDTH 576 0
DWIDTH 8 0
BBX 7 12 1 0
BITMAP
44
48
38
00
78
FC
C6
FE
FE
C0
FC
7C
ENDCHAR
STARTCHAR 04D8
ENCODING 1240
SWIDTH 576 0
DWIDTH 8 0
BBX 7 10 1 0
BITMAP
78
7C
0C
06
FE
FE
C6
CC
FC
78
ENDCHAR
STARTCHAR 04D9
ENCODING 1241
SWIDTH 576 0
DWIDTH 8 0
BBX 7 8 1 0
BITMAP
F8
FC
06
FE
FE
C6
FC
78
ENDCHAR
STARTCHAR 04DA
ENCODING 1242
SWIDTH 576 0
DWIDTH 8 0
BBX 7 13 1 0
BITMAP
68
68
00
78
7C
0C
06
FE
FE
C6
CC
FC
78
ENDCHAR
STARTCHAR 04DB
ENCODING 1243
SWIDTH 576 0
DWIDTH 8 0
BBX 7 11 1 0
BITMAP
68
68
00
F8
FC
06
FE
FE
C6
FC
78
ENDCHAR
STARTCHAR 04DC
ENCODING 1244
SWIDTH 576 0
DWIDTH 8 0
BBX 8 13 0 0
BITMAP
34
34
00
DB
5B
7E
3E
3E
7E
7A
7B
5B
DB
ENDCHAR
STARTCHAR 04DD
ENCODING 1245
SWIDTH 576 0
DWIDTH 8 0
BBX 8 11 0 0
BITMAP
34
34
00
DB
7A
3E
3E
7E
7A
5B
DB
ENDCHAR
STARTCHAR 04DE
ENCODING 1246
SWIDTH 576 0
DWIDTH 8 0
BBX 6 13 1 0
BITMAP
68
48
00
F8
FC
0C
3C
38
0C
04
0C
FC
F8
ENDCHAR
STARTCHAR 04DF
ENCODING 1247
SWIDTH 576 0
DWIDTH 8 0
BBX 6 11 1 0
BITMAP
68
68
00
F8
FC
0C
38
3C
0C
FC
F8
ENDCHAR
STARTCHAR 04E0
ENCODING 1248
SWIDTH 576 0
DWIDTH 8 0
BBX 8 10 0 0
BITMAP
7F
7F
0E
1C
3E
3F
03
C3
FF
7E
ENDCHAR
STARTCHAR 04E1
ENCODING 1249
SWIDTH 576 0
DWIDTH 8 0
BBX 7 11 1 -3
BITMAP
FC
FC
18
38
70
7C
7C
0E
0E
FC
F8
ENDCHAR
STARTCHAR 04E2
ENCODING 1250
SWIDTH 576 0
DWIDTH 8 0
BBX 7 13 1 0
BITMAP
78
78
00
CE
CE
DE
DE
D6
F6
E6
E6
E6
C6
ENDCHAR
STARTCHAR 04E3
ENCODING 1251
SWIDTH 576 0
DWIDTH 8 0
BBX 6 10 1 0
BITMAP
78
78
CC
CC
DC
DC
FC
EC
EC
CC
ENDCHAR
STARTCHAR 04E4
ENCODING 1252
SWIDTH 576 0
DWIDTH 8 0
BBX 7 13 1 0
BITMAP
68
68
00
CE
CE
DE
DE
D6
F6
E6
E6
E6
C6
ENDCHAR
STARTCHAR 04E5
ENCODING 1253
SWIDTH 576 0
DWIDTH 8 0
BBX 6 11 1 0
BITMAP
68
68
00
CC
CC
DC
DC
FC
EC
EC
CC
ENDCHAR
STARTCHAR 04E6
ENCODING 1254
SWIDTH 576 0
DWIDTH 8 0
BBX 7 13 1 0
BITMAP
68
68
00
78
FC
CC
C6
C6
C6
C6
CC
FC
78
ENDCHAR
STARTCHAR 04E7
ENCODING 1255
SWIDTH 576 0
DWIDTH 8 0
BBX 7 11 1 0
BITMAP
68
68
00
78
FC
CE
C6
C6
CE
FC
78
ENDCHAR
STARTCHAR 04E8
ENCODING 1256
SWIDTH 576 0
DWIDTH 8 0
BBX 7 10 1 0
BITMAP
78
FC
CC
FE
FE
C6
C6
CC
FC
78
ENDCHAR
STARTCHAR 04E9
ENCODING 1257
SWIDTH 576 0
DWIDTH 8 0
BBX 7 8 1 0
BITMAP
78
FC
CE
FE
FE
CE
FC
78
ENDCHAR
STARTCHAR 04EA
ENCODING 1258
SWIDTH 576 0
DWIDTH 8 0
BBX 7 13 1 0
BITMAP
68
68
00
78
FC
CC
FE
FE
C6
C6
CC
FC
78
ENDCHAR
STARTCHAR 04EB
ENCODING 1259
SWIDTH 576 0
DWIDTH 8 0
BBX 7 11 1 0
BITMAP
68
68
00
78
FC
CE
FE
FE
CE
FC
78
ENDCHAR
STARTCHAR 04EC
ENCODING 1260
SWIDTH 576 0
DWIDTH 8 0
BBX 7 13 1 0
BITMAP
58
58
00
F0
FC
8C
0C
7C
7E
0C
8C
FC
F0
ENDCHAR
STARTCHAR 04ED
ENCODING 1261
SWIDTH 576 0
DWIDTH 8 0
BBX 6 11 1 0
BITMAP
58
48
00
78
FC
0C
7C
7C
0C
FC
F8
ENDCHAR
STARTCHAR 04EE
ENCODING 1262
SWIDTH 576 0
DWIDTH 8 0
BBX 8 13 0 0
BITMAP
3C
3C
00
E3
67
76
36
1C
1C
1C
18
78
70
ENDCHAR
STARTCHAR 04EF
ENCODING 1263
SWIDTH 576 0
DWIDTH 8 0
BBX 8 13 0 -3
BITMAP
3C
3C
E3
66
66
36
3C
3C
1C
18
18
78
70
ENDCHAR
STARTCHAR 04F0
ENCODING 1264
SWIDTH 576 0
DWIDTH 8 0
BBX 8 13 0 0
BITMAP
34
34
00
E3
67
76
36
1C
1C
1C
18
78
70
ENDCHAR
STARTCHAR 04F1
ENCODING 1265
SWIDTH 576 0
DWIDTH 8 0
BBX 8 14 0 -3
BITMAP
34
34
00
E3
66
66
36
3C
3C
1C
18
18
78
70
ENDCHAR
STARTCHAR 04F2
ENCODING 1266
SWIDTH 576 0
DWIDTH 8 0
BBX 8 13 0 0
BITMAP
1F
2C
00
E3
67
76
36
1C
1C
1C
18
78
70
ENDCHAR
STARTCHAR 04F3
ENCODING 1267
SWIDTH 576 0
DWIDTH 8 0
BBX 8 15 0 -3
BITMAP
1A
14
2C
00
E3
66
66
36
3C
3C
1C
18
18
78
70
ENDCHAR
STARTCHAR 04F4
ENCODING 1268
SWIDTH 576 0
DWIDTH 8 0
BBX 7 13 1 0
BITMAP
68
68
C6
C6
C6
C6
CE
FE
76
06
06
06
06
ENDCHAR
STARTCHAR 04F5
ENCODING 1269
SWIDTH 576 0
DWIDTH 8 0
BBX 6 11 1 0
BITMAP
68
68
00
CC
CC
CC
FC
7C
0C
0C
0C
ENDCHAR
STARTCHAR 04F6
ENCODING 1270
SWIDTH 576 0
DWIDTH 8 0
BBX 7 12 1 -2
BITMAP
FE
FE
C0
C0
C0
C0
C0
C0
F0
F0
30
30
ENDCHAR
STARTCHAR 04F7
ENCODING 1271
SWIDTH 576 0
DWIDTH 8 0
BBX 5 10 2 -2
BITMAP
F8
F8
C0
C0
C0
C0
C0
F0
30
30
ENDCHAR
STARTCHAR 04F8
ENCODING 1272
SWIDTH 576 0
DWIDTH 8 0
BBX 8 13 0 0
BITMAP
36
36
00
C3
C3
C3
E3
FB
CF
CF
CF
FB
F3
ENDCHAR
STARTCHAR 04F9
ENCODING 1273
SWIDTH 576 0
DWIDTH 8 0
BBX 8 11 0 0
BITMAP
34
34
00
C3
C3
C3
F3
FB
DB
FB
F3
ENDCHAR
STARTCHAR 0510
ENCODING 1296
SWIDTH 576 0
DWIDTH 8 0
BBX 6 10 1 0
BITMAP
7C
FC
C0
78
78
C0
C0
C0
FC
7C
ENDCHAR
STARTCHAR 0511
ENCODING 1297
SWIDTH 576 0
DWIDTH 8 0
BBX 6 8 1 0
BITMAP
7C
FC
C0
78
F8
C0
FC
7C
ENDCHAR
STARTCHAR 051A
ENCODING 1306
SWIDTH 576 0
DWIDTH 8 0
BBX 7 12 1 -2
BITMAP
78
FC
CC
C6
C6
C6
C6
CC
FC
78
0C
06
ENDCHAR
STARTCHAR 051B
ENCODING 1307
SWIDTH 576 0
DWIDTH 8 0
BBX 6 11 1 -3
BITMAP
7C
FC
CC
CC
CC
CC
FC
7C
0C
0C
0C
ENDCHAR
STARTCHAR 051C
ENCODING 1308
SWIDTH 576 0
DWIDTH 8 0
BBX 8 10 0 0
BITMAP
C1
C3
DB
DB
5F
5F
57
76
66
66
ENDCHAR
STARTCHAR 051D
ENCODING 1309
SWIDTH 576 0
DWIDTH 8 0
BBX 8 8 0 0
BITMAP
C1
C3
DB
5B
5B
56
76
66
ENDCHAR
STARTCHAR 0531
ENCODING 1329
SWIDTH 576 0
DWIDTH 8 0
BBX 8 10 0 0
BITMAP
C6
C6
C6
C6
C6
C6
CE
6E
7F
3E
ENDCHAR
STARTCHAR 0532
ENCODING 1330
SWIDTH 576 0
DWIDTH 8 0
BBX 7 10 1 0
BITMAP
78
FC
CE
C6
C0
FE
FE
C0
C0
C0
ENDCHAR
STARTCHAR 0533
ENCODING 1331
SWIDTH 576 0
DWIDTH 8 0
BBX 8 10 0 0
BITMAP
7C
7E
C6
C6
C6
7F
7F
06
06
06
ENDCHAR
STARTCHAR 0534
ENCODING 1332
SWIDTH 576 0
DWIDTH 8 0
BBX 8 10 0 0
BITMAP
7C
7E
C6
C6
06
07
07
06
06
06
ENDCHAR
STARTCHAR 0535
ENCODING 1333
SWIDTH 576 0
DWIDTH 8 0
BBX 7 10 1 0
BITMAP
C0
C0
FE
FE
C0
C6
C6
CC
FC
78
ENDCHAR
STARTCHAR 0536
ENCODING 1334
SWIDTH 576 0
DWIDTH 8 0
BBX 7 10 1 0
BITMAP
78
FC
C6
C6
06
06
0C
0C
FC
FC
ENDCHAR
STARTCHAR 0537
ENCODING 1335
SWIDTH 576 0
DWIDTH 8 0
BBX 7 10 1 0
BITMAP
C0
C0
FE
FE
C0
C0
C0
C0
FC
FC
ENDCHAR
STARTCHAR 0538
ENCODING 1336
SWIDTH 576 0
DWIDTH 8 0
BBX 7 10 1 0
BITMAP
78
FC
CC
C6
C0
C0
C0
C0
FE
FE
ENDCHAR
STARTCHAR 0539
ENCODING 1337
SWIDTH 576 0
DWIDTH 8 0
BBX 8 10 0 0
BITMAP
3C
7E
C2
C2
CF
DF
D2
D2
DE
CE
ENDCHAR
STARTCHAR 053A
ENCODING 1338
SWIDTH 576 0
DWIDTH 8 0
BBX 8 10 0 0
BITMAP
06
06
3F
7F
C6
C6
C6
E6
7E
3C
ENDCHAR
STARTCHAR 053B
ENCODING 1339
SWIDTH 576 0
DWIDTH 8 0
BBX 7 10 1 0
BITMAP
C0
C0
F8
FC
CE
C6
C0
C0
C0
C0
ENDCHAR
STARTCHAR 053C
ENCODING 1340
SWIDTH 576 0
DWIDTH 8 0
BBX 6 10 1 0
BITMAP
C0
C0
C0
C0
C0
C0
C0
C0
FC
FC
ENDCHAR
STARTCHAR 053D
ENCODING 1341
SWIDTH 576 0
DWIDTH 8 0
BBX 7 10 1 0
BITMAP
80
80
F6
F6
B6
B6
B6
B6
BE
9C
ENDCHAR
STARTCHAR 053E
ENCODING 1342
SWIDTH 576 0
DWIDTH 8 0
BBX 8 10 0 0
BITMAP
CF
FF
FC
66
63
63
63
63
7E
3C
ENDCHAR
STARTCHAR 053F
ENCODING 1343
SWIDTH 576 0
DWIDTH 8 0
BBX 7 10 1 0
BITMAP
C0
C0
C6
C6
C6
CE
FE
7E
06
06
ENDCHAR
STARTCHAR 0540
ENCODING 1344
SWIDTH 576 0
DWIDTH 8 0
BBX 8 11 0 -1
BITMAP
0E
06
07
1E
38
70
E0
78
3E
0F
01
ENDCHAR
STARTCHAR 0541
ENCODING 1345
SWIDTH 576 0
DWIDTH 8 0
BBX 8 10 0 0
BITMAP
3C
7E
67
63
83
03
7E
7E
7E
7B
ENDCHAR
STARTCHAR 0542
ENCODING 1346
SWIDTH 576 0
DWIDTH 8 0
BBX 8 10 0 0
BITMAP
3C
7E
C6
C6
06
06
06
06
07
07
ENDCHAR
STARTCHAR 0543
ENCODING 1347
SWIDTH 576 0
DWIDTH 8 0
BBX 8 10 0 0
BITMAP
63
3F
3C
18
3C
7C
6E
66
FF
7F
ENDCHAR
STARTCHAR 0544
ENCODING 1348
SWIDTH 576 0
DWIDTH 8 0
BBX 8 10 0 0
BITMAP
C7
C7
C6
C6
C6
C6
C6
C6
7E
3C
ENDCHAR
STARTCHAR 0545
ENCODING 1349
SWIDTH 576 0
DWIDTH 8 0
BBX 8 10 0 0
BITMAP
3E
76
03
FE
FE
03
03
63
7F
3E
ENDCHAR
STARTCHAR 0546
ENCODING 1350
SWIDTH 576 0
DWIDTH 8 0
BBX 8 10 0 0
BITMAP
E0
E0
60
60
60
60
63
63
3F
1E
ENDCHAR
STARTCHAR 0547
ENCODING 1351
SWIDTH 576 0
DWIDTH 8 0
BBX 7 10 1 0
BITMAP
E0
FC
7C
C4
C0
C0
C6
C6
FC
78
ENDCHAR
STARTCHAR 0548
ENCODING 1352
SWIDTH 576 0
DWIDTH 8 0
BBX 7 10 1 0
BITMAP
78
FC
C6
C6
C6
C6
C6
C6
C6
C6
ENDCHAR
STARTCHAR 0549
ENCODING 1353
SWIDTH 576 0
DWIDTH 8 0
BBX 7 11 1 -1
BITMAP
78
FC
CE
C6
06
06
0C
CC
F8
3C
0C
ENDCHAR
STARTCHAR 054A
ENCODING 1354
SWIDTH 576 0
DWIDTH 8 0
BBX 8 10 0 0
BITMAP
3C
7E
5B
DB
DB
1B
1B
03
03
03
ENDCHAR
STARTCHAR 054B
ENCODING 1355
SWIDTH 576 0
DWIDTH 8 0
BBX 8 10 0 0
BITMAP
3C
7E
63
C3
73
7B
0E
0C
7E
7E
ENDCHAR
STARTCHAR 054C
ENCODING 1356
SWIDTH 576 0
DWIDTH 8 0
BBX 8 10 0 0
BITMAP
3C
7E
C6
C6
C6
C7
C7
C6
C6
C6
ENDCHAR
STARTCHAR 054D
ENCODING 1357
SWIDTH 576 0
DWIDTH 8 0
BBX 7 10 1 0
BITMAP
C6
C6
C6
C6
C6
C6
C6
CE
FC
78
ENDCHAR
STARTCHAR 054E
ENCODING 1358
SWIDTH 576 0
DWIDTH 8 0
BBX 8 10 0 0
BITMAP
06
06
06
C6
C6
E6
7E
3E
07
07
ENDCHAR
STARTCHAR 054F
ENCODING 1359
SWIDTH 576 0
DWIDTH 8 0
BBX 7 10 1 0
BITMAP
78
FC
CE
E0
78
3C
0E
C6
FC
78
ENDCHAR
STARTCHAR 0550
ENCODING 1360
SWIDTH 576 0
DWIDTH 8 0
BBX 7 10 1 0
BITMAP
78
FC
C6
C6
C0
C0
C0
C0
C0
C0
ENDCHAR
STARTCHAR 0551
ENCODING 1361
SWIDTH 576 0
DWIDTH 8 0
BBX 8 10 0 0
BITMAP
3E
76
63
FE
FE
03
03
63
7F
3E
ENDCHAR
STARTCHAR 0552
ENCODING 1362
SWIDTH 576 0
DWIDTH 8 0
BBX 7 10 1 0
BITMAP
C0
C0
FE
FE
C0
C0
C0
C0
C0
C0
ENDCHAR
STARTCHAR 0553
ENCODING 1363
SWIDTH 576 0
DWIDTH 8 0
BBX 8 10 0 0
BITMAP
7E
7F
DB
DB
DB
DB
DB
7F
3E
18
ENDCHAR
STARTCHAR 0554
ENCODING 1364
SWIDTH 576 0
DWIDTH 8 0
BBX 8 10 0 0
BITMAP
1E
3F
63
63
7F
7E
60
FF
FF
60
ENDCHAR
STARTCHAR 0555
ENCODING 1365
SWIDTH 576 0
DWIDTH 8 0
BBX 7 10 1 0
BITMAP
78
FC
CC
C6
C6
C6
C6
CC
FC
78
ENDCHAR
STARTCHAR 0556
ENCODING 1366
SWIDTH 576 0
DWIDTH 8 0
BBX 8 10 0 0
BITMAP
78
78
7E
7F
1B
1B
DB
DB
7F
3E
ENDCHAR
STARTCHAR 0559
ENCODING 1369
SWIDTH 576 0
DWIDTH 8 0
BBX 2 4 3 7
BITMAP
40
80
80
40
ENDCHAR
STARTCHAR 055A
ENCODING 1370
SWIDTH 576 0
DWIDTH 8 0
BBX 3 5 3 6
BITMAP
E0
E0
C0
C0
80
ENDCHAR
STARTCHAR 055B
ENCODING 1371
SWIDTH 576 0
DWIDTH 8 0
BBX 5 3 2 9
BITMAP
38
60
C0
ENDCHAR
STARTCHAR 055C
ENCODING 1372
SWIDTH 576 0
DWIDTH 8 0
BBX 6 4 1 9
BITMAP
04
3C
F8
C0
ENDCHAR
STARTCHAR 055D
ENCODING 1373
SWIDTH 576 0
DWIDTH 8 0
BBX 5 3 2 9
BITMAP
E0
60
38
ENDCHAR
STARTCHAR 055E
ENCODING 1374
SWIDTH 576 0
DWIDTH 8 0
BBX 8 5 0 8
BITMAP
0C
3E
63
4F
CE
ENDCHAR
STARTCHAR 055F
ENCODING 1375
SWIDTH 576 0
DWIDTH 8 0
BBX 6 2 1 9
BITMAP
80
FC
ENDCHAR
STARTCHAR 0561
ENCODING 1377
SWIDTH 576 0
DWIDTH 8 0
BBX 7 8 1 0
BITMAP
B6
B6
B6
B6
B6
B6
FE
DE
ENDCHAR
STARTCHAR 0562
ENCODING 1378
SWIDTH 576 0
DWIDTH 8 0
BBX 6 11 1 -3
BITMAP
F8
FC
CC
CC
CC
C0
FC
FC
C0
C0
C0
ENDCHAR
STARTCHAR 0563
ENCODING 1379
SWIDTH 576 0
DWIDTH 8 0
BBX 8 11 0 -3
BITMAP
3E
7E
66
C6
C6
66
7F
3F
06
06
06
ENDCHAR
STARTCHAR 0564
ENCODING 1380
SWIDTH 576 0
DWIDTH 8 0
BBX 7 11 1 -3
BITMAP
F8
FC
CC
CC
CC
CC
CE
CE
0C
0C
0C
ENDCHAR
STARTCHAR 0565
ENCODING 1381
SWIDTH 576 0
DWIDTH 8 0
BBX 6 11 1 0
BITMAP
C0
C0
C0
FC
FC
C0
CC
CC
CC
FC
7C
ENDCHAR
STARTCHAR 0566
ENCODING 1382
SWIDTH 576 0
DWIDTH 8 0
BBX 8 11 0 -3
BITMAP
3E
7E
66
C6
C6
66
7E
3E
06
07
07
ENDCHAR
STARTCHAR 0567
ENCODING 1383
SWIDTH 576 0
DWIDTH 8 0
BBX 6 11 1 0
BITMAP
C0
C0
C0
FC
FC
C0
C0
C0
C0
FC
FC
ENDCHAR
STARTCHAR 0568
ENCODING 1384
SWIDTH 576 0
DWIDTH 8 0
BBX 6 11 1 -3
BITMAP
F8
FC
CC
CC
CC
CC
CC
CC
C0
FC
FC
ENDCHAR
STARTCHAR 0569
ENCODING 1385
SWIDTH 576 0
DWIDTH 8 0
BBX 8 11 0 -3
BITMAP
DC
FE
E6
C7
DF
D6
D6
DC
C0
C0
C0
ENDCHAR
STARTCHAR 056A
ENCODING 1386
SWIDTH 576 0
DWIDTH 8 0
BBX 8 11 0 0
BITMAP
06
06
06
3F
7F
66
C6
C6
66
7E
3C
ENDCHAR
STARTCHAR 056B
ENCODING 1387
SWIDTH 576 0
DWIDTH 8 0
BBX 6 14 1 -3
BITMAP
C0
C0
C0
D8
FC
CC
CC
CC
CC
CC
CC
C0
C0
C0
ENDCHAR
STARTCHAR 056C
ENCODING 1388
SWIDTH 576 0
DWIDTH 8 0
BBX 4 11 2 -3
BITMAP
C0
C0
C0
C0
C0
C0
C0
C0
C0
F0
F0
ENDCHAR
STARTCHAR 056D
ENCODING 1389
SWIDTH 576 0
DWIDTH 8 0
BBX 7 14 1 -3
BITMAP
80
80
80
E6
F6
B6
B6
B6
B6
BE
9E
80
80
80
ENDCHAR
STARTCHAR 056E
ENCODING 1390
SWIDTH 576 0
DWIDTH 8 0
BBX 7 11 1 0
BITMAP
20
60
F0
7E
FE
CC
C6
C6
CE
FC
78
ENDCHAR
STARTCHAR 056F
ENCODING 1391
SWIDTH 576 0
DWIDTH 8 0
BBX 6 14 1 -3
BITMAP
C0
C0
C0
CC
CC
CC
CC
CC
CC
FC
7C
0C
0C
0C
ENDCHAR
STARTCHAR 0570
ENCODING 1392
SWIDTH 576 0
DWIDTH 8 0
BBX 6 11 1 0
BITMAP
C0
C0
C0
D8
FC
CC
CC
CC
CC
CC
CC
ENDCHAR
STARTCHAR 0571
ENCODING 1393
SWIDTH 576 0
DWIDTH 8 0
BBX 6 11 1 0
BITMAP
60
68
78
30
7C
4C
CC
CC
CC
FC
7C
ENDCHAR
STARTCHAR 0572
ENCODING 1394
SWIDTH 576 0
DWIDTH 8 0
BBX 7 11 1 -3
BITMAP
F8
FC
CC
CC
CC
CC
CC
CC
0C
0E
0E
ENDCHAR
STARTCHAR 0573
ENCODING 1395
SWIDTH 576 0
DWIDTH 8 0
BBX 6 10 1 0
BITMAP
1C
30
F0
FC
CC
CC
CC
CC
FC
7C
ENDCHAR
STARTCHAR 0574
ENCODING 1396
SWIDTH 576 0
DWIDTH 8 0
BBX 7 11 1 0
BITMAP
0E
0E
0C
CC
CC
CC
CC
CC
CC
FC
7C
ENDCHAR
STARTCHAR 0575
ENCODING 1397
SWIDTH 576 0
DWIDTH 8 0
BBX 5 11 2 -3
BITMAP
18
18
18
18
18
18
18
18
18
F0
F0
ENDCHAR
STARTCHAR 0576
ENCODING 1398
SWIDTH 576 0
DWIDTH 8 0
BBX 7 11 1 0
BITMAP
E0
E0
60
66
66
66
66
66
66
7E
76
ENDCHAR
STARTCHAR 0577
ENCODING 1399
SWIDTH 576 0
DWIDTH 8 0
BBX 6 11 1 -3
BITMAP
78
FC
4C
0C
0C
18
30
60
C0
FC
FC
ENDCHAR
STARTCHAR 0578
ENCODING 1400
SWIDTH 576 0
DWIDTH 8 0
BBX 6 8 1 0
BITMAP
D8
FC
CC
CC
CC
CC
CC
CC
ENDCHAR
STARTCHAR 0579
ENCODING 1401
SWIDTH 576 0
DWIDTH 8 0
BBX 5 11 2 -3
BITMAP
60
C0
C0
78
30
60
C0
C0
80
F8
F8
ENDCHAR
STARTCHAR 057A
ENCODING 1402
SWIDTH 576 0
DWIDTH 8 0
BBX 7 11 1 -3
BITMAP
B6
B6
B6
B6
B6
B6
FE
DE
06
06
06
ENDCHAR
STARTCHAR 057B
ENCODING 1403
SWIDTH 576 0
DWIDTH 8 0
BBX 6 11 1 -3
BITMAP
78
FC
CC
CC
6C
38
38
70
60
FC
7C
ENDCHAR
STARTCHAR 057C
ENCODING 1404
SWIDTH 576 0
DWIDTH 8 0
BBX 7 8 1 0
BITMAP
F8
FC
CC
CC
CC
C8
DE
DE
ENDCHAR
STARTCHAR 057D
ENCODING 1405
SWIDTH 576 0
DWIDTH 8 0
BBX 6 8 1 0
BITMAP
CC
CC
CC
CC
CC
CC
FC
7C
ENDCHAR
STARTCHAR 057E
ENCODING 1406
SWIDTH 576 0
DWIDTH 8 0
BBX 7 14 1 -3
BITMAP
0C
0C
0C
CC
CC
CC
CC
CC
CC
FC
EC
0C
0E
0E
ENDCHAR
STARTCHAR 057F
ENCODING 1407
SWIDTH 576 0
DWIDTH 8 0
BBX 7 8 1 0
BITMAP
BC
B6
B6
B6
B6
B6
F6
D6
ENDCHAR
STARTCHAR 0580
ENCODING 1408
SWIDTH 576 0
DWIDTH 8 0
BBX 6 11 1 -3
BITMAP
D8
FC
CC
CC
CC
CC
CC
CC
C0
C0
C0
ENDCHAR
STARTCHAR 0581
ENCODING 1409
SWIDTH 576 0
DWIDTH 8 0
BBX 7 11 1 -3
BITMAP
76
FE
CE
C6
C6
CE
FE
76
0C
7C
78
ENDCHAR
STARTCHAR 0582
ENCODING 1410
SWIDTH 576 0
DWIDTH 8 0
BBX 6 8 1 0
BITMAP
C0
C0
C0
C0
C0
C0
FC
FC
ENDCHAR
STARTCHAR 0583
ENCODING 1411
SWIDTH 576 0
DWIDTH 8 0
BBX 7 14 1 -3
BITMAP
30
30
30
BC
B6
B6
B6
B6
B6
F6
F6
30
30
30
ENDCHAR
STARTCHAR 0584
ENCODING 1412
SWIDTH 576 0
DWIDTH 8 0
BBX 8 11 0 -3
BITMAP
6E
76
63
63
63
63
7E
6E
60
FF
FF
ENDCHAR
STARTCHAR 0585
ENCODING 1413
SWIDTH 576 0
DWIDTH 8 0
BBX 7 8 1 0
BITMAP
78
FC
CE
C6
C6
CE
FC
78
ENDCHAR
STARTCHAR 0586
ENCODING 1414
SWIDTH 576 0
DWIDTH 8 0
BBX 8 14 0 -3
BITMAP
38
78
58
7E
3F
1B
1B
1B
5B
FF
3E
18
18
18
ENDCHAR
STARTCHAR 0587
ENCODING 1415
SWIDTH 576 0
DWIDTH 8 0
BBX 8 11 0 0
BITMAP
C0
C0
C0
CC
CC
CC
CC
CC
CC
FF
7F
ENDCHAR
STARTCHAR 0589
ENCODING 1417
SWIDTH 576 0
DWIDTH 8 0
BBX 2 8 3 0
BITMAP
C0
C0
C0
00
00
C0
C0
C0
ENDCHAR
STARTCHAR 058A
ENCODING 1418
SWIDTH 576 0
DWIDTH 8 0
BBX 4 2 2 2
BITMAP
F0
F0
ENDCHAR
STARTCHAR 0E3F
ENCODING 3647
SWIDTH 576 0
DWIDTH 8 0
BBX 7 13 1 -2
BITMAP
10
10
FC
FC
DC
FC
FC
D6
D6
FE
FC
10
10
ENDCHAR
STARTCHAR 10D0
ENCODING 4304
SWIDTH 576 0
DWIDTH 8 0
BBX 7 8 1 0
BITMAP
60
30
38
0C
C6
C6
EC
78
ENDCHAR
STARTCHAR 10D1
ENCODING 4305
SWIDTH 576 0
DWIDTH 8 0
BBX 7 10 1 0
BITMAP
C0
70
30
78
CC
CE
C6
CE
EC
78
ENDCHAR
STARTCHAR 10D2
ENCODING 4306
SWIDTH 576 0
DWIDTH 8 0
BBX 7 10 1 -3
BITMAP
78
DC
CC
18
FC
CE
86
C6
EC
78
ENDCHAR
STARTCHAR 10D3
ENCODING 4307
SWIDTH 576 0
DWIDTH 8 0
BBX 8 10 0 -3
BITMAP
7E
DB
DB
DB
DB
DB
4E
30
7C
4E
ENDCHAR
STARTCHAR 10D4
ENCODING 4308
SWIDTH 576 0
DWIDTH 8 0
BBX 7 10 1 -3
BITMAP
38
FC
C6
C6
06
86
C6
C6
EC
7C
ENDCHAR
STARTCHAR 10D5
ENCODING 4309
SWIDTH 576 0
DWIDTH 8 0
BBX 7 10 1 -3
BITMAP
7C
EC
C6
8C
18
8C
C6
C6
EC
7C
ENDCHAR
STARTCHAR 10D6
ENCODING 4310
SWIDTH 576 0
DWIDTH 8 0
BBX 7 10 1 0
BITMAP
F0
D8
D8
FC
CC
C6
C6
C6
EC
78
ENDCHAR
STARTCHAR 10D7
ENCODING 4311
SWIDTH 576 0
DWIDTH 8 0
BBX 8 7 0 0
BITMAP
7E
DB
CB
CB
CB
7B
76
ENDCHAR
STARTCHAR 10D8
ENCODING 4312
SWIDTH 576 0
DWIDTH 8 0
BBX 7 7 1 0
BITMAP
78
EC
C6
C6
C6
C4
6C
ENDCHAR
STARTCHAR 10D9
ENCODING 4313
SWIDTH 576 0
DWIDTH 8 0
BBX 7 10 1 -3
BITMAP
38
1C
06
04
18
8C
C6
C6
EC
7C
ENDCHAR
STARTCHAR 10DA
ENCODING 4314
SWIDTH 576 0
DWIDTH 8 0
BBX 7 10 1 -3
BITMAP
78
EC
C6
C6
CC
CC
60
70
F8
0C
ENDCHAR
STARTCHAR 10DB
ENCODING 4315
SWIDTH 576 0
DWIDTH 8 0
BBX 7 10 1 0
BITMAP
7C
CE
06
7E
EE
C6
C6
C6
EC
78
ENDCHAR
STARTCHAR 10DC
ENCODING 4316
SWIDTH 576 0
DWIDTH 8 0
BBX 7 10 1 0
BITMAP
FC
C0
C0
F8
EC
C6
C6
C6
EC
78
ENDCHAR
STARTCHAR 10DD
ENCODING 4317
SWIDTH 576 0
DWIDTH 8 0
BBX 8 7 0 0
BITMAP
7E
DB
DB
DB
C3
C3
66
ENDCHAR
STARTCHAR 10DE
ENCODING 4318
SWIDTH 576 0
DWIDTH 8 0
BBX 7 10 1 0
BITMAP
E0
7C
0C
0C
3C
0C
C6
C6
EC
78
ENDCHAR
STARTCHAR 10DF
ENCODING 4319
SWIDTH 576 0
DWIDTH 8 0
BBX 7 10 1 -3
BITMAP
06
FE
E6
36
36
E6
06
C6
CC
7C
ENDCHAR
STARTCHAR 10E0
ENCODING 4320
SWIDTH 576 0
DWIDTH 8 0
BBX 8 10 0 0
BITMAP
0C
38
60
7E
DB
DB
DB
C3
43
66
ENDCHAR
STARTCHAR 10E1
ENCODING 4321
SWIDTH 576 0
DWIDTH 8 0
BBX 7 10 1 0
BITMAP
C0
C0
C8
D0
DC
CE
C6
C6
EC
78
ENDCHAR
STARTCHAR 10E2
ENCODING 4322
SWIDTH 576 0
DWIDTH 8 0
BBX 8 12 0 -3
BITMAP
18
08
1C
7E
6B
CB
DB
C3
C3
E3
76
3C
ENDCHAR
STARTCHAR 10E3
ENCODING 4323
SWIDTH 576 0
DWIDTH 8 0
BBX 8 10 0 -3
BITMAP
BE
DB
13
13
03
23
63
63
76
3E
ENDCHAR
STARTCHAR 10E4
ENCODING 4324
SWIDTH 576 0
DWIDTH 8 0
BBX 8 10 0 -3
BITMAP
7E
CB
CB
CB
CB
CA
7B
03
73
3E
ENDCHAR
STARTCHAR 10E5
ENCODING 4325
SWIDTH 576 0
DWIDTH 8 0
BBX 7 13 1 -3
BITMAP
06
06
06
7E
EE
C6
C6
06
86
C6
C6
EC
78
ENDCHAR
STARTCHAR 10E6
ENCODING 4326
SWIDTH 576 0
DWIDTH 8 0
BBX 8 10 0 -3
BITMAP
7E
5B
DB
DB
DB
C3
66
38
7C
06
ENDCHAR
STARTCHAR 10E7
ENCODING 4327
SWIDTH 576 0
DWIDTH 8 0
BBX 7 10 1 -3
BITMAP
66
C6
C6
C6
CE
7E
06
C6
EC
7C
ENDCHAR
STARTCHAR 10E8
ENCODING 4328
SWIDTH 576 0
DWIDTH 8 0
BBX 8 10 0 0
BITMAP
6E
D7
D3
3F
67
63
63
63
76
3E
ENDCHAR
STARTCHAR 10E9
ENCODING 4329
SWIDTH 576 0
DWIDTH 8 0
BBX 7 10 1 0
BITMAP
78
DC
C8
F8
CC
C6
C6
C6
CC
D8
ENDCHAR
STARTCHAR 10EA
ENCODING 4330
SWIDTH 576 0
DWIDTH 8 0
BBX 8 10 0 -3
BITMAP
6C
6E
63
C3
CE
C3
C3
63
77
3E
ENDCHAR
STARTCHAR 10EB
ENCODING 4331
SWIDTH 576 0
DWIDTH 8 0
BBX 7 10 1 0
BITMAP
06
06
06
7E
EE
C6
C6
C6
EC
78
ENDCHAR
STARTCHAR 10EC
ENCODING 4332
SWIDTH 576 0
DWIDTH 8 0
BBX 7 10 1 0
BITMAP
EE
D6
C0
FC
CC
C6
C6
C6
EC
78
ENDCHAR
STARTCHAR 10ED
ENCODING 4333
SWIDTH 576 0
DWIDTH 8 0
BBX 7 13 1 -3
BITMAP
18
18
18
78
D8
CC
D8
F8
1C
8C
C6
CC
7C
ENDCHAR
STARTCHAR 10EE
ENCODING 4334
SWIDTH 576 0
DWIDTH 8 0
BBX 7 10 1 0
BITMAP
C0
C0
C0
F8
EC
C6
C6
C6
EC
78
ENDCHAR
STARTCHAR 10EF
ENCODING 4335
SWIDTH 576 0
DWIDTH 8 0
BBX 7 11 1 -3
BITMAP
30
B0
F8
3C
32
38
CC
C6
C6
CC
78
ENDCHAR
STARTCHAR 10F0
ENCODING 4336
SWIDTH 576 0
DWIDTH 8 0
BBX 7 10 1 0
BITMAP
60
3C
06
3C
06
3C
C6
C6
EC
7C
ENDCHAR
STARTCHAR 10F1
ENCODING 4337
SWIDTH 576 0
DWIDTH 8 0
BBX 7 13 1 -3
BITMAP
18
1C
06
DC
C6
C6
DC
C6
C6
DC
C6
EE
7C
ENDCHAR
STARTCHAR 10F2
ENCODING 4338
SWIDTH 576 0
DWIDTH 8 0
BBX 7 9 1 -2
BITMAP
78
EC
C6
C6
C6
CC
78
FC
84
ENDCHAR
STARTCHAR 10F3
ENCODING 4339
SWIDTH 576 0
DWIDTH 8 0
BBX 7 10 1 -3
BITMAP
FE
CE
CC
0C
38
0C
C6
CE
FC
30
ENDCHAR
STARTCHAR 10F4
ENCODING 4340
SWIDTH 576 0
DWIDTH 8 0
BBX 7 13 1 -3
BITMAP
70
E0
82
C6
FE
06
0C
38
0C
06
C6
EC
78
ENDCHAR
STARTCHAR 10F5
ENCODING 4341
SWIDTH 576 0
DWIDTH 8 0
BBX 7 10 1 0
BITMAP
78
CC
CC
FE
0C
7E
CC
CC
CC
78
ENDCHAR
STARTCHAR 10F6
ENCODING 4342
SWIDTH 576 0
DWIDTH 8 0
BBX 8 10 0 -3
BITMAP
7E
DB
DB
DB
DB
FB
7E
18
18
30
ENDCHAR
STARTCHAR 10F7
ENCODING 4343
SWIDTH 576 0
DWIDTH 8 0
BBX 7 10 1 -3
BITMAP
78
7C
CC
38
F0
CC
C6
C6
EE
7C
ENDCHAR
STARTCHAR 10F8
ENCODING 4344
SWIDTH 576 0
DWIDTH 8 0
BBX 7 10 1 -3
BITMAP
DC
CC
C6
C6
CC
FC
C0
C6
CC
78
ENDCHAR
STARTCHAR 10F9
ENCODING 4345
SWIDTH 576 0
DWIDTH 8 0
BBX 7 10 1 -3
BITMAP
38
FC
C6
C6
CE
7C
70
6C
6C
78
ENDCHAR
STARTCHAR 10FA
ENCODING 4346
SWIDTH 576 0
DWIDTH 8 0
BBX 7 8 1 -1
BITMAP
78
EC
C6
CC
CC
64
F8
48
ENDCHAR
STARTCHAR 10FB
ENCODING 4347
SWIDTH 576 0
DWIDTH 8 0
BBX 5 6 2 1
BITMAP
C0
00
18
00
00
80
ENDCHAR
STARTCHAR 10FC
ENCODING 4348
SWIDTH 576 0
DWIDTH 8 0
BBX 3 6 3 4
BITMAP
E0
80
C0
A0
A0
C0
ENDCHAR
STARTCHAR 1E80
ENCODING 7808
SWIDTH 576 0
DWIDTH 8 0
BBX 8 13 0 0
BITMAP
30
18
00
C1
C3
DB
DB
5F
5F
57
76
66
66
ENDCHAR
STARTCHAR 1E81
ENCODING 7809
SWIDTH 576 0
DWIDTH 8 0
BBX 8 12 0 0
BITMAP
60
30
18
00
C1
C3
DB
5B
5B
56
76
66
ENDCHAR
STARTCHAR 1E82
ENCODING 7810
SWIDTH 576 0
DWIDTH 8 0
BBX 8 13 0 0
BITMAP
0C
18
00
C1
C3
DB
DB
5F
5F
57
76
66
66
ENDCHAR
STARTCHAR 1E83
ENCODING 7811
SWIDTH 576 0
DWIDTH 8 0
BBX 8 12 0 0
BITMAP
06
04
08
00
C1
C3
DB
5B
5B
56
76
66
ENDCHAR
STARTCHAR 1E84
ENCODING 7812
SWIDTH 576 0
DWIDTH 8 0
BBX 8 13 0 0
BITMAP
34
34
00
C1
C3
DB
DB
5F
5F
57
76
66
66
ENDCHAR
STARTCHAR 1E85
ENCODING 7813
SWIDTH 576 0
DWIDTH 8 0
BBX 8 11 0 0
BITMAP
34
34
00
C1
C3
DB
5B
5B
56
76
66
ENDCHAR
STARTCHAR 1EBC
ENCODING 7868
SWIDTH 576 0
DWIDTH 8 0
BBX 6 13 1 0
BITMAP
64
58
00
FC
FC
C0
C0
FC
FC
C0
C0
FC
FC
ENDCHAR
STARTCHAR 1EBD
ENCODING 7869
SWIDTH 576 0
DWIDTH 8 0
BBX 7 11 1 0
BITMAP
64
58
00
78
FC
C6
FE
FE
C0
FC
7C
ENDCHAR
STARTCHAR 1EF2
ENCODING 7922
SWIDTH 576 0
DWIDTH 8 0
BBX 8 13 0 0
BITMAP
30
18
00
C3
67
66
3E
3C
18
18
18
18
18
ENDCHAR
STARTCHAR 1EF3
ENCODING 7923
SWIDTH 576 0
DWIDTH 8 0
BBX 8 15 0 -3
BITMAP
60
30
18
00
E3
67
66
36
34
3C
1C
18
18
78
70
ENDCHAR
STARTCHAR 1EF8
ENCODING 7928
SWIDTH 576 0
DWIDTH 8 0
BBX 8 13 0 0
BITMAP
32
2C
00
C3
67
66
3E
3C
18
18
18
18
18
ENDCHAR
STARTCHAR 1EF9
ENCODING 7929
SWIDTH 576 0
DWIDTH 8 0
BBX 8 14 0 -3
BITMAP
32
2C
00
E3
67
66
36
34
3C
1C
18
18
78
70
ENDCHAR
STARTCHAR 2000
ENCODING 8192
SWIDTH 576 0
DWIDTH 8 0
BBX 0 0 0 0
BITMAP
ENDCHAR
STARTCHAR 2001
ENCODING 8193
SWIDTH 576 0
DWIDTH 8 0
BBX 0 0 0 0
BITMAP
ENDCHAR
STARTCHAR 2002
ENCODING 8194
SWIDTH 576 0
DWIDTH 8 0
BBX 0 0 0 0
BITMAP
ENDCHAR
STARTCHAR 2003
ENCODING 8195
SWIDTH 576 0
DWIDTH 8 0
BBX 0 0 0 0
BITMAP
ENDCHAR
STARTCHAR 2004
ENCODING 8196
SWIDTH 576 0
DWIDTH 8 0
BBX 0 0 0 0
BITMAP
ENDCHAR
STARTCHAR 2005
ENCODING 8197
SWIDTH 576 0
DWIDTH 8 0
BBX 0 0 0 0
BITMAP
ENDCHAR
STARTCHAR 2006
ENCODING 8198
SWIDTH 576 0
DWIDTH 8 0
BBX 0 0 0 0
BITMAP
ENDCHAR
STARTCHAR 2007
ENCODING 8199
SWIDTH 576 0
DWIDTH 8 0
BBX 0 0 0 0
BITMAP
ENDCHAR
STARTCHAR 2008
ENCODING 8200
SWIDTH 576 0
DWIDTH 8 0
BBX 0 0 0 0
BITMAP
ENDCHAR
STARTCHAR 2009
ENCODING 8201
SWIDTH 576 0
DWIDTH 8 0
BBX 0 0 0 0
BITMAP
ENDCHAR
STARTCHAR 200A
ENCODING 8202
SWIDTH 576 0
DWIDTH 8 0
BBX 0 0 0 0
BITMAP
ENDCHAR
STARTCHAR 2010
ENCODING 8208
SWIDTH 576 0
DWIDTH 8 0
BBX 4 2 2 3
BITMAP
F0
F0
ENDCHAR
STARTCHAR 2011
ENCODING 8209
SWIDTH 576 0
DWIDTH 8 0
BBX 4 2 2 3
BITMAP
F0
F0
ENDCHAR
STARTCHAR 2012
ENCODING 8210
SWIDTH 576 0
DWIDTH 8 0
BBX 6 2 1 3
BITMAP
FC
FC
ENDCHAR
STARTCHAR 2013
ENCODING 8211
SWIDTH 576 0
DWIDTH 8 0
BBX 4 2 2 3
BITMAP
F0
F0
ENDCHAR
STARTCHAR 2014
ENCODING 8212
SWIDTH 576 0
DWIDTH 8 0
BBX 8 2 0 3
BITMAP
FF
FF
ENDCHAR
STARTCHAR 2015
ENCODING 8213
SWIDTH 576 0
DWIDTH 8 0
BBX 8 2 0 3
BITMAP
FF
FF
ENDCHAR
STARTCHAR 2016
ENCODING 8214
SWIDTH 576 0
DWIDTH 8 0
BBX 5 14 2 -3
BITMAP
98
98
98
98
98
98
98
98
98
98
98
98
98
98
ENDCHAR
STARTCHAR 2017
ENCODING 8215
SWIDTH 576 0
DWIDTH 8 0
BBX 8 4 0 -3
BITMAP
FF
FF
FF
FF
ENDCHAR
STARTCHAR 2018
ENCODING 8216
SWIDTH 576 0
DWIDTH 8 0
BBX 3 5 3 6
BITMAP
60
40
C0
C0
C0
ENDCHAR
STARTCHAR 2019
ENCODING 8217
SWIDTH 576 0
DWIDTH 8 0
BBX 3 5 3 6
BITMAP
60
60
60
C0
C0
ENDCHAR
STARTCHAR 201A
ENCODING 8218
SWIDTH 576 0
DWIDTH 8 0
BBX 3 5 2 -2
BITMAP
60
60
60
60
C0
ENDCHAR
STARTCHAR 201B
ENCODING 8219
SWIDTH 576 0
DWIDTH 8 0
BBX 3 5 3 6
BITMAP
C0
C0
C0
40
60
ENDCHAR
STARTCHAR 201C
ENCODING 8220
SWIDTH 576 0
DWIDTH 8 0
BBX 6 5 1 6
BITMAP
64
4C
CC
CC
CC
ENDCHAR
STARTCHAR 201D
ENCODING 8221
SWIDTH 576 0
DWIDTH 8 0
BBX 6 5 1 6
BITMAP
6C
6C
6C
CC
C8
ENDCHAR
STARTCHAR 201E
ENCODING 8222
SWIDTH 576 0
DWIDTH 8 0
BBX 6 5 1 -2
BITMAP
6C
6C
6C
CC
C8
ENDCHAR
STARTCHAR 201F
ENCODING 8223
SWIDTH 576 0
DWIDTH 8 0
BBX 6 5 1 6
BITMAP
CC
CC
CC
4C
64
ENDCHAR
STARTCHAR 2020
ENCODING 8224
SWIDTH 576 0
DWIDTH 8 0
BBX 6 11 1 -1
BITMAP
30
30
FC
FC
30
30
30
30
30
30
30
ENDCHAR
STARTCHAR 2021
ENCODING 8225
SWIDTH 576 0
DWIDTH 8 0
BBX 6 11 1 -1
BITMAP
30
30
FC
FC
30
30
30
FC
FC
30
30
ENDCHAR
STARTCHAR 2022
ENCODING 8226
SWIDTH 576 0
DWIDTH 8 0
BBX 5 5 2 3
BITMAP
70
F0
F8
F0
70
ENDCHAR
STARTCHAR 2023
ENCODING 8227
SWIDTH 576 0
DWIDTH 8 0
BBX 5 6 2 2
BITMAP
80
E0
F8
F0
C0
80
ENDCHAR
STARTCHAR 2024
ENCODING 8228
SWIDTH 576 0
DWIDTH 8 0
BBX 2 3 3 0
BITMAP
C0
C0
C0
ENDCHAR
STARTCHAR 2025
ENCODING 8229
SWIDTH 576 0
DWIDTH 8 0
BBX 5 3 2 0
BITMAP
D8
D8
D8
ENDCHAR
STARTCHAR 2026
ENCODING 8230
SWIDTH 576 0
DWIDTH 8 0
BBX 8 3 0 0
BITMAP
DB
DB
DB
ENDCHAR
STARTCHAR 2027
ENCODING 8231
SWIDTH 576 0
DWIDTH 8 0
BBX 2 2 3 4
BITMAP
C0
C0
ENDCHAR
STARTCHAR 202F
ENCODING 8239
SWIDTH 576 0
DWIDTH 8 0
BBX 0 0 0 0
BITMAP
ENDCHAR
STARTCHAR 2030
ENCODING 8240
SWIDTH 576 0
DWIDTH 8 0
BBX 8 10 0 0
BITMAP
60
90
90
67
38
C0
77
DD
D5
77
ENDCHAR
STARTCHAR 2031
ENCODING 8241
SWIDTH 576 0
DWIDTH 8 0
BBX 8 10 0 0
BITMAP
60
90
90
67
38
C0
7F
B5
B5
7F
ENDCHAR
STARTCHAR 2032
ENCODING 8242
SWIDTH 576 0
DWIDTH 8 0
BBX 3 2 3 8
BITMAP
60
C0
ENDCHAR
STARTCHAR 2033
ENCODING 8243
SWIDTH 576 0
DWIDTH 8 0
BBX 6 3 1 7
BITMAP
6C
58
D0
ENDCHAR
STARTCHAR 2034
ENCODING 8244
SWIDTH 576 0
DWIDTH 8 0
BBX 8 3 0 7
BITMAP
6F
5A
96
ENDCHAR
STARTCHAR 2035
ENCODING 8245
SWIDTH 576 0
DWIDTH 8 0
BBX 3 2 3 8
BITMAP
C0
60
ENDCHAR
STARTCHAR 2036
ENCODING 8246
SWIDTH 576 0
DWIDTH 8 0
BBX 6 3 1 7
BITMAP
D8
68
24
ENDCHAR
STARTCHAR 2037
ENCODING 8247
SWIDTH 576 0
DWIDTH 8 0
BBX 8 3 0 7
BITMAP
DE
6B
2D
ENDCHAR
STARTCHAR 2039
ENCODING 8249
SWIDTH 576 0
DWIDTH 8 0
BBX 3 6 2 1
BITMAP
20
60
C0
C0
60
20
ENDCHAR
STARTCHAR 203A
ENCODING 8250
SWIDTH 576 0
DWIDTH 8 0
BBX 4 6 3 1
BITMAP
80
40
30
20
C0
80
ENDCHAR
STARTCHAR 203C
ENCODING 8252
SWIDTH 576 0
DWIDTH 8 0
BBX 6 10 1 0
BITMAP
CC
CC
CC
CC
CC
CC
C4
CC
CC
CC
ENDCHAR
STARTCHAR 203D
ENCODING 8253
SWIDTH 576 0
DWIDTH 8 0
BBX 5 10 2 0
BITMAP
F0
F8
78
78
70
60
60
00
60
60
ENDCHAR
STARTCHAR 203E
ENCODING 8254
SWIDTH 576 0
DWIDTH 8 0
BBX 8 2 0 9
BITMAP
FF
FF
ENDCHAR
STARTCHAR 203F
ENCODING 8255
SWIDTH 576 0
DWIDTH 8 0
BBX 9 3 0 -3
BITMAP
8080
FF80
7E00
ENDCHAR
STARTCHAR 2044
ENCODING 8260
SWIDTH 576 0
DWIDTH 8 0
BBX 7 11 1 -1
BITMAP
06
0C
08
18
18
10
30
20
60
40
C0
ENDCHAR
STARTCHAR 2045
ENCODING 8261
SWIDTH 576 0
DWIDTH 8 0
BBX 3 13 3 -2
BITMAP
E0
E0
C0
C0
C0
C0
E0
E0
C0
C0
C0
E0
E0
ENDCHAR
STARTCHAR 2046
ENCODING 8262
SWIDTH 576 0
DWIDTH 8 0
BBX 4 13 2 -2
BITMAP
F0
F0
30
30
30
30
F0
F0
30
30
30
F0
F0
ENDCHAR
STARTCHAR 2047
ENCODING 8263
SWIDTH 576 0
DWIDTH 8 0
BBX 8 10 0 0
BITMAP
67
FF
BB
33
66
66
66
00
66
66
ENDCHAR
STARTCHAR 2048
ENCODING 8264
SWIDTH 576 0
DWIDTH 8 0
BBX 8 10 0 0
BITMAP
66
F6
B6
36
66
62
62
00
67
66
ENDCHAR
STARTCHAR 2049
ENCODING 8265
SWIDTH 576 0
DWIDTH 8 0
BBX 7 10 1 0
BITMAP
CE
DE
D6
C6
C4
CC
CC
00
CC
CC
ENDCHAR
STARTCHAR 204B
ENCODING 8267
SWIDTH 576 0
DWIDTH 8 0
BBX 7 12 1 -2
BITMAP
FC
FC
9E
9E
9E
9C
90
90
90
90
90
90
ENDCHAR
STARTCHAR 205F
ENCODING 8287
SWIDTH 576 0
DWIDTH 8 0
BBX 0 0 0 0
BITMAP
ENDCHAR
STARTCHAR 2070
ENCODING 8304
SWIDTH 576 0
DWIDTH 8 0
BBX 4 5 2 8
BITMAP
70
90
B0
90
70
ENDCHAR
STARTCHAR 2074
ENCODING 8308
SWIDTH 576 0
DWIDTH 8 0
BBX 4 5 2 8
BITMAP
30
70
B0
F0
30
ENDCHAR
STARTCHAR 2075
ENCODING 8309
SWIDTH 576 0
DWIDTH 8 0
BBX 4 5 2 8
BITMAP
F0
F0
10
10
F0
ENDCHAR
STARTCHAR 2076
ENCODING 8310
SWIDTH 576 0
DWIDTH 8 0
BBX 5 5 2 8
BITMAP
70
F0
98
90
70
ENDCHAR
STARTCHAR 2077
ENCODING 8311
SWIDTH 576 0
DWIDTH 8 0
BBX 4 5 2 8
BITMAP
F0
10
20
60
40
ENDCHAR
STARTCHAR 2078
ENCODING 8312
SWIDTH 576 0
DWIDTH 8 0
BBX 4 5 2 8
BITMAP
F0
60
90
90
F0
ENDCHAR
STARTCHAR 2079
ENCODING 8313
SWIDTH 576 0
DWIDTH 8 0
BBX 4 5 2 8
BITMAP
F0
90
F0
10
F0
ENDCHAR
STARTCHAR 207A
ENCODING 8314
SWIDTH 576 0
DWIDTH 8 0
BBX 5 4 2 5
BITMAP
20
F8
20
20
ENDCHAR
STARTCHAR 207B
ENCODING 8315
SWIDTH 576 0
DWIDTH 8 0
BBX 5 1 2 6
BITMAP
F8
ENDCHAR
STARTCHAR 207C
ENCODING 8316
SWIDTH 576 0
DWIDTH 8 0
BBX 4 3 2 6
BITMAP
F0
00
F0
ENDCHAR
STARTCHAR 207D
ENCODING 8317
SWIDTH 576 0
DWIDTH 8 0
BBX 2 7 3 4
BITMAP
40
C0
80
80
80
C0
40
ENDCHAR
STARTCHAR 207E
ENCODING 8318
SWIDTH 576 0
DWIDTH 8 0
BBX 2 7 3 4
BITMAP
80
40
40
40
40
40
80
ENDCHAR
STARTCHAR 208A
ENCODING 8330
SWIDTH 576 0
DWIDTH 8 0
BBX 5 4 2 0
BITMAP
20
F8
20
20
ENDCHAR
STARTCHAR 208B
ENCODING 8331
SWIDTH 576 0
DWIDTH 8 0
BBX 5 1 2 2
BITMAP
F8
ENDCHAR
STARTCHAR 208C
ENCODING 8332
SWIDTH 576 0
DWIDTH 8 0
BBX 4 3 2 1
BITMAP
F0
00
F0
ENDCHAR
STARTCHAR 208D
ENCODING 8333
SWIDTH 576 0
DWIDTH 8 0
BBX 2 7 3 -1
BITMAP
40
C0
80
80
80
C0
40
ENDCHAR
STARTCHAR 208E
ENCODING 8334
SWIDTH 576 0
DWIDTH 8 0
BBX 2 7 3 -1
BITMAP
80
40
40
40
40
40
80
ENDCHAR
STARTCHAR 20A0
ENCODING 8352
SWIDTH 576 0
DWIDTH 8 0
BBX 8 10 0 0
BITMAP
70
F0
CF
8F
8C
CF
7F
3C
0F
0F
ENDCHAR
STARTCHAR 20A1
ENCODING 8353
SWIDTH 576 0
DWIDTH 8 0
BBX 7 12 1 -1
BITMAP
0A
3E
76
D4
D4
D8
E8
E8
EA
7E
7C
50
ENDCHAR
STARTCHAR 20A2
ENCODING 8354
SWIDTH 576 0
DWIDTH 8 0
BBX 8 10 0 0
BITMAP
1E
7E
60
6B
EF
EC
68
6A
7E
1E
ENDCHAR
STARTCHAR 20A3
ENCODING 8355
SWIDTH 576 0
DWIDTH 8 0
BBX 8 10 0 0
BITMAP
7F
7F
70
70
7E
7E
70
F8
70
70
ENDCHAR
STARTCHAR 20A4
ENCODING 8356
SWIDTH 576 0
DWIDTH 8 0
BBX 7 10 1 0
BITMAP
3C
7C
60
FC
FC
FC
FC
60
FE
FE
ENDCHAR
STARTCHAR 20A5
ENCODING 8357
SWIDTH 576 0
DWIDTH 8 0
BBX 8 10 0 -1
BITMAP
04
F6
FF
DB
D9
D9
D9
D9
D9
20
ENDCHAR
STARTCHAR 20A6
ENCODING 8358
SWIDTH 576 0
DWIDTH 8 0
BBX 8 10 0 0
BITMAP
F7
F7
F7
FF
FF
FF
FF
EF
EF
E7
ENDCHAR
STARTCHAR 20A7
ENCODING 8359
SWIDTH 576 0
DWIDTH 8 0
BBX 8 10 0 0
BITMAP
E8
F8
BF
BF
EC
EF
8B
89
8F
8F
ENDCHAR
STARTCHAR 20A8
ENCODING 8360
SWIDTH 576 0
DWIDTH 8 0
BBX 8 10 0 0
BITMAP
F0
F0
D7
D7
FC
F7
D7
D9
DF
DF
ENDCHAR
STARTCHAR 20A9
ENCODING 8361
SWIDTH 576 0
DWIDTH 8 0
BBX 8 10 0 0
BITMAP
D9
FF
5B
FF
5F
56
56
66
66
66
ENDCHAR
STARTCHAR 20AA
ENCODING 8362
SWIDTH 576 0
DWIDTH 8 0
BBX 8 10 0 0
BITMAP
F9
F9
CD
C5
F5
F5
D1
D1
DF
CF
ENDCHAR
STARTCHAR 20AB
ENCODING 8363
SWIDTH 576 0
DWIDTH 8 0
BBX 7 14 2 -3
BITMAP
0C
3E
3E
7C
FC
CC
CC
CC
CC
FC
7C
00
7C
7C
ENDCHAR
STARTCHAR 20AC
ENCODING 8364
SWIDTH 576 0
DWIDTH 8 0
BBX 7 10 0 0
BITMAP
1E
3E
7C
FC
60
F8
F8
32
3E
1E
ENDCHAR
STARTCHAR 20AD
ENCODING 8365
SWIDTH 576 0
DWIDTH 8 0
BBX 8 10 0 0
BITMAP
67
6E
6C
78
FE
78
7C
6C
66
67
ENDCHAR
STARTCHAR 20AE
ENCODING 8366
SWIDTH 576 0
DWIDTH 8 0
BBX 8 10 0 0
BITMAP
FF
FF
18
1C
18
3C
18
38
18
18
ENDCHAR
STARTCHAR 20AF
ENCODING 8367
SWIDTH 576 0
DWIDTH 8 0
BBX 8 13 0 -3
BITMAP
70
68
28
28
29
2B
4B
CB
FB
F7
04
04
04
ENDCHAR
STARTCHAR 20B0
ENCODING 8368
SWIDTH 576 0
DWIDTH 8 0
BBX 8 10 0 0
BITMAP
0E
0F
1B
0B
7E
FF
0B
03
07
06
ENDCHAR
STARTCHAR 20B1
ENCODING 8369
SWIDTH 576 0
DWIDTH 8 0
BBX 8 10 0 0
BITMAP
7E
7F
FF
FF
7E
7E
60
60
60
60
ENDCHAR
STARTCHAR 20B2
ENCODING 8370
SWIDTH 576 0
DWIDTH 8 0
BBX 8 13 0 -1
BITMAP
08
08
1E
7F
68
C8
CB
CB
CB
6B
7F
3E
08
ENDCHAR
STARTCHAR 20B3
ENCODING 8371
SWIDTH 576 0
DWIDTH 8 0
BBX 8 10 0 0
BITMAP
18
1C
3C
FF
FF
66
FF
FF
63
C3
ENDCHAR
STARTCHAR 20B4
ENCODING 8372
SWIDTH 576 0
DWIDTH 8 0
BBX 8 10 0 0
BITMAP
3C
7E
FF
FF
3E
FF
FF
61
7E
3E
ENDCHAR
STARTCHAR 20B5
ENCODING 8373
SWIDTH 576 0
DWIDTH 8 0
BBX 8 13 0 -2
BITMAP
04
1F
3F
75
E4
E4
E4
E4
75
3F
1F
04
04
ENDCHAR
STARTCHAR 20B7
ENCODING 8375
SWIDTH 576 0
DWIDTH 8 0
BBX 8 12 0 -2
BITMAP
0F
3F
31
30
3C
1E
07
7B
6E
FE
B8
B0
ENDCHAR
STARTCHAR 20B8
ENCODING 8376
SWIDTH 576 0
DWIDTH 8 0
BBX 7 10 1 0
BITMAP
FE
FE
FE
FE
30
30
30
30
30
30
ENDCHAR
STARTCHAR 20B9
ENCODING 8377
SWIDTH 576 0
DWIDTH 8 0
BBX 7 10 1 0
BITMAP
FE
FC
FE
FC
F8
F0
30
18
18
1C
ENDCHAR
STARTCHAR 2116
ENCODING 8470
SWIDTH 576 0
DWIDTH 8 0
BBX 8 10 0 0
BITMAP
D2
D7
D5
D5
F7
B2
B7
B7
B0
90
ENDCHAR
STARTCHAR 2122
ENCODING 8482
SWIDTH 576 0
DWIDTH 8 0
BBX 8 4 0 6
BITMAP
EB
4D
4D
49
ENDCHAR
STARTCHAR 2126
ENCODING 8486
SWIDTH 576 0
DWIDTH 8 0
BBX 7 10 1 0
BITMAP
78
FC
CC
C6
C6
C6
CC
CC
EE
EE
ENDCHAR
STARTCHAR 2150
ENCODING 8528
SWIDTH 576 0
DWIDTH 8 0
BBX 8 14 0 -2
BITMAP
20
E0
20
20
20
F8
0F
F0
1F
02
02
04
04
0C
ENDCHAR
STARTCHAR 2151
ENCODING 8529
SWIDTH 576 0
DWIDTH 8 0
BBX 8 14 0 -2
BITMAP
20
E0
20
20
20
F8
0F
78
8E
1B
1B
0F
03
0E
ENDCHAR
STARTCHAR 2153
ENCODING 8531
SWIDTH 576 0
DWIDTH 8 0
BBX 8 14 0 -2
BITMAP
20
E0
20
20
20
F8
0F
70
8E
03
06
03
03
1E
ENDCHAR
STARTCHAR 2154
ENCODING 8532
SWIDTH 576 0
DWIDTH 8 0
BBX 8 14 0 -2
BITMAP
F0
98
10
20
40
F8
0F
70
8E
03
06
03
03
1E
ENDCHAR
STARTCHAR 2155
ENCODING 8533
SWIDTH 576 0
DWIDTH 8 0
BBX 8 14 0 -2
BITMAP
20
E0
20
20
20
F8
0F
F0
0E
08
0E
03
03
1E
ENDCHAR
STARTCHAR 2156
ENCODING 8534
SWIDTH 576 0
DWIDTH 8 0
BBX 8 14 0 -2
BITMAP
F0
98
10
20
40
F8
0F
F0
0E
08
0E
03
03
1E
ENDCHAR
STARTCHAR 2157
ENCODING 8535
SWIDTH 576 0
DWIDTH 8 0
BBX 8 14 0 -2
BITMAP
F0
18
18
60
18
F1
0E
F0
0E
08
0E
03
03
1E
ENDCHAR
STARTCHAR 2158
ENCODING 8536
SWIDTH 576 0
DWIDTH 8 0
BBX 8 14 0 -2
BITMAP
30
30
50
90
F8
10
07
F8
0E
08
0E
03
03
1E
ENDCHAR
STARTCHAR 2159
ENCODING 8537
SWIDTH 576 0
DWIDTH 8 0
BBX 8 14 0 -2
BITMAP
20
E0
20
20
20
F8
0F
70
8E
08
1E
19
19
0E
ENDCHAR
STARTCHAR 215A
ENCODING 8538
SWIDTH 576 0
DWIDTH 8 0
BBX 8 14 0 -2
BITMAP
F0
C0
F0
18
18
F1
0F
70
8E
08
1E
19
19
0E
ENDCHAR
STARTCHAR 215B
ENCODING 8539
SWIDTH 576 0
DWIDTH 8 0
BBX 8 14 0 -2
BITMAP
20
E0
20
20
20
F8
0F
70
8E
1B
0E
1B
1B
0E
ENDCHAR
STARTCHAR 215C
ENCODING 8540
SWIDTH 576 0
DWIDTH 8 0
BBX 8 14 0 -2
BITMAP
F0
18
18
60
18
F1
0F
70
8E
1B
0E
1B
1B
0E
ENDCHAR
STARTCHAR 215D
ENCODING 8541
SWIDTH 576 0
DWIDTH 8 0
BBX 8 14 0 -2
BITMAP
F0
C0
F0
18
18
F1
0F
70
8E
1B
0E
1B
1B
0E
ENDCHAR
STARTCHAR 215E
ENCODING 8542
SWIDTH 576 0
DWIDTH 8 0
BBX 8 14 0 -2
BITMAP
F8
10
30
20
20
60
07
78
8E
1B
0E
1B
1B
0E
ENDCHAR
STARTCHAR 215F
ENCODING 8543
SWIDTH 576 0
DWIDTH 8 0
BBX 8 8 0 4
BITMAP
E0
20
20
20
20
F8
0F
F0
ENDCHAR
STARTCHAR 2189
ENCODING 8585
SWIDTH 576 0
DWIDTH 8 0
BBX 8 14 0 -2
BITMAP
70
D8
D8
F8
D8
71
0F
70
8E
03
06
03
03
1E
ENDCHAR
STARTCHAR 2190
ENCODING 8592
SWIDTH 576 0
DWIDTH 8 0
BBX 8 5 0 1
BITMAP
20
7F
FF
60
20
ENDCHAR
STARTCHAR 2191
ENCODING 8593
SWIDTH 576 0
DWIDTH 8 0
BBX 5 8 2 0
BITMAP
60
F0
F8
60
60
60
60
60
ENDCHAR
STARTCHAR 2192
ENCODING 8594
SWIDTH 576 0
DWIDTH 8 0
BBX 8 5 0 1
BITMAP
06
FF
FF
02
04
ENDCHAR
STARTCHAR 2193
ENCODING 8595
SWIDTH 576 0
DWIDTH 8 0
BBX 5 8 2 0
BITMAP
60
60
60
60
60
F8
F0
60
ENDCHAR
STARTCHAR 2194
ENCODING 8596
SWIDTH 576 0
DWIDTH 8 0
BBX 8 5 0 1
BITMAP
26
7F
FF
62
24
ENDCHAR
STARTCHAR 2195
ENCODING 8597
SWIDTH 576 0
DWIDTH 8 0
BBX 5 8 2 0
BITMAP
60
F0
F8
60
60
F8
F0
60
ENDCHAR
STARTCHAR 2196
ENCODING 8598
SWIDTH 576 0
DWIDTH 8 0
BBX 6 7 1 0
BITMAP
70
F0
E0
B0
18
0C
04
ENDCHAR
STARTCHAR 2197
ENCODING 8599
SWIDTH 576 0
DWIDTH 8 0
BBX 6 7 1 0
BITMAP
1C
1C
0C
1C
30
60
C0
ENDCHAR
STARTCHAR 2198
ENCODING 8600
SWIDTH 576 0
DWIDTH 8 0
BBX 6 6 1 0
BITMAP
C0
60
34
1C
0C
1C
ENDCHAR
STARTCHAR 2199
ENCODING 8601
SWIDTH 576 0
DWIDTH 8 0
BBX 6 6 1 0
BITMAP
04
0C
98
B0
E0
F0
ENDCHAR
STARTCHAR 219A
ENCODING 8602
SWIDTH 576 0
DWIDTH 8 0
BBX 8 5 0 1
BITMAP
22
7F
FF
6C
28
ENDCHAR
STARTCHAR 219B
ENCODING 8603
SWIDTH 576 0
DWIDTH 8 0
BBX 8 5 0 1
BITMAP
1E
FF
FF
62
24
ENDCHAR
STARTCHAR 219C
ENCODING 8604
SWIDTH 576 0
DWIDTH 8 0
BBX 8 4 0 3
BITMAP
76
FF
FA
F8
ENDCHAR
STARTCHAR 219D
ENCODING 8605
SWIDTH 576 0
DWIDTH 8 0
BBX 7 4 1 3
BITMAP
5C
FE
BE
1A
ENDCHAR
STARTCHAR 219E
ENCODING 8606
SWIDTH 576 0
DWIDTH 8 0
BBX 8 5 0 1
BITMAP
28
7F
FF
78
28
ENDCHAR
STARTCHAR 219F
ENCODING 8607
SWIDTH 576 0
DWIDTH 8 0
BBX 5 8 2 0
BITMAP
60
F0
F8
70
F8
60
60
60
ENDCHAR
STARTCHAR 21A0
ENCODING 8608
SWIDTH 576 0
DWIDTH 8 0
BBX 8 5 0 1
BITMAP
1E
FF
FF
1A
14
ENDCHAR
STARTCHAR 21A1
ENCODING 8609
SWIDTH 576 0
DWIDTH 8 0
BBX 5 8 2 0
BITMAP
60
60
60
F8
70
F8
F0
60
ENDCHAR
STARTCHAR 21A2
ENCODING 8610
SWIDTH 576 0
DWIDTH 8 0
BBX 8 5 0 1
BITMAP
23
7E
FE
63
21
ENDCHAR
STARTCHAR 21A3
ENCODING 8611
SWIDTH 576 0
DWIDTH 8 0
BBX 8 5 0 1
BITMAP
C6
7F
3F
C2
44
ENDCHAR
STARTCHAR 21A4
ENCODING 8612
SWIDTH 576 0
DWIDTH 8 0
BBX 8 5 0 1
BITMAP
21
7F
FF
61
21
ENDCHAR
STARTCHAR 21A5
ENCODING 8613
SWIDTH 576 0
DWIDTH 8 0
BBX 5 8 2 0
BITMAP
60
F0
F8
60
60
60
60
F8
ENDCHAR
STARTCHAR 21A6
ENCODING 8614
SWIDTH 576 0
DWIDTH 8 0
BBX 8 5 0 1
BITMAP
C6
FF
FF
C2
C4
ENDCHAR
STARTCHAR 21A7
ENCODING 8615
SWIDTH 576 0
DWIDTH 8 0
BBX 5 8 2 0
BITMAP
F8
F8
60
60
60
F8
F0
60
ENDCHAR
STARTCHAR 21A8
ENCODING 8616
SWIDTH 576 0
DWIDTH 8 0
BBX 5 8 2 0
BITMAP
60
F0
F8
60
F8
70
20
F8
ENDCHAR
STARTCHAR 21A9
ENCODING 8617
SWIDTH 576 0
DWIDTH 8 0
BBX 8 6 0 1
BITMAP
02
23
7F
FE
60
20
ENDCHAR
STARTCHAR 21AA
ENCODING 8618
SWIDTH 576 0
DWIDTH 8 0
BBX 8 6 0 1
BITMAP
40
46
FF
7F
02
04
ENDCHAR
STARTCHAR 21AB
ENCODING 8619
SWIDTH 576 0
DWIDTH 8 0
BBX 8 6 0 1
BITMAP
06
2F
7F
FE
68
20
ENDCHAR
STARTCHAR 21AC
ENCODING 8620
SWIDTH 576 0
DWIDTH 8 0
BBX 8 6 0 1
BITMAP
70
76
FF
7F
12
04
ENDCHAR
STARTCHAR 21AD
ENCODING 8621
SWIDTH 576 0
DWIDTH 8 0
BBX 8 5 0 1
BITMAP
6E
FF
F7
66
24
ENDCHAR
STARTCHAR 21AE
ENCODING 8622
SWIDTH 576 0
DWIDTH 8 0
BBX 8 6 0 1
BITMAP
08
2E
7F
FF
7A
34
ENDCHAR
STARTCHAR 21AF
ENCODING 8623
SWIDTH 576 0
DWIDTH 8 0
BBX 8 10 0 0
BITMAP
20
62
66
5E
76
46
84
15
0F
0C
ENDCHAR
STARTCHAR 21B0
ENCODING 8624
SWIDTH 576 0
DWIDTH 8 0
BBX 6 10 1 0
BITMAP
20
60
FC
FC
64
04
04
04
04
04
ENDCHAR
STARTCHAR 21B1
ENCODING 8625
SWIDTH 576 0
DWIDTH 8 0
BBX 6 10 1 0
BITMAP
08
18
FC
FC
D8
C0
C0
C0
C0
C0
ENDCHAR
STARTCHAR 21B2
ENCODING 8626
SWIDTH 576 0
DWIDTH 8 0
BBX 6 10 1 0
BITMAP
04
04
04
04
04
64
FC
FC
60
20
ENDCHAR
STARTCHAR 21B3
ENCODING 8627
SWIDTH 576 0
DWIDTH 8 0
BBX 6 10 1 0
BITMAP
C0
C0
C0
C0
C0
D8
FC
FC
18
08
ENDCHAR
STARTCHAR 21B4
ENCODING 8628
SWIDTH 576 0
DWIDTH 8 0
BBX 6 8 1 0
BITMAP
F8
F8
18
18
18
7C
3C
18
ENDCHAR
STARTCHAR 21B5
ENCODING 8629
SWIDTH 576 0
DWIDTH 8 0
BBX 8 7 0 0
BITMAP
01
01
21
7F
FF
60
20
ENDCHAR
STARTCHAR 21B6
ENCODING 8630
SWIDTH 576 0
DWIDTH 8 0
BBX 8 5 0 3
BITMAP
0C
1E
33
F9
70
ENDCHAR
STARTCHAR 21B7
ENCODING 8631
SWIDTH 576 0
DWIDTH 8 0
BBX 8 5 0 2
BITMAP
38
6C
DD
0E
04
ENDCHAR
STARTCHAR 21B8
ENCODING 8632
SWIDTH 576 0
DWIDTH 8 0
BBX 8 8 0 0
BITMAP
FF
38
78
70
58
0C
06
02
ENDCHAR
STARTCHAR 21B9
ENCODING 8633
SWIDTH 576 0
DWIDTH 8 0
BBX 8 9 0 0
BITMAP
D0
FF
FF
F0
D9
0D
FF
FF
09
ENDCHAR
STARTCHAR 21BA
ENCODING 8634
SWIDTH 576 0
DWIDTH 8 0
BBX 8 8 0 0
BITMAP
07
0F
6E
CF
C3
43
7E
3C
ENDCHAR
STARTCHAR 21BB
ENCODING 8635
SWIDTH 576 0
DWIDTH 8 0
BBX 8 8 0 0
BITMAP
E0
F0
72
53
43
63
7E
3C
ENDCHAR
STARTCHAR 21BC
ENCODING 8636
SWIDTH 576 0
DWIDTH 8 0
BBX 8 3 0 3
BITMAP
20
7F
FF
ENDCHAR
STARTCHAR 21BD
ENCODING 8637
SWIDTH 576 0
DWIDTH 8 0
BBX 8 4 0 1
BITMAP
FF
FF
60
20
ENDCHAR
STARTCHAR 21BE
ENCODING 8638
SWIDTH 576 0
DWIDTH 8 0
BBX 4 8 3 0
BITMAP
C0
E0
F0
C0
C0
C0
C0
C0
ENDCHAR
STARTCHAR 21BF
ENCODING 8639
SWIDTH 576 0
DWIDTH 8 0
BBX 3 8 2 0
BITMAP
60
E0
E0
60
60
60
60
60
ENDCHAR
STARTCHAR 21C0
ENCODING 8640
SWIDTH 576 0
DWIDTH 8 0
BBX 8 3 0 3
BITMAP
06
FF
FF
ENDCHAR
STARTCHAR 21C1
ENCODING 8641
SWIDTH 576 0
DWIDTH 8 0
BBX 8 4 0 1
BITMAP
FF
FF
02
04
ENDCHAR
STARTCHAR 21C2
ENCODING 8642
SWIDTH 576 0
DWIDTH 8 0
BBX 4 8 3 0
BITMAP
C0
C0
C0
C0
C0
F0
E0
C0
ENDCHAR
STARTCHAR 21C3
ENCODING 8643
SWIDTH 576 0
DWIDTH 8 0
BBX 3 8 2 0
BITMAP
60
60
60
60
60
E0
E0
60
ENDCHAR
STARTCHAR 21C4
ENCODING 8644
SWIDTH 576 0
DWIDTH 8 0
BBX 8 9 0 0
BITMAP
04
02
FF
FF
26
7F
FF
60
20
ENDCHAR
STARTCHAR 21C5
ENCODING 8645
SWIDTH 576 0
DWIDTH 8 0
BBX 8 8 0 0
BITMAP
26
76
AE
26
26
3F
2F
26
ENDCHAR
STARTCHAR 21C6
ENCODING 8646
SWIDTH 576 0
DWIDTH 8 0
BBX 8 9 0 0
BITMAP
20
60
FF
7F
26
FF
FF
02
04
ENDCHAR
STARTCHAR 21C7
ENCODING 8647
SWIDTH 576 0
DWIDTH 8 0
BBX 8 9 0 0
BITMAP
20
60
FF
7F
20
7F
FF
60
20
ENDCHAR
STARTCHAR 21C8
ENCODING 8648
SWIDTH 576 0
DWIDTH 8 0
BBX 8 8 0 0
BITMAP
26
7F
AF
26
26
26
26
26
ENDCHAR
STARTCHAR 21C9
ENCODING 8649
SWIDTH 576 0
DWIDTH 8 0
BBX 8 9 0 0
BITMAP
04
02
FF
FF
06
FF
FF
02
04
ENDCHAR
STARTCHAR 21CA
ENCODING 8650
SWIDTH 576 0
DWIDTH 8 0
BBX 8 8 0 0
BITMAP
26
26
26
26
26
AF
7F
26
ENDCHAR
STARTCHAR 21CB
ENCODING 8651
SWIDTH 576 0
DWIDTH 8 0
BBX 8 9 0 0
BITMAP
20
60
FF
FF
00
FF
FF
02
04
ENDCHAR
STARTCHAR 21CC
ENCODING 8652
SWIDTH 576 0
DWIDTH 8 0
BBX 8 9 0 0
BITMAP
04
02
FF
FF
00
FF
FF
60
20
ENDCHAR
STARTCHAR 21CD
ENCODING 8653
SWIDTH 576 0
DWIDTH 8 0
BBX 8 5 0 2
BITMAP
22
7F
C4
7F
28
ENDCHAR
STARTCHAR 21CE
ENCODING 8654
SWIDTH 576 0
DWIDTH 8 0
BBX 8 5 0 1
BITMAP
2C
7E
C9
7E
2C
ENDCHAR
STARTCHAR 21CF
ENCODING 8655
SWIDTH 576 0
DWIDTH 8 0
BBX 8 5 0 2
BITMAP
0E
FF
11
FF
26
ENDCHAR
STARTCHAR 21D0
ENCODING 8656
SWIDTH 576 0
DWIDTH 8 0
BBX 8 5 0 2
BITMAP
20
7F
C0
7F
20
ENDCHAR
STARTCHAR 21D1
ENCODING 8657
SWIDTH 576 0
DWIDTH 8 0
BBX 5 8 2 0
BITMAP
60
F0
D8
50
50
50
50
50
ENDCHAR
STARTCHAR 21D2
ENCODING 8658
SWIDTH 576 0
DWIDTH 8 0
BBX 8 5 0 2
BITMAP
06
FF
01
FF
06
ENDCHAR
STARTCHAR 21D3
ENCODING 8659
SWIDTH 576 0
DWIDTH 8 0
BBX 5 8 2 0
BITMAP
50
50
50
50
50
D8
F0
60
ENDCHAR
STARTCHAR 21D4
ENCODING 8660
SWIDTH 576 0
DWIDTH 8 0
BBX 8 5 0 2
BITMAP
26
7F
C1
7F
26
ENDCHAR
STARTCHAR 21D5
ENCODING 8661
SWIDTH 576 0
DWIDTH 8 0
BBX 5 8 2 0
BITMAP
60
F0
D8
50
50
D8
F0
60
ENDCHAR
STARTCHAR 21D6
ENCODING 8662
SWIDTH 576 0
DWIDTH 8 0
BBX 6 7 1 0
BITMAP
60
E0
A0
D0
28
14
08
ENDCHAR
STARTCHAR 21D7
ENCODING 8663
SWIDTH 576 0
DWIDTH 8 0
BBX 7 7 1 0
BITMAP
1C
1E
16
2E
50
A0
60
ENDCHAR
STARTCHAR 21D8
ENCODING 8664
SWIDTH 576 0
DWIDTH 8 0
BBX 7 6 1 0
BITMAP
60
90
4E
26
16
1C
ENDCHAR
STARTCHAR 21D9
ENCODING 8665
SWIDTH 576 0
DWIDTH 8 0
BBX 6 6 1 0
BITMAP
08
14
A8
D0
A0
E0
ENDCHAR
STARTCHAR 21DA
ENCODING 8666
SWIDTH 576 0
DWIDTH 8 0
BBX 8 6 0 1
BITMAP
20
7F
40
FF
7F
20
ENDCHAR
STARTCHAR 21DB
ENCODING 8667
SWIDTH 576 0
DWIDTH 8 0
BBX 8 6 0 1
BITMAP
04
FE
03
FF
FE
04
ENDCHAR
STARTCHAR 21DC
ENCODING 8668
SWIDTH 576 0
DWIDTH 8 0
BBX 8 5 0 1
BITMAP
24
7D
FF
6A
20
ENDCHAR
STARTCHAR 21DD
ENCODING 8669
SWIDTH 576 0
DWIDTH 8 0
BBX 8 5 0 1
BITMAP
16
B7
FF
4A
04
ENDCHAR
STARTCHAR 21E0
ENCODING 8672
SWIDTH 576 0
DWIDTH 8 0
BBX 8 5 0 1
BITMAP
20
75
F5
60
20
ENDCHAR
STARTCHAR 21E1
ENCODING 8673
SWIDTH 576 0
DWIDTH 8 0
BBX 5 8 2 0
BITMAP
60
F8
F0
00
60
60
60
60
ENDCHAR
STARTCHAR 21E2
ENCODING 8674
SWIDTH 576 0
DWIDTH 8 0
BBX 8 5 0 1
BITMAP
06
D7
D7
02
04
ENDCHAR
STARTCHAR 21E3
ENCODING 8675
SWIDTH 576 0
DWIDTH 8 0
BBX 5 8 2 0
BITMAP
60
60
60
60
00
F0
F8
60
ENDCHAR
STARTCHAR 21E4
ENCODING 8676
SWIDTH 576 0
DWIDTH 8 0
BBX 8 5 0 1
BITMAP
D0
FF
FF
F0
D0
ENDCHAR
STARTCHAR 21E5
ENCODING 8677
SWIDTH 576 0
DWIDTH 8 0
BBX 8 5 0 1
BITMAP
09
FF
FF
0D
09
ENDCHAR
STARTCHAR 21E6
ENCODING 8678
SWIDTH 576 0
DWIDTH 8 0
BBX 8 7 0 0
BITMAP
20
20
7F
81
7F
20
20
ENDCHAR
STARTCHAR 21E7
ENCODING 8679
SWIDTH 576 0
DWIDTH 8 0
BBX 6 8 1 0
BITMAP
30
48
EC
28
28
28
28
30
ENDCHAR
STARTCHAR 21E8
ENCODING 8680
SWIDTH 576 0
DWIDTH 8 0
BBX 8 7 0 0
BITMAP
04
02
FE
81
FE
02
04
ENDCHAR
STARTCHAR 21E9
ENCODING 8681
SWIDTH 576 0
DWIDTH 8 0
BBX 6 8 1 0
BITMAP
30
28
28
28
28
AC
48
30
ENDCHAR
STARTCHAR 21EB
ENCODING 8683
SWIDTH 576 0
DWIDTH 8 0
BBX 6 8 1 0
BITMAP
30
48
EC
28
28
28
CC
7C
ENDCHAR
STARTCHAR 21EC
ENCODING 8684
SWIDTH 576 0
DWIDTH 8 0
BBX 6 8 1 0
BITMAP
10
28
FC
28
28
28
6C
7C
ENDCHAR
STARTCHAR 21ED
ENCODING 8685
SWIDTH 576 0
DWIDTH 8 0
BBX 6 8 1 0
BITMAP
30
58
EC
28
28
28
DC
7C
ENDCHAR
STARTCHAR 21EE
ENCODING 8686
SWIDTH 576 0
DWIDTH 8 0
BBX 6 8 1 0
BITMAP
30
58
F4
EC
28
28
28
30
ENDCHAR
STARTCHAR 21EF
ENCODING 8687
SWIDTH 576 0
DWIDTH 8 0
BBX 6 8 1 0
BITMAP
30
58
F4
EC
28
28
CC
7C
ENDCHAR
STARTCHAR 21F0
ENCODING 8688
SWIDTH 576 0
DWIDTH 8 0
BBX 8 6 0 1
BITMAP
C4
A2
BD
81
BE
C4
ENDCHAR
STARTCHAR 21F1
ENCODING 8689
SWIDTH 576 0
DWIDTH 8 0
BBX 8 8 0 0
BITMAP
FF
98
B8
B8
BC
8E
86
83
ENDCHAR
STARTCHAR 21F2
ENCODING 8690
SWIDTH 576 0
DWIDTH 8 0
BBX 8 8 0 0
BITMAP
C1
61
31
1F
0F
1D
01
FF
ENDCHAR
STARTCHAR 21F3
ENCODING 8691
SWIDTH 576 0
DWIDTH 8 0
BBX 6 8 1 0
BITMAP
10
28
EC
28
28
EC
28
10
ENDCHAR
STARTCHAR 21F4
ENCODING 8692
SWIDTH 576 0
DWIDTH 8 0
BBX 8 5 0 2
BITMAP
34
7A
FF
FF
36
ENDCHAR
STARTCHAR 21F5
ENCODING 8693
SWIDTH 576 0
DWIDTH 8 0
BBX 8 8 0 0
BITMAP
26
2F
3F
26
26
AE
76
36
ENDCHAR
STARTCHAR 21F6
ENCODING 8694
SWIDTH 576 0
DWIDTH 8 0
BBX 8 12 0 -2
BITMAP
04
02
FF
FF
06
FF
FF
06
FF
FF
02
04
ENDCHAR
STARTCHAR 21F7
ENCODING 8695
SWIDTH 576 0
DWIDTH 8 0
BBX 8 5 0 1
BITMAP
2C
7F
FF
6C
2C
ENDCHAR
STARTCHAR 21F8
ENCODING 8696
SWIDTH 576 0
DWIDTH 8 0
BBX 8 5 0 1
BITMAP
16
FF
FF
12
14
ENDCHAR
STARTCHAR 21F9
ENCODING 8697
SWIDTH 576 0
DWIDTH 8 0
BBX 8 5 0 1
BITMAP
3E
7F
FF
7A
3C
ENDCHAR
STARTCHAR 21FA
ENCODING 8698
SWIDTH 576 0
DWIDTH 8 0
BBX 8 5 0 1
BITMAP
2A
7F
FF
6A
2A
ENDCHAR
STARTCHAR 21FB
ENCODING 8699
SWIDTH 576 0
DWIDTH 8 0
BBX 8 5 0 1
BITMAP
7E
FF
FF
7A
7C
ENDCHAR
STARTCHAR 21FC
ENCODING 8700
SWIDTH 576 0
DWIDTH 8 0
BBX 8 5 0 1
BITMAP
3C
7F
FF
7A
3C
ENDCHAR
STARTCHAR 21FD
ENCODING 8701
SWIDTH 576 0
DWIDTH 8 0
BBX 8 6 0 1
BITMAP
20
20
7F
BF
60
20
ENDCHAR
STARTCHAR 21FE
ENCODING 8702
SWIDTH 576 0
DWIDTH 8 0
BBX 8 6 0 1
BITMAP
04
02
FD
FD
02
04
ENDCHAR
STARTCHAR 21FF
ENCODING 8703
SWIDTH 576 0
DWIDTH 8 0
BBX 8 6 0 1
BITMAP
24
22
7D
BD
62
24
ENDCHAR
STARTCHAR 2200
ENCODING 8704
SWIDTH 576 0
DWIDTH 8 0
BBX 8 10 0 0
BITMAP
C3
63
7E
7E
66
36
34
3C
1C
1C
ENDCHAR
STARTCHAR 2201
ENCODING 8705
SWIDTH 576 0
DWIDTH 8 0
BBX 8 10 0 0
BITMAP
3C
7F
63
E0
E0
E0
E0
63
7F
3C
ENDCHAR
STARTCHAR 2202
ENCODING 8706
SWIDTH 576 0
DWIDTH 8 0
BBX 6 10 1 0
BITMAP
38
64
04
04
74
CC
CC
CC
C8
70
ENDCHAR
STARTCHAR 2203
ENCODING 8707
SWIDTH 576 0
DWIDTH 8 0
BBX 6 10 1 0
BITMAP
FC
FC
0C
0C
FC
FC
0C
0C
FC
FC
ENDCHAR
STARTCHAR 2204
ENCODING 8708
SWIDTH 576 0
DWIDTH 8 0
BBX 6 12 1 -1
BITMAP
18
FC
FC
1C
3C
FC
FC
2C
6C
FC
FC
C0
ENDCHAR
STARTCHAR 2205
ENCODING 8709
SWIDTH 576 0
DWIDTH 8 0
BBX 8 7 0 1
BITMAP
3F
66
4F
59
73
62
FC
ENDCHAR
STARTCHAR 2206
ENCODING 8710
SWIDTH 576 0
DWIDTH 8 0
BBX 8 10 0 0
BITMAP
18
1C
3C
3C
36
66
66
63
FF
FF
ENDCHAR
STARTCHAR 2207
ENCODING 8711
SWIDTH 576 0
DWIDTH 8 0
BBX 8 10 0 0
BITMAP
FF
FF
63
66
66
36
3C
3C
1C
18
ENDCHAR
STARTCHAR 2208
ENCODING 8712
SWIDTH 576 0
DWIDTH 8 0
BBX 7 10 1 0
BITMAP
3E
7E
C0
80
FE
FE
80
C0
7E
3E
ENDCHAR
STARTCHAR 2209
ENCODING 8713
SWIDTH 576 0
DWIDTH 8 0
BBX 7 12 1 -1
BITMAP
06
3E
7E
C8
98
FE
FE
B0
F0
7E
7E
40
ENDCHAR
STARTCHAR 220A
ENCODING 8714
SWIDTH 576 0
DWIDTH 8 0
BBX 7 7 1 1
BITMAP
7E
FE
C0
FE
FE
FE
7E
ENDCHAR
STARTCHAR 220B
ENCODING 8715
SWIDTH 576 0
DWIDTH 8 0
BBX 7 10 1 0
BITMAP
F8
FC
04
06
FE
FE
06
0C
FC
F8
ENDCHAR
STARTCHAR 220C
ENCODING 8716
SWIDTH 576 0
DWIDTH 8 0
BBX 7 12 1 -1
BITMAP
0C
F8
FC
1C
36
FE
FE
66
6C
FC
F8
80
ENDCHAR
STARTCHAR 220D
ENCODING 8717
SWIDTH 576 0
DWIDTH 8 0
BBX 7 7 1 1
BITMAP
F8
FC
06
FE
FE
FC
F8
ENDCHAR
STARTCHAR 220E
ENCODING 8718
SWIDTH 576 0
DWIDTH 8 0
BBX 5 9 2 0
BITMAP
F8
F8
F8
F8
F8
F8
F8
F8
F8
ENDCHAR
STARTCHAR 220F
ENCODING 8719
SWIDTH 576 0
DWIDTH 8 0
BBX 6 13 1 -3
BITMAP
FC
FC
C4
C4
C4
C4
C4
C4
C4
C4
C4
C4
C4
ENDCHAR
STARTCHAR 2210
ENCODING 8720
SWIDTH 576 0
DWIDTH 8 0
BBX 6 13 1 -3
BITMAP
C4
C4
C4
C4
C4
C4
C4
C4
C4
C4
C4
C4
FC
ENDCHAR
STARTCHAR 2211
ENCODING 8721
SWIDTH 576 0
DWIDTH 8 0
BBX 6 13 1 -3
BITMAP
FC
FC
60
60
30
10
18
10
30
60
40
FC
FC
ENDCHAR
STARTCHAR 2212
ENCODING 8722
SWIDTH 576 0
DWIDTH 8 0
BBX 8 2 0 4
BITMAP
FF
FF
ENDCHAR
STARTCHAR 2213
ENCODING 8723
SWIDTH 576 0
DWIDTH 8 0
BBX 7 9 1 0
BITMAP
FE
FE
30
30
30
FE
FE
30
30
ENDCHAR
STARTCHAR 2217
ENCODING 8727
SWIDTH 576 0
DWIDTH 8 0
BBX 7 7 1 1
BITMAP
10
94
DE
30
FE
94
10
ENDCHAR
STARTCHAR 2218
ENCODING 8728
SWIDTH 576 0
DWIDTH 8 0
BBX 4 5 2 3
BITMAP
70
90
90
90
70
ENDCHAR
STARTCHAR 221A
ENCODING 8730
SWIDTH 576 0
DWIDTH 8 0
BBX 8 13 0 0
BITMAP
03
03
02
02
06
06
E4
64
2C
38
18
18
18
ENDCHAR
STARTCHAR 221B
ENCODING 8731
SWIDTH 576 0
DWIDTH 8 0
BBX 8 13 0 0
BITMAP
7B
0B
32
0A
0E
F6
24
E4
2C
38
38
18
18
ENDCHAR
STARTCHAR 221C
ENCODING 8732
SWIDTH 576 0
DWIDTH 8 0
BBX 8 13 0 0
BITMAP
33
53
52
FA
16
06
E4
64
2C
38
18
18
18
ENDCHAR
STARTCHAR 221D
ENCODING 8733
SWIDTH 576 0
DWIDTH 8 0
BBX 6 5 1 2
BITMAP
74
DC
88
DC
74
ENDCHAR
STARTCHAR 221E
ENCODING 8734
SWIDTH 576 0
DWIDTH 8 0
BBX 8 6 0 2
BITMAP
66
FF
99
99
FF
66
ENDCHAR
STARTCHAR 221F
ENCODING 8735
SWIDTH 576 0
DWIDTH 8 0
BBX 7 8 1 2
BITMAP
80
80
80
80
80
80
FE
FE
ENDCHAR
STARTCHAR 2220
ENCODING 8736
SWIDTH 576 0
DWIDTH 8 0
BBX 7 8 1 2
BITMAP
06
0C
08
10
30
60
7E
FE
ENDCHAR
STARTCHAR 2223
ENCODING 8739
SWIDTH 576 0
DWIDTH 8 0
BBX 2 14 3 -3
BITMAP
C0
C0
C0
C0
C0
C0
C0
C0
C0
C0
C0
C0
C0
C0
ENDCHAR
STARTCHAR 2227
ENCODING 8743
SWIDTH 576 0
DWIDTH 8 0
BBX 6 8 1 0
BITMAP
38
38
78
78
68
6C
4C
CC
ENDCHAR
STARTCHAR 2228
ENCODING 8744
SWIDTH 576 0
DWIDTH 8 0
BBX 6 8 1 0
BITMAP
CC
4C
6C
68
78
78
38
38
ENDCHAR
STARTCHAR 2229
ENCODING 8745
SWIDTH 576 0
DWIDTH 8 0
BBX 6 8 1 0
BITMAP
78
7C
CC
CC
CC
CC
CC
CC
ENDCHAR
STARTCHAR 222A
ENCODING 8746
SWIDTH 576 0
DWIDTH 8 0
BBX 6 9 1 0
BITMAP
CC
CC
CC
CC
CC
CC
CC
7C
78
ENDCHAR
STARTCHAR 222B
ENCODING 8747
SWIDTH 576 0
DWIDTH 8 0
BBX 8 14 0 -3
BITMAP
07
0B
08
08
08
18
18
18
18
18
18
18
D0
60
ENDCHAR
STARTCHAR 222C
ENCODING 8748
SWIDTH 576 0
DWIDTH 8 0
BBX 8 16 0 -3
BITMAP
32
3F
26
26
26
26
26
26
26
26
26
26
26
26
EE
EC
ENDCHAR
STARTCHAR 222D
ENCODING 8749
SWIDTH 576 0
DWIDTH 8 0
BBX 9 16 0 -3
BITMAP
7F80
7B00
7B00
7B00
7B00
7B00
7B00
7B00
7B00
7B00
7B00
7B00
7B00
7B00
5A00
FE00
ENDCHAR
STARTCHAR 2234
ENCODING 8756
SWIDTH 576 0
DWIDTH 8 0
BBX 6 8 1 1
BITMAP
30
30
30
00
00
CC
CC
CC
ENDCHAR
STARTCHAR 2235
ENCODING 8757
SWIDTH 576 0
DWIDTH 8 0
BBX 6 8 1 1
BITMAP
CC
CC
CC
00
00
30
30
30
ENDCHAR
STARTCHAR 2236
ENCODING 8758
SWIDTH 576 0
DWIDTH 8 0
BBX 2 8 3 1
BITMAP
C0
C0
C0
00
00
C0
C0
C0
ENDCHAR
STARTCHAR 2237
ENCODING 8759
SWIDTH 576 0
DWIDTH 8 0
BBX 6 8 1 1
BITMAP
CC
CC
CC
00
00
CC
CC
CC
ENDCHAR
STARTCHAR 2238
ENCODING 8760
SWIDTH 576 0
DWIDTH 8 0
BBX 8 5 0 4
BITMAP
18
18
18
FF
FF
ENDCHAR
STARTCHAR 2239
ENCODING 8761
SWIDTH 576 0
DWIDTH 8 0
BBX 7 8 1 1
BITMAP
06
06
06
F8
F8
06
06
06
ENDCHAR
STARTCHAR 223A
ENCODING 8762
SWIDTH 576 0
DWIDTH 8 0
BBX 8 8 0 0
BITMAP
E3
E3
E3
FF
FF
E3
E3
E3
ENDCHAR
STARTCHAR 223B
ENCODING 8763
SWIDTH 576 0
DWIDTH 8 0
BBX 7 9 1 0
BITMAP
30
30
30
62
FE
8C
30
30
30
ENDCHAR
STARTCHAR 223C
ENCODING 8764
SWIDTH 576 0
DWIDTH 8 0
BBX 7 3 1 3
BITMAP
42
FE
9C
ENDCHAR
STARTCHAR 223D
ENCODING 8765
SWIDTH 576 0
DWIDTH 8 0
BBX 7 3 1 3
BITMAP
8C
FE
E2
ENDCHAR
STARTCHAR 2241
ENCODING 8769
SWIDTH 576 0
DWIDTH 8 0
BBX 7 8 1 0
BITMAP
18
18
52
FE
BC
20
60
20
ENDCHAR
STARTCHAR 2242
ENCODING 8770
SWIDTH 576 0
DWIDTH 8 0
BBX 7 5 1 2
BITMAP
FE
FE
62
FE
9C
ENDCHAR
STARTCHAR 2243
ENCODING 8771
SWIDTH 576 0
DWIDTH 8 0
BBX 7 5 1 2
BITMAP
E2
FE
8C
FE
FE
ENDCHAR
STARTCHAR 2244
ENCODING 8772
SWIDTH 576 0
DWIDTH 8 0
BBX 7 9 1 0
BITMAP
04
08
EA
FE
38
FE
FE
40
C0
ENDCHAR
STARTCHAR 2245
ENCODING 8773
SWIDTH 576 0
DWIDTH 8 0
BBX 7 9 1 0
BITMAP
62
FE
8C
00
FE
FE
00
FE
FE
ENDCHAR
STARTCHAR 2246
ENCODING 8774
SWIDTH 576 0
DWIDTH 8 0
BBX 7 10 1 -1
BITMAP
62
FE
8C
08
FE
FE
30
FE
FE
40
ENDCHAR
STARTCHAR 2247
ENCODING 8775
SWIDTH 576 0
DWIDTH 8 0
BBX 7 11 1 -1
BITMAP
08
6E
FE
9C
18
FE
FE
20
FE
FE
C0
ENDCHAR
STARTCHAR 2248
ENCODING 8776
SWIDTH 576 0
DWIDTH 8 0
BBX 7 6 1 2
BITMAP
42
FE
9C
42
FE
9C
ENDCHAR
STARTCHAR 2249
ENCODING 8777
SWIDTH 576 0
DWIDTH 8 0
BBX 7 8 1 1
BITMAP
08
5A
FE
9C
72
FE
FC
60
ENDCHAR
STARTCHAR 224A
ENCODING 8778
SWIDTH 576 0
DWIDTH 8 0
BBX 7 8 1 1
BITMAP
62
FE
8C
E2
FE
8C
FE
FE
ENDCHAR
STARTCHAR 224B
ENCODING 8779
SWIDTH 576 0
DWIDTH 8 0
BBX 7 8 1 0
BITMAP
FE
FE
42
FE
9C
62
FE
9C
ENDCHAR
STARTCHAR 224C
ENCODING 8780
SWIDTH 576 0
DWIDTH 8 0
BBX 7 9 1 0
BITMAP
8C
FE
62
00
FE
FE
00
FE
FE
ENDCHAR
STARTCHAR 224D
ENCODING 8781
SWIDTH 576 0
DWIDTH 8 0
BBX 7 7 1 1
BITMAP
82
FE
78
00
30
FE
86
ENDCHAR
STARTCHAR 224E
ENCODING 8782
SWIDTH 576 0
DWIDTH 8 0
BBX 7 9 1 0
BITMAP
10
78
CE
CE
00
CE
CE
78
30
ENDCHAR
STARTCHAR 224F
ENCODING 8783
SWIDTH 576 0
DWIDTH 8 0
BBX 7 7 1 2
BITMAP
10
78
CE
CE
00
FE
FE
ENDCHAR
STARTCHAR 2250
ENCODING 8784
SWIDTH 576 0
DWIDTH 8 0
BBX 7 9 1 1
BITMAP
30
30
30
FE
FE
00
00
FE
FE
ENDCHAR
STARTCHAR 2251
ENCODING 8785
SWIDTH 576 0
DWIDTH 8 0
BBX 7 12 1 -2
BITMAP
30
30
30
FE
FE
00
00
FE
FE
30
30
30
ENDCHAR
STARTCHAR 2252
ENCODING 8786
SWIDTH 576 0
DWIDTH 8 0
BBX 7 12 1 -2
BITMAP
C0
C0
C0
FE
FE
00
00
FE
FE
0E
0E
0E
ENDCHAR
STARTCHAR 2253
ENCODING 8787
SWIDTH 576 0
DWIDTH 8 0
BBX 7 12 1 -2
BITMAP
06
06
06
FE
FE
00
00
FE
FE
C0
C0
C0
ENDCHAR
STARTCHAR 2254
ENCODING 8788
SWIDTH 576 0
DWIDTH 8 0
BBX 7 5 1 2
BITMAP
BE
BE
00
BE
BE
ENDCHAR
STARTCHAR 2255
ENCODING 8789
SWIDTH 576 0
DWIDTH 8 0
BBX 7 5 1 2
BITMAP
FE
FE
00
FE
FE
ENDCHAR
STARTCHAR 2256
ENCODING 8790
SWIDTH 576 0
DWIDTH 8 0
BBX 7 5 1 2
BITMAP
FE
FE
48
FE
FE
ENDCHAR
STARTCHAR 2257
ENCODING 8791
SWIDTH 576 0
DWIDTH 8 0
BBX 7 9 1 2
BITMAP
38
48
38
00
FE
FE
00
FE
FE
ENDCHAR
STARTCHAR 2258
ENCODING 8792
SWIDTH 576 0
DWIDTH 8 0
BBX 7 8 1 2
BITMAP
78
FC
84
FE
FE
00
FE
FE
ENDCHAR
STARTCHAR 2259
ENCODING 8793
SWIDTH 576 0
DWIDTH 8 0
BBX 7 10 1 2
BITMAP
10
30
38
68
48
FE
FE
00
FE
FE
ENDCHAR
STARTCHAR 225A
ENCODING 8794
SWIDTH 576 0
DWIDTH 8 0
BBX 7 10 1 2
BITMAP
48
68
38
30
10
FE
FE
00
FE
FE
ENDCHAR
STARTCHAR 225B
ENCODING 8795
SWIDTH 576 0
DWIDTH 8 0
BBX 7 11 1 2
BITMAP
10
10
FC
30
28
40
FE
FE
00
FE
FE
ENDCHAR
STARTCHAR 225C
ENCODING 8796
SWIDTH 576 0
DWIDTH 8 0
BBX 7 11 1 2
BITMAP
10
30
30
28
78
04
FE
FE
00
FE
FE
ENDCHAR
STARTCHAR 225D
ENCODING 8797
SWIDTH 576 0
DWIDTH 8 0
BBX 7 9 1 1
BITMAP
D6
FC
DC
FE
FE
00
00
FE
FE
ENDCHAR
STARTCHAR 225E
ENCODING 8798
SWIDTH 576 0
DWIDTH 8 0
BBX 7 9 1 2
BITMAP
BC
D4
94
94
FE
FE
00
FE
FE
ENDCHAR
STARTCHAR 225F
ENCODING 8799
SWIDTH 576 0
DWIDTH 8 0
BBX 7 11 1 2
BITMAP
30
18
10
20
30
00
FE
FE
00
FE
FE
ENDCHAR
STARTCHAR 2260
ENCODING 8800
SWIDTH 576 0
DWIDTH 8 0
BBX 7 9 1 0
BITMAP
06
0C
FE
FE
30
FE
FE
C0
80
ENDCHAR
STARTCHAR 2261
ENCODING 8801
SWIDTH 576 0
DWIDTH 8 0
BBX 7 8 1 0
BITMAP
FE
FE
00
FE
FE
00
FE
FE
ENDCHAR
STARTCHAR 2262
ENCODING 8802
SWIDTH 576 0
DWIDTH 8 0
BBX 7 10 1 -1
BITMAP
0C
FE
FE
18
FE
FE
20
FE
FE
C0
ENDCHAR
STARTCHAR 2263
ENCODING 8803
SWIDTH 576 0
DWIDTH 8 0
BBX 7 11 1 -1
BITMAP
FE
FE
00
FE
FE
00
FE
FE
00
FE
FE
ENDCHAR
STARTCHAR 2264
ENCODING 8804
SWIDTH 576 0
DWIDTH 8 0
BBX 7 8 1 0
BITMAP
0E
7C
E0
F0
3E
06
FE
FE
ENDCHAR
STARTCHAR 2265
ENCODING 8805
SWIDTH 576 0
DWIDTH 8 0
BBX 7 8 1 0
BITMAP
C0
F8
1E
3E
F0
80
FE
FE
ENDCHAR
STARTCHAR 2266
ENCODING 8806
SWIDTH 576 0
DWIDTH 8 0
BBX 7 11 1 -2
BITMAP
02
1E
F8
C0
F8
1E
02
FE
FE
FE
FE
ENDCHAR
STARTCHAR 2267
ENCODING 8807
SWIDTH 576 0
DWIDTH 8 0
BBX 7 11 1 -2
BITMAP
80
E0
7C
06
7C
E0
80
FE
FE
FE
FE
ENDCHAR
STARTCHAR 2268
ENCODING 8808
SWIDTH 576 0
DWIDTH 8 0
BBX 7 12 1 -3
BITMAP
02
1E
F8
C0
F8
1E
0A
FE
FE
FE
FE
40
ENDCHAR
STARTCHAR 2269
ENCODING 8809
SWIDTH 576 0
DWIDTH 8 0
BBX 7 12 1 -3
BITMAP
80
E0
7C
06
7C
E0
88
FE
FE
FE
FE
40
ENDCHAR
STARTCHAR 226D
ENCODING 8813
SWIDTH 576 0
DWIDTH 8 0
BBX 7 10 1 -1
BITMAP
0C
08
9E
FE
10
30
FE
E6
60
40
ENDCHAR
STARTCHAR 226E
ENCODING 8814
SWIDTH 576 0
DWIDTH 8 0
BBX 7 9 1 0
BITMAP
0C
0A
1E
F8
D0
F0
3E
26
60
ENDCHAR
STARTCHAR 226F
ENCODING 8815
SWIDTH 576 0
DWIDTH 8 0
BBX 7 9 1 0
BITMAP
08
88
F0
3C
36
3E
F0
C0
40
ENDCHAR
STARTCHAR 2270
ENCODING 8816
SWIDTH 576 0
DWIDTH 8 0
BBX 7 10 1 -1
BITMAP
0C
0E
7C
F8
F0
3E
36
FE
FE
60
ENDCHAR
STARTCHAR 2271
ENCODING 8817
SWIDTH 576 0
DWIDTH 8 0
BBX 7 10 1 -1
BITMAP
18
D0
F8
3E
3E
F0
E0
FE
FE
C0
ENDCHAR
STARTCHAR 2272
ENCODING 8818
SWIDTH 576 0
DWIDTH 8 0
BBX 7 8 1 0
BITMAP
06
3E
F0
E0
7E
06
FE
FE
ENDCHAR
STARTCHAR 2273
ENCODING 8819
SWIDTH 576 0
DWIDTH 8 0
BBX 7 8 1 0
BITMAP
80
F0
1E
1E
F8
C0
FE
FE
ENDCHAR
STARTCHAR 2274
ENCODING 8820
SWIDTH 576 0
DWIDTH 8 0
BBX 7 10 1 -1
BITMAP
0C
0E
3E
F8
F0
7E
36
FE
FE
60
ENDCHAR
STARTCHAR 2275
ENCODING 8821
SWIDTH 576 0
DWIDTH 8 0
BBX 7 11 1 -1
BITMAP
18
98
F0
3E
2E
F8
E0
42
FE
DC
40
ENDCHAR
STARTCHAR 2276
ENCODING 8822
SWIDTH 576 0
DWIDTH 8 0
BBX 7 12 1 -2
BITMAP
02
0E
FC
C0
F8
1E
E2
7C
0E
7C
E0
80
ENDCHAR
STARTCHAR 2277
ENCODING 8823
SWIDTH 576 0
DWIDTH 8 0
BBX 7 12 1 -2
BITMAP
80
E0
7C
0E
7C
E0
8E
FC
C0
F8
1E
02
ENDCHAR
STARTCHAR 2278
ENCODING 8824
SWIDTH 576 0
DWIDTH 8 0
BBX 7 14 1 -3
BITMAP
08
0E
0E
FC
D8
F8
1E
F2
7C
2E
7C
E0
C0
40
ENDCHAR
STARTCHAR 2279
ENCODING 8825
SWIDTH 576 0
DWIDTH 8 0
BBX 7 14 1 -3
BITMAP
08
8C
E8
7C
1E
7C
F0
BE
FC
E0
F8
7E
42
C0
ENDCHAR
STARTCHAR 227A
ENCODING 8826
SWIDTH 576 0
DWIDTH 8 0
BBX 7 10 1 -1
BITMAP
02
06
0C
78
E0
F8
1C
06
02
02
ENDCHAR
STARTCHAR 227B
ENCODING 8827
SWIDTH 576 0
DWIDTH 8 0
BBX 7 10 1 -1
BITMAP
80
80
E0
78
1E
3E
E0
C0
80
80
ENDCHAR
STARTCHAR 227C
ENCODING 8828
SWIDTH 576 0
DWIDTH 8 0
BBX 7 14 1 -3
BITMAP
02
02
06
1C
F0
F0
3C
8E
E6
3A
0C
06
02
02
ENDCHAR
STARTCHAR 227D
ENCODING 8829
SWIDTH 576 0
DWIDTH 8 0
BBX 7 14 1 -3
BITMAP
80
80
C0
70
3E
3E
70
C6
9E
B8
E0
C0
80
80
ENDCHAR
STARTCHAR 227E
ENCODING 8830
SWIDTH 576 0
DWIDTH 8 0
BBX 7 12 1 -1
BITMAP
02
06
0C
F8
E0
F8
1C
06
02
42
FE
9C
ENDCHAR
STARTCHAR 227F
ENCODING 8831
SWIDTH 576 0
DWIDTH 8 0
BBX 7 12 1 -1
BITMAP
80
80
E0
7E
1E
3E
E0
C0
80
42
FE
9C
ENDCHAR
STARTCHAR 2280
ENCODING 8832
SWIDTH 576 0
DWIDTH 8 0
BBX 7 12 1 -2
BITMAP
04
0E
0E
0C
78
F8
F8
3C
36
22
62
20
ENDCHAR
STARTCHAR 2281
ENCODING 8833
SWIDTH 576 0
DWIDTH 8 0
BBX 7 12 1 -2
BITMAP
18
98
90
F0
78
3E
7E
E0
E0
C0
C0
40
ENDCHAR
STARTCHAR 2282
ENCODING 8834
SWIDTH 576 0
DWIDTH 8 0
BBX 7 7 1 1
BITMAP
7E
FE
80
80
80
FE
7E
ENDCHAR
STARTCHAR 2283
ENCODING 8835
SWIDTH 576 0
DWIDTH 8 0
BBX 7 7 1 1
BITMAP
F8
FC
06
06
06
FC
F8
ENDCHAR
STARTCHAR 2284
ENCODING 8836
SWIDTH 576 0
DWIDTH 8 0
BBX 7 11 1 -1
BITMAP
0C
08
7E
FE
90
B0
A0
FE
7E
40
40
ENDCHAR
STARTCHAR 2285
ENCODING 8837
SWIDTH 576 0
DWIDTH 8 0
BBX 7 11 1 -1
BITMAP
0C
08
F8
FC
16
36
26
FC
F8
40
40
ENDCHAR
STARTCHAR 2286
ENCODING 8838
SWIDTH 576 0
DWIDTH 8 0
BBX 7 10 1 0
BITMAP
3E
FE
C0
80
80
C0
FE
3E
FE
FE
ENDCHAR
STARTCHAR 2287
ENCODING 8839
SWIDTH 576 0
DWIDTH 8 0
BBX 7 10 1 0
BITMAP
F0
FC
04
06
06
04
FC
F0
FE
FE
ENDCHAR
STARTCHAR 2288
ENCODING 8840
SWIDTH 576 0
DWIDTH 8 0
BBX 7 12 1 -1
BITMAP
08
3E
FE
D8
90
90
F0
FE
7E
FE
FE
C0
ENDCHAR
STARTCHAR 2289
ENCODING 8841
SWIDTH 576 0
DWIDTH 8 0
BBX 7 12 1 -1
BITMAP
0C
F8
FC
1C
16
16
34
FC
F0
FE
FE
C0
ENDCHAR
STARTCHAR 228A
ENCODING 8842
SWIDTH 576 0
DWIDTH 8 0
BBX 7 12 1 -2
BITMAP
3E
FE
C0
80
80
C0
FE
3E
FE
FE
60
20
ENDCHAR
STARTCHAR 228B
ENCODING 8843
SWIDTH 576 0
DWIDTH 8 0
BBX 7 12 1 -2
BITMAP
F0
FC
04
06
06
04
FC
F8
FE
FE
60
20
ENDCHAR
STARTCHAR 228D
ENCODING 8845
SWIDTH 576 0
DWIDTH 8 0
BBX 7 9 1 0
BITMAP
86
86
86
B6
B6
86
86
FC
78
ENDCHAR
STARTCHAR 228E
ENCODING 8846
SWIDTH 576 0
DWIDTH 8 0
BBX 7 9 1 0
BITMAP
86
86
86
96
BE
96
86
FC
78
ENDCHAR
STARTCHAR 228F
ENCODING 8847
SWIDTH 576 0
DWIDTH 8 0
BBX 7 8 1 1
BITMAP
FE
FE
80
80
80
80
FE
FE
ENDCHAR
STARTCHAR 2290
ENCODING 8848
SWIDTH 576 0
DWIDTH 8 0
BBX 7 8 1 1
BITMAP
FE
FE
06
06
06
06
FE
FE
ENDCHAR
STARTCHAR 2291
ENCODING 8849
SWIDTH 576 0
DWIDTH 8 0
BBX 7 9 1 0
BITMAP
FE
FE
80
80
FE
FE
00
FE
FE
ENDCHAR
STARTCHAR 2292
ENCODING 8850
SWIDTH 576 0
DWIDTH 8 0
BBX 7 9 1 0
BITMAP
FE
FE
06
06
FE
FE
00
FE
FE
ENDCHAR
STARTCHAR 2293
ENCODING 8851
SWIDTH 576 0
DWIDTH 8 0
BBX 8 9 0 0
BITMAP
FF
FF
C3
C3
C3
C3
C3
C3
C3
ENDCHAR
STARTCHAR 2294
ENCODING 8852
SWIDTH 576 0
DWIDTH 8 0
BBX 8 9 0 0
BITMAP
C3
C3
C3
C3
C3
C3
C3
FF
FF
ENDCHAR
STARTCHAR 2295
ENCODING 8853
SWIDTH 576 0
DWIDTH 8 0
BBX 8 9 0 0
BITMAP
18
7E
6B
C9
FF
FF
4B
7E
3C
ENDCHAR
STARTCHAR 2296
ENCODING 8854
SWIDTH 576 0
DWIDTH 8 0
BBX 8 9 0 0
BITMAP
18
7E
63
C1
FF
FF
43
7E
3C
ENDCHAR
STARTCHAR 2297
ENCODING 8855
SWIDTH 576 0
DWIDTH 8 0
BBX 8 9 0 0
BITMAP
18
7E
63
F5
D9
DD
67
7E
3C
ENDCHAR
STARTCHAR 2298
ENCODING 8856
SWIDTH 576 0
DWIDTH 8 0
BBX 8 9 0 0
BITMAP
18
7E
63
C5
C9
D1
63
7E
3C
ENDCHAR
STARTCHAR 2299
ENCODING 8857
SWIDTH 576 0
DWIDTH 8 0
BBX 8 9 0 0
BITMAP
18
7E
63
D9
D9
D9
43
7E
3C
ENDCHAR
STARTCHAR 229A
ENCODING 8858
SWIDTH 576 0
DWIDTH 8 0
BBX 8 9 0 0
BITMAP
18
7E
63
D9
F5
F5
5B
7E
3C
ENDCHAR
STARTCHAR 229B
ENCODING 8859
SWIDTH 576 0
DWIDTH 8 0
BBX 8 8 0 0
BITMAP
3C
6E
CB
FD
FD
EB
6E
3C
ENDCHAR
STARTCHAR 229C
ENCODING 8860
SWIDTH 576 0
DWIDTH 8 0
BBX 8 9 0 0
BITMAP
18
7E
63
FD
C1
FD
43
7E
3C
ENDCHAR
STARTCHAR 229D
ENCODING 8861
SWIDTH 576 0
DWIDTH 8 0
BBX 8 9 0 0
BITMAP
18
7E
63
C1
DD
DD
43
7E
3C
ENDCHAR
STARTCHAR 229E
ENCODING 8862
SWIDTH 576 0
DWIDTH 8 0
BBX 8 8 0 1
BITMAP
FF
FF
89
BF
BF
89
FF
FF
ENDCHAR
STARTCHAR 229F
ENCODING 8863
SWIDTH 576 0
DWIDTH 8 0
BBX 8 8 0 1
BITMAP
FF
FF
81
BF
BF
81
FF
FF
ENDCHAR
STARTCHAR 22A0
ENCODING 8864
SWIDTH 576 0
DWIDTH 8 0
BBX 8 8 0 1
BITMAP
FF
FF
A7
9D
9D
A7
FF
FF
ENDCHAR
STARTCHAR 22A1
ENCODING 8865
SWIDTH 576 0
DWIDTH 8 0
BBX 8 8 0 1
BITMAP
FF
FF
81
99
99
99
FF
FF
ENDCHAR
STARTCHAR 22A2
ENCODING 8866
SWIDTH 576 0
DWIDTH 8 0
BBX 8 9 0 0
BITMAP
C0
C0
C0
C0
FF
FF
C0
C0
C0
ENDCHAR
STARTCHAR 22A3
ENCODING 8867
SWIDTH 576 0
DWIDTH 8 0
BBX 8 9 0 0
BITMAP
03
03
03
03
FF
FF
03
03
03
ENDCHAR
STARTCHAR 22A4
ENCODING 8868
SWIDTH 576 0
DWIDTH 8 0
BBX 8 9 0 0
BITMAP
FF
FF
18
18
18
18
18
18
18
ENDCHAR
STARTCHAR 22B2
ENCODING 8882
SWIDTH 576 0
DWIDTH 8 0
BBX 7 7 1 1
BITMAP
02
1E
FE
C6
F6
3E
06
ENDCHAR
STARTCHAR 22B3
ENCODING 8883
SWIDTH 576 0
DWIDTH 8 0
BBX 7 7 1 1
BITMAP
80
E0
BC
86
9E
F0
C0
ENDCHAR
STARTCHAR 22B4
ENCODING 8884
SWIDTH 576 0
DWIDTH 8 0
BBX 7 8 1 0
BITMAP
0E
7E
E6
F6
3E
06
FE
FE
ENDCHAR
STARTCHAR 22B5
ENCODING 8885
SWIDTH 576 0
DWIDTH 8 0
BBX 7 8 1 0
BITMAP
C0
F8
9E
BE
F0
80
FE
FE
ENDCHAR
STARTCHAR 22B8
ENCODING 8888
SWIDTH 576 0
DWIDTH 8 0
BBX 8 4 0 3
BITMAP
07
F9
F9
07
ENDCHAR
STARTCHAR 22C2
ENCODING 8898
SWIDTH 576 0
DWIDTH 8 0
BBX 7 14 1 -3
BITMAP
78
FC
86
86
86
86
86
86
86
86
86
86
86
86
ENDCHAR
STARTCHAR 22C3
ENCODING 8899
SWIDTH 576 0
DWIDTH 8 0
BBX 7 13 1 -3
BITMAP
86
86
86
86
86
86
86
86
86
86
86
FC
78
ENDCHAR
STARTCHAR 22C4
ENCODING 8900
SWIDTH 576 0
DWIDTH 8 0
BBX 8 8 0 1
BITMAP
08
1C
26
43
C3
66
3C
18
ENDCHAR
STARTCHAR 22C5
ENCODING 8901
SWIDTH 576 0
DWIDTH 8 0
BBX 2 3 3 4
BITMAP
C0
C0
C0
ENDCHAR
STARTCHAR 22C6
ENCODING 8902
SWIDTH 576 0
DWIDTH 8 0
BBX 5 5 2 3
BITMAP
20
20
F8
60
50
ENDCHAR
STARTCHAR 22CD
ENCODING 8909
SWIDTH 576 0
DWIDTH 8 0
BBX 7 5 1 2
BITMAP
9C
FE
42
FE
FE
ENDCHAR
STARTCHAR 22CE
ENCODING 8910
SWIDTH 576 0
DWIDTH 8 0
BBX 8 9 0 0
BITMAP
E3
76
3C
3C
1C
18
18
18
18
ENDCHAR
STARTCHAR 22CF
ENCODING 8911
SWIDTH 576 0
DWIDTH 8 0
BBX 8 9 0 0
BITMAP
18
18
18
18
1C
3C
3C
76
E3
ENDCHAR
STARTCHAR 22D0
ENCODING 8912
SWIDTH 576 0
DWIDTH 8 0
BBX 7 10 1 0
BITMAP
1E
7E
E0
DE
BE
B0
BE
CE
7E
3E
ENDCHAR
STARTCHAR 22D1
ENCODING 8913
SWIDTH 576 0
DWIDTH 8 0
BBX 7 10 1 0
BITMAP
E0
F8
0C
E4
F6
16
F6
EC
F8
F0
ENDCHAR
STARTCHAR 22DA
ENCODING 8922
SWIDTH 576 0
DWIDTH 8 0
BBX 7 15 1 -4
BITMAP
0E
7C
E0
F0
3E
06
FE
FE
80
E0
7C
06
7C
E0
80
ENDCHAR
STARTCHAR 22DB
ENCODING 8923
SWIDTH 576 0
DWIDTH 8 0
BBX 7 15 1 -4
BITMAP
C0
F8
1E
3E
F0
80
FE
FE
02
1E
F8
C0
F8
1E
02
ENDCHAR
STARTCHAR 22DC
ENCODING 8924
SWIDTH 576 0
DWIDTH 8 0
BBX 7 9 1 0
BITMAP
FE
FE
02
1E
F8
C0
F8
1E
02
ENDCHAR
STARTCHAR 22DD
ENCODING 8925
SWIDTH 576 0
DWIDTH 8 0
BBX 7 9 1 0
BITMAP
FE
FE
80
E0
7C
06
7C
E0
80
ENDCHAR
STARTCHAR 22DE
ENCODING 8926
SWIDTH 576 0
DWIDTH 8 0
BBX 7 14 1 -3
BITMAP
02
02
06
0C
3A
E6
8E
3C
F0
F0
1C
06
02
02
ENDCHAR
STARTCHAR 22DF
ENCODING 8927
SWIDTH 576 0
DWIDTH 8 0
BBX 7 14 1 -3
BITMAP
80
80
C0
E0
B8
9E
C6
70
3E
3E
70
C0
80
80
ENDCHAR
STARTCHAR 22E0
ENCODING 8928
SWIDTH 576 0
DWIDTH 8 0
BBX 7 15 1 -3
BITMAP
08
0A
1A
1E
1C
F0
F0
3C
BE
F2
3A
2C
66
62
62
ENDCHAR
STARTCHAR 22E1
ENCODING 8929
SWIDTH 576 0
DWIDTH 8 0
BBX 7 15 1 -3
BITMAP
08
88
98
D8
78
3E
3E
70
F6
BE
F0
E0
E0
E0
E0
ENDCHAR
STARTCHAR 22E2
ENCODING 8930
SWIDTH 576 0
DWIDTH 8 0
BBX 7 13 1 -2
BITMAP
0C
0C
FE
FE
98
90
FE
FE
20
FE
FE
40
C0
ENDCHAR
STARTCHAR 22E3
ENCODING 8931
SWIDTH 576 0
DWIDTH 8 0
BBX 7 13 1 -2
BITMAP
0C
0C
FE
FE
1E
16
FE
FE
20
FE
FE
40
C0
ENDCHAR
STARTCHAR 22E4
ENCODING 8932
SWIDTH 576 0
DWIDTH 8 0
BBX 7 11 1 -2
BITMAP
FE
FE
80
80
FE
FE
18
FE
FE
60
20
ENDCHAR
STARTCHAR 22E5
ENCODING 8933
SWIDTH 576 0
DWIDTH 8 0
BBX 7 11 1 -2
BITMAP
FE
FE
06
06
FE
FE
18
FE
FE
60
20
ENDCHAR
STARTCHAR 22E6
ENCODING 8934
SWIDTH 576 0
DWIDTH 8 0
BBX 7 10 1 -2
BITMAP
06
3E
F0
E0
7E
1E
FE
FE
20
20
ENDCHAR
STARTCHAR 22E7
ENCODING 8935
SWIDTH 576 0
DWIDTH 8 0
BBX 7 10 1 -2
BITMAP
80
F0
1E
1E
F8
D8
FE
FE
20
20
ENDCHAR
STARTCHAR 22E8
ENCODING 8936
SWIDTH 576 0
DWIDTH 8 0
BBX 7 14 1 -3
BITMAP
02
06
0C
F8
E0
F8
1C
06
1A
52
FE
BC
20
20
ENDCHAR
STARTCHAR 22E9
ENCODING 8937
SWIDTH 576 0
DWIDTH 8 0
BBX 7 14 1 -3
BITMAP
80
80
E0
7E
1E
3E
E0
C0
98
52
FE
BC
20
20
ENDCHAR
STARTCHAR 22EF
ENCODING 8943
SWIDTH 576 0
DWIDTH 8 0
BBX 8 3 0 3
BITMAP
DB
DB
DB
ENDCHAR
STARTCHAR 2304
ENCODING 8964
SWIDTH 576 0
DWIDTH 8 0
BBX 6 5 1 -2
BITMAP
C4
48
38
30
10
ENDCHAR
STARTCHAR 2308
ENCODING 8968
SWIDTH 576 0
DWIDTH 8 0
BBX 3 13 3 -2
BITMAP
E0
E0
C0
C0
C0
C0
C0
C0
C0
C0
C0
C0
C0
ENDCHAR
STARTCHAR 2309
ENCODING 8969
SWIDTH 576 0
DWIDTH 8 0
BBX 4 13 2 -2
BITMAP
F0
F0
30
30
30
30
30
30
30
30
30
30
30
ENDCHAR
STARTCHAR 230A
ENCODING 8970
SWIDTH 576 0
DWIDTH 8 0
BBX 3 12 3 -1
BITMAP
C0
C0
C0
C0
C0
C0
C0
C0
C0
C0
C0
E0
ENDCHAR
STARTCHAR 230B
ENCODING 8971
SWIDTH 576 0
DWIDTH 8 0
BBX 4 12 2 -1
BITMAP
30
30
30
30
30
30
30
30
30
30
30
F0
ENDCHAR
STARTCHAR 2310
ENCODING 8976
SWIDTH 576 0
DWIDTH 8 0
BBX 7 4 1 3
BITMAP
FE
FE
80
80
ENDCHAR
STARTCHAR 2320
ENCODING 8992
SWIDTH 576 0
DWIDTH 8 0
BBX 5 16 3 -3
BITMAP
38
58
40
40
C0
C0
C0
C0
C0
C0
C0
C0
C0
C0
C0
C0
ENDCHAR
STARTCHAR 2321
ENCODING 8993
SWIDTH 576 0
DWIDTH 8 0
BBX 5 16 0 -3
BITMAP
18
18
18
18
18
18
18
18
18
18
18
18
18
18
D0
60
ENDCHAR
STARTCHAR 239B
ENCODING 9115
SWIDTH 576 0
DWIDTH 8 0
BBX 5 16 2 -3
BITMAP
18
30
30
60
60
60
C0
C0
C0
C0
C0
C0
C0
C0
C0
C0
ENDCHAR
STARTCHAR 239C
ENCODING 9116
SWIDTH 576 0
DWIDTH 8 0
BBX 2 16 2 -3
BITMAP
C0
C0
C0
C0
C0
C0
C0
C0
C0
C0
C0
C0
C0
C0
C0
C0
ENDCHAR
STARTCHAR 239D
ENCODING 9117
SWIDTH 576 0
DWIDTH 8 0
BBX 5 16 2 -3
BITMAP
C0
C0
C0
C0
C0
C0
C0
C0
C0
C0
60
60
60
30
30
18
ENDCHAR
STARTCHAR 239E
ENCODING 9118
SWIDTH 576 0
DWIDTH 8 0
BBX 5 16 2 -3
BITMAP
C0
C0
60
60
20
30
30
30
30
18
18
18
18
18
18
18
ENDCHAR
STARTCHAR 239F
ENCODING 9119
SWIDTH 576 0
DWIDTH 8 0
BBX 2 16 5 -3
BITMAP
C0
C0
C0
C0
C0
C0
C0
C0
C0
C0
C0
C0
C0
C0
C0
C0
ENDCHAR
STARTCHAR 23A0
ENCODING 9120
SWIDTH 576 0
DWIDTH 8 0
BBX 5 16 2 -3
BITMAP
18
18
18
18
18
18
18
30
30
30
30
20
60
60
C0
C0
ENDCHAR
STARTCHAR 23A1
ENCODING 9121
SWIDTH 576 0
DWIDTH 8 0
BBX 5 16 2 -3
BITMAP
F8
F8
C0
C0
C0
C0
C0
C0
C0
C0
C0
C0
C0
C0
C0
C0
ENDCHAR
STARTCHAR 23A2
ENCODING 9122
SWIDTH 576 0
DWIDTH 8 0
BBX 2 16 2 -3
BITMAP
C0
C0
C0
C0
C0
C0
C0
C0
C0
C0
C0
C0
C0
C0
C0
C0
ENDCHAR
STARTCHAR 23A3
ENCODING 9123
SWIDTH 576 0
DWIDTH 8 0
BBX 5 16 2 -3
BITMAP
C0
C0
C0
C0
C0
C0
C0
C0
C0
C0
C0
C0
C0
C0
F8
F8
ENDCHAR
STARTCHAR 23A4
ENCODING 9124
SWIDTH 576 0
DWIDTH 8 0
BBX 5 16 2 -3
BITMAP
F8
F8
18
18
18
18
18
18
18
18
18
18
18
18
18
18
ENDCHAR
STARTCHAR 23A5
ENCODING 9125
SWIDTH 576 0
DWIDTH 8 0
BBX 2 16 5 -3
BITMAP
C0
C0
C0
C0
C0
C0
C0
C0
C0
C0
C0
C0
C0
C0
C0
C0
ENDCHAR
STARTCHAR 23A6
ENCODING 9126
SWIDTH 576 0
DWIDTH 8 0
BBX 5 16 2 -3
BITMAP
18
18
18
18
18
18
18
18
18
18
18
18
18
18
F8
F8
ENDCHAR
STARTCHAR 23A7
ENCODING 9127
SWIDTH 576 0
DWIDTH 8 0
BBX 5 17 3 -4
BITMAP
38
78
C0
C0
C0
C0
C0
C0
C0
C0
C0
C0
C0
C0
C0
C0
C0
ENDCHAR
STARTCHAR 23A8
ENCODING 9128
SWIDTH 576 0
DWIDTH 8 0
BBX 5 16 0 -3
BITMAP
18
18
18
18
18
18
18
F0
F0
18
18
18
18
18
18
18
ENDCHAR
STARTCHAR 23A9
ENCODING 9129
SWIDTH 576 0
DWIDTH 8 0
BBX 5 16 3 -3
BITMAP
C0
C0
C0
C0
C0
C0
C0
C0
C0
C0
C0
C0
C0
C0
78
38
ENDCHAR
STARTCHAR 23AA
ENCODING 9130
SWIDTH 576 0
DWIDTH 8 0
BBX 2 16 3 -3
BITMAP
C0
C0
C0
C0
C0
C0
C0
C0
C0
C0
C0
C0
C0
C0
C0
C0
ENDCHAR
STARTCHAR 23AB
ENCODING 9131
SWIDTH 576 0
DWIDTH 8 0
BBX 5 17 0 -4
BITMAP
F0
F8
18
18
18
18
18
18
18
18
18
18
18
18
18
18
18
ENDCHAR
STARTCHAR 23AC
ENCODING 9132
SWIDTH 576 0
DWIDTH 8 0
BBX 5 16 3 -3
BITMAP
C0
C0
C0
C0
C0
C0
60
78
78
E0
C0
C0
C0
C0
C0
C0
ENDCHAR
STARTCHAR 23AD
ENCODING 9133
SWIDTH 576 0
DWIDTH 8 0
BBX 5 16 0 -3
BITMAP
18
18
18
18
18
18
18
18
18
18
18
18
18
18
F8
F0
ENDCHAR
STARTCHAR 23AE
ENCODING 9134
SWIDTH 576 0
DWIDTH 8 0
BBX 2 16 3 -3
BITMAP
C0
C0
C0
C0
C0
C0
C0
C0
C0
C0
C0
C0
C0
C0
C0
C0
ENDCHAR
STARTCHAR 2500
ENCODING 9472
SWIDTH 576 0
DWIDTH 8 0
BBX 9 2 0 4
BITMAP
FF80
FF80
ENDCHAR
STARTCHAR 2501
ENCODING 9473
SWIDTH 576 0
DWIDTH 8 0
BBX 9 2 0 4
BITMAP
FF80
FF80
ENDCHAR
STARTCHAR 2502
ENCODING 9474
SWIDTH 576 0
DWIDTH 8 0
BBX 1 16 4 -3
BITMAP
80
80
80
80
80
80
80
80
80
80
80
80
80
80
80
80
ENDCHAR
STARTCHAR 2503
ENCODING 9475
SWIDTH 576 0
DWIDTH 8 0
BBX 2 16 3 -3
BITMAP
C0
C0
C0
C0
C0
C0
C0
C0
C0
C0
C0
C0
C0
C0
C0
C0
ENDCHAR
STARTCHAR 2504
ENCODING 9476
SWIDTH 576 0
DWIDTH 8 0
BBX 8 2 0 4
BITMAP
DB
DB
ENDCHAR
STARTCHAR 2505
ENCODING 9477
SWIDTH 576 0
DWIDTH 8 0
BBX 8 2 0 4
BITMAP
DB
DB
ENDCHAR
STARTCHAR 2506
ENCODING 9478
SWIDTH 576 0
DWIDTH 8 0
BBX 1 15 4 -3
BITMAP
80
80
80
80
00
80
80
80
80
00
00
80
80
80
80
ENDCHAR
STARTCHAR 2507
ENCODING 9479
SWIDTH 576 0
DWIDTH 8 0
BBX 2 15 3 -3
BITMAP
C0
C0
C0
C0
00
C0
C0
C0
C0
00
00
C0
C0
C0
C0
ENDCHAR
STARTCHAR 2508
ENCODING 9480
SWIDTH 576 0
DWIDTH 8 0
BBX 8 2 0 4
BITMAP
F5
F5
ENDCHAR
STARTCHAR 2509
ENCODING 9481
SWIDTH 576 0
DWIDTH 8 0
BBX 8 2 0 4
BITMAP
F5
F5
ENDCHAR
STARTCHAR 250A
ENCODING 9482
SWIDTH 576 0
DWIDTH 8 0
BBX 1 15 4 -3
BITMAP
80
80
80
00
80
80
80
00
80
80
80
00
80
80
80
ENDCHAR
STARTCHAR 250B
ENCODING 9483
SWIDTH 576 0
DWIDTH 8 0
BBX 2 15 3 -3
BITMAP
C0
C0
C0
00
C0
C0
C0
00
C0
C0
C0
00
C0
C0
C0
ENDCHAR
STARTCHAR 250C
ENCODING 9484
SWIDTH 576 0
DWIDTH 8 0
BBX 5 10 4 -3
BITMAP
F8
F8
80
80
80
80
80
80
80
80
ENDCHAR
STARTCHAR 250D
ENCODING 9485
SWIDTH 576 0
DWIDTH 8 0
BBX 5 10 4 -3
BITMAP
F8
F8
80
80
80
80
80
80
80
80
ENDCHAR
STARTCHAR 250E
ENCODING 9486
SWIDTH 576 0
DWIDTH 8 0
BBX 6 10 3 -3
BITMAP
FC
FC
C0
C0
C0
C0
C0
C0
C0
C0
ENDCHAR
STARTCHAR 250F
ENCODING 9487
SWIDTH 576 0
DWIDTH 8 0
BBX 6 10 3 -3
BITMAP
FC
FC
C0
C0
C0
C0
C0
C0
C0
C0
ENDCHAR
STARTCHAR 2510
ENCODING 9488
SWIDTH 576 0
DWIDTH 8 0
BBX 5 10 0 -3
BITMAP
F8
F8
08
08
08
08
08
08
08
08
ENDCHAR
STARTCHAR 2511
ENCODING 9489
SWIDTH 576 0
DWIDTH 8 0
BBX 5 10 0 -3
BITMAP
F8
F8
08
08
08
08
08
08
08
08
ENDCHAR
STARTCHAR 2512
ENCODING 9490
SWIDTH 576 0
DWIDTH 8 0
BBX 5 10 0 -3
BITMAP
F8
F8
18
18
18
18
18
18
18
18
ENDCHAR
STARTCHAR 2513
ENCODING 9491
SWIDTH 576 0
DWIDTH 8 0
BBX 5 10 0 -3
BITMAP
F8
F8
18
18
18
18
18
18
18
18
ENDCHAR
STARTCHAR 2514
ENCODING 9492
SWIDTH 576 0
DWIDTH 8 0
BBX 5 9 4 4
BITMAP
80
80
80
80
80
80
80
80
F8
ENDCHAR
STARTCHAR 2515
ENCODING 9493
SWIDTH 576 0
DWIDTH 8 0
BBX 5 10 4 3
BITMAP
80
80
80
80
80
80
80
80
F8
F8
ENDCHAR
STARTCHAR 2516
ENCODING 9494
SWIDTH 576 0
DWIDTH 8 0
BBX 6 9 3 4
BITMAP
C0
C0
C0
C0
C0
C0
C0
C0
FC
ENDCHAR
STARTCHAR 2517
ENCODING 9495
SWIDTH 576 0
DWIDTH 8 0
BBX 6 10 3 3
BITMAP
C0
C0
C0
C0
C0
C0
C0
C0
FC
FC
ENDCHAR
STARTCHAR 2518
ENCODING 9496
SWIDTH 576 0
DWIDTH 8 0
BBX 5 9 0 4
BITMAP
08
08
08
08
08
08
08
08
F8
ENDCHAR
STARTCHAR 2519
ENCODING 9497
SWIDTH 576 0
DWIDTH 8 0
BBX 5 10 0 3
BITMAP
08
08
08
08
08
08
08
08
F8
F8
ENDCHAR
STARTCHAR 251A
ENCODING 9498
SWIDTH 576 0
DWIDTH 8 0
BBX 5 9 0 4
BITMAP
18
18
18
18
18
18
18
18
F8
ENDCHAR
STARTCHAR 251B
ENCODING 9499
SWIDTH 576 0
DWIDTH 8 0
BBX 5 10 0 3
BITMAP
18
18
18
18
18
18
18
18
F8
F8
ENDCHAR
STARTCHAR 251C
ENCODING 9500
SWIDTH 576 0
DWIDTH 8 0
BBX 5 16 4 -3
BITMAP
80
80
80
80
80
80
F8
F8
80
80
80
80
80
80
80
80
ENDCHAR
STARTCHAR 251D
ENCODING 9501
SWIDTH 576 0
DWIDTH 8 0
BBX 5 16 4 -3
BITMAP
80
80
80
80
80
80
F8
F8
80
80
80
80
80
80
80
80
ENDCHAR
STARTCHAR 251E
ENCODING 9502
SWIDTH 576 0
DWIDTH 8 0
BBX 6 16 3 -3
BITMAP
C0
C0
C0
C0
C0
C0
C0
FC
FC
40
40
40
40
40
40
40
ENDCHAR
STARTCHAR 251F
ENCODING 9503
SWIDTH 576 0
DWIDTH 8 0
BBX 6 16 3 -3
BITMAP
40
40
40
40
40
40
40
FC
C0
C0
C0
C0
C0
C0
C0
C0
ENDCHAR
STARTCHAR 2520
ENCODING 9504
SWIDTH 576 0
DWIDTH 8 0
BBX 6 16 3 -3
BITMAP
C0
C0
C0
C0
C0
C0
FC
FC
C0
C0
C0
C0
C0
C0
C0
C0
ENDCHAR
STARTCHAR 2521
ENCODING 9505
SWIDTH 576 0
DWIDTH 8 0
BBX 6 16 3 -3
BITMAP
C0
C0
C0
C0
C0
C0
C0
FC
FC
40
40
40
40
40
40
40
ENDCHAR
STARTCHAR 2522
ENCODING 9506
SWIDTH 576 0
DWIDTH 8 0
BBX 6 16 3 -3
BITMAP
40
40
40
40
40
40
40
FC
FC
C0
C0
C0
C0
C0
C0
C0
ENDCHAR
STARTCHAR 2523
ENCODING 9507
SWIDTH 576 0
DWIDTH 8 0
BBX 6 16 3 -3
BITMAP
C0
C0
C0
C0
C0
C0
FC
FC
C0
C0
C0
C0
C0
C0
C0
C0
ENDCHAR
STARTCHAR 2524
ENCODING 9508
SWIDTH 576 0
DWIDTH 8 0
BBX 5 16 0 -3
BITMAP
08
08
08
08
08
08
F8
F8
08
08
08
08
08
08
08
08
ENDCHAR
STARTCHAR 2525
ENCODING 9509
SWIDTH 576 0
DWIDTH 8 0
BBX 5 16 0 -3
BITMAP
08
08
08
08
08
08
F8
F8
08
08
08
08
08
08
08
08
ENDCHAR
STARTCHAR 2526
ENCODING 9510
SWIDTH 576 0
DWIDTH 8 0
BBX 5 16 0 -3
BITMAP
18
18
18
18
18
18
18
F8
08
08
08
08
08
08
08
08
ENDCHAR
STARTCHAR 2527
ENCODING 9511
SWIDTH 576 0
DWIDTH 8 0
BBX 5 16 0 -3
BITMAP
08
08
08
08
08
08
08
F8
18
18
18
18
18
18
18
18
ENDCHAR
STARTCHAR 2528
ENCODING 9512
SWIDTH 576 0
DWIDTH 8 0
BBX 5 16 0 -3
BITMAP
18
18
18
18
18
18
F8
F8
18
18
18
18
18
18
18
18
ENDCHAR
STARTCHAR 2529
ENCODING 9513
SWIDTH 576 0
DWIDTH 8 0
BBX 5 16 0 -3
BITMAP
18
18
18
18
18
18
F8
F8
08
08
08
08
08
08
08
08
ENDCHAR
STARTCHAR 252A
ENCODING 9514
SWIDTH 576 0
DWIDTH 8 0
BBX 5 16 0 -3
BITMAP
08
08
08
08
08
08
F8
F8
18
18
18
18
18
18
18
18
ENDCHAR
STARTCHAR 252B
ENCODING 9515
SWIDTH 576 0
DWIDTH 8 0
BBX 5 16 0 -3
BITMAP
18
18
18
18
18
18
F8
F8
18
18
18
18
18
18
18
18
ENDCHAR
STARTCHAR 252C
ENCODING 9516
SWIDTH 576 0
DWIDTH 8 0
BBX 9 10 0 -3
BITMAP
FF80
FF80
0800
0800
0800
0800
0800
0800
0800
0800
ENDCHAR
STARTCHAR 252D
ENCODING 9517
SWIDTH 576 0
DWIDTH 8 0
BBX 9 10 0 -3
BITMAP
FF80
FF80
0800
0800
0800
0800
0800
0800
0800
0800
ENDCHAR
STARTCHAR 252E
ENCODING 9518
SWIDTH 576 0
DWIDTH 8 0
BBX 9 10 0 -3
BITMAP
FF80
FF80
0800
0800
0800
0800
0800
0800
0800
0800
ENDCHAR
STARTCHAR 252F
ENCODING 9519
SWIDTH 576 0
DWIDTH 8 0
BBX 9 10 0 -3
BITMAP
FF80
FF80
0800
0800
0800
0800
0800
0800
0800
0800
ENDCHAR
STARTCHAR 2530
ENCODING 9520
SWIDTH 576 0
DWIDTH 8 0
BBX 9 10 0 -3
BITMAP
FF80
FF80
1800
1800
1800
1800
1800
1800
1800
1800
ENDCHAR
STARTCHAR 2531
ENCODING 9521
SWIDTH 576 0
DWIDTH 8 0
BBX 9 10 0 -3
BITMAP
FF80
FF80
1800
1800
1800
1800
1800
1800
1800
1800
ENDCHAR
STARTCHAR 2532
ENCODING 9522
SWIDTH 576 0
DWIDTH 8 0
BBX 9 10 0 -3
BITMAP
FF80
FF80
1800
1800
1800
1800
1800
1800
1800
1800
ENDCHAR
STARTCHAR 2533
ENCODING 9523
SWIDTH 576 0
DWIDTH 8 0
BBX 9 10 0 -3
BITMAP
FF80
FF80
1800
1800
1800
1800
1800
1800
1800
1800
ENDCHAR
STARTCHAR 2534
ENCODING 9524
SWIDTH 576 0
DWIDTH 8 0
BBX 9 9 0 4
BITMAP
0800
0800
0800
0800
0800
0800
0800
0800
FF80
ENDCHAR
STARTCHAR 2535
ENCODING 9525
SWIDTH 576 0
DWIDTH 8 0
BBX 9 10 0 3
BITMAP
0800
0800
0800
0800
0800
0800
0800
0800
FF80
FF80
ENDCHAR
STARTCHAR 2536
ENCODING 9526
SWIDTH 576 0
DWIDTH 8 0
BBX 9 10 0 3
BITMAP
0800
0800
0800
0800
0800
0800
0800
0800
FF80
FF80
ENDCHAR
STARTCHAR 2537
ENCODING 9527
SWIDTH 576 0
DWIDTH 8 0
BBX 9 10 0 3
BITMAP
0800
0800
0800
0800
0800
0800
0800
0800
FF80
FF80
ENDCHAR
STARTCHAR 2538
ENCODING 9528
SWIDTH 576 0
DWIDTH 8 0
BBX 9 9 0 4
BITMAP
1800
1800
1800
1800
1800
1800
1800
1800
FF80
ENDCHAR
STARTCHAR 2539
ENCODING 9529
SWIDTH 576 0
DWIDTH 8 0
BBX 9 10 0 3
BITMAP
1800
1800
1800
1800
1800
1800
1800
1800
FF80
FF80
ENDCHAR
STARTCHAR 253A
ENCODING 9530
SWIDTH 576 0
DWIDTH 8 0
BBX 9 10 0 3
BITMAP
1800
1800
1800
1800
1800
1800
1800
1800
FF80
FF80
ENDCHAR
STARTCHAR 253B
ENCODING 9531
SWIDTH 576 0
DWIDTH 8 0
BBX 9 10 0 3
BITMAP
1800
1800
1800
1800
1800
1800
1800
1800
FF80
FF80
ENDCHAR
STARTCHAR 253C
ENCODING 9532
SWIDTH 576 0
DWIDTH 8 0
BBX 9 16 0 -3
BITMAP
0800
0800
0800
0800
0800
0800
FF80
FF80
0800
0800
0800
0800
0800
0800
0800
0800
ENDCHAR
STARTCHAR 253D
ENCODING 9533
SWIDTH 576 0
DWIDTH 8 0
BBX 9 16 0 -3
BITMAP
0800
0800
0800
0800
0800
0800
FF80
FF80
0800
0800
0800
0800
0800
0800
0800
0800
ENDCHAR
STARTCHAR 253E
ENCODING 9534
SWIDTH 576 0
DWIDTH 8 0
BBX 9 16 0 -3
BITMAP
0800
0800
0800
0800
0800
0800
FF80
FF80
0800
0800
0800
0800
0800
0800
0800
0800
ENDCHAR
STARTCHAR 253F
ENCODING 9535
SWIDTH 576 0
DWIDTH 8 0
BBX 9 16 0 -3
BITMAP
0800
0800
0800
0800
0800
0800
FF80
FF80
0800
0800
0800
0800
0800
0800
0800
0800
ENDCHAR
STARTCHAR 2540
ENCODING 9536
SWIDTH 576 0
DWIDTH 8 0
BBX 9 16 0 -3
BITMAP
1800
1800
1800
1800
1800
1800
1800
FF80
0800
0800
0800
0800
0800
0800
0800
0800
ENDCHAR
STARTCHAR 2541
ENCODING 9537
SWIDTH 576 0
DWIDTH 8 0
BBX 9 16 0 -3
BITMAP
0800
0800
0800
0800
0800
0800
0800
FF80
1800
1800
1800
1800
1800
1800
1800
1800
ENDCHAR
STARTCHAR 2542
ENCODING 9538
SWIDTH 576 0
DWIDTH 8 0
BBX 9 16 0 -3
BITMAP
1800
1800
1800
1800
1800
1800
FF80
FF80
1800
1800
1800
1800
1800
1800
1800
1800
ENDCHAR
STARTCHAR 2543
ENCODING 9539
SWIDTH 576 0
DWIDTH 8 0
BBX 9 16 0 -3
BITMAP
1800
1800
1800
1800
1800
1800
FF80
FF80
0800
0800
0800
0800
0800
0800
0800
0800
ENDCHAR
STARTCHAR 2544
ENCODING 9540
SWIDTH 576 0
DWIDTH 8 0
BBX 9 16 0 -3
BITMAP
1800
1800
1800
1800
1800
1800
FF80
FF80
1F80
0800
0800
0800
0800
0800
0800
0800
ENDCHAR
STARTCHAR 2545
ENCODING 9541
SWIDTH 576 0
DWIDTH 8 0
BBX 9 16 0 -3
BITMAP
0800
0800
0800
0800
0800
0800
FF80
FF80
1800
1800
1800
1800
1800
1800
1800
1800
ENDCHAR
STARTCHAR 2546
ENCODING 9542
SWIDTH 576 0
DWIDTH 8 0
BBX 9 16 0 -3
BITMAP
0800
0800
0800
0800
0800
0800
E800
FF80
1F80
1800
1800
1800
1800
1800
1800
1800
ENDCHAR
STARTCHAR 2547
ENCODING 9543
SWIDTH 576 0
DWIDTH 8 0
BBX 9 16 0 -3
BITMAP
1800
1800
1800
1800
1800
1800
FF80
FF80
0800
0800
0800
0800
0800
0800
0800
0800
ENDCHAR
STARTCHAR 2548
ENCODING 9544
SWIDTH 576 0
DWIDTH 8 0
BBX 9 16 0 -3
BITMAP
0800
0800
0800
0800
0800
0800
FF80
FF80
1800
1800
1800
1800
1800
1800
1800
1800
ENDCHAR
STARTCHAR 2549
ENCODING 9545
SWIDTH 576 0
DWIDTH 8 0
BBX 9 16 0 -3
BITMAP
1800
1800
1800
1800
1800
1800
FF80
FF80
1800
1800
1800
1800
1800
1800
1800
1800
ENDCHAR
STARTCHAR 254A
ENCODING 9546
SWIDTH 576 0
DWIDTH 8 0
BBX 9 16 0 -3
BITMAP
1800
1800
1800
1800
1800
1800
FF80
FF80
1800
1800
1800
1800
1800
1800
1800
1800
ENDCHAR
STARTCHAR 254B
ENCODING 9547
SWIDTH 576 0
DWIDTH 8 0
BBX 9 16 0 -3
BITMAP
1800
1800
1800
1800
1800
1800
FF80
FF80
1800
1800
1800
1800
1800
1800
1800
1800
ENDCHAR
STARTCHAR 254C
ENCODING 9548
SWIDTH 576 0
DWIDTH 8 0
BBX 8 2 0 4
BITMAP
F7
F7
ENDCHAR
STARTCHAR 254D
ENCODING 9549
SWIDTH 576 0
DWIDTH 8 0
BBX 8 2 0 4
BITMAP
F7
F7
ENDCHAR
STARTCHAR 254E
ENCODING 9550
SWIDTH 576 0
DWIDTH 8 0
BBX 1 14 4 -2
BITMAP
80
80
80
80
80
80
00
00
80
80
80
80
80
80
ENDCHAR
STARTCHAR 254F
ENCODING 9551
SWIDTH 576 0
DWIDTH 8 0
BBX 2 14 3 -2
BITMAP
C0
C0
C0
C0
C0
C0
00
00
C0
C0
C0
C0
C0
C0
ENDCHAR
STARTCHAR 2550
ENCODING 9552
SWIDTH 576 0
DWIDTH 8 0
BBX 9 4 0 3
BITMAP
FF80
FF80
FF80
FF80
ENDCHAR
STARTCHAR 2551
ENCODING 9553
SWIDTH 576 0
DWIDTH 8 0
BBX 3 16 3 -3
BITMAP
A0
A0
A0
A0
A0
A0
A0
A0
A0
A0
A0
A0
A0
A0
A0
A0
ENDCHAR
STARTCHAR 2552
ENCODING 9554
SWIDTH 576 0
DWIDTH 8 0
BBX 5 11 4 -3
BITMAP
F8
F8
80
F8
F8
80
80
80
80
80
80
ENDCHAR
STARTCHAR 2553
ENCODING 9555
SWIDTH 576 0
DWIDTH 8 0
BBX 6 10 3 -3
BITMAP
FC
FC
A0
A0
A0
A0
A0
A0
A0
A0
ENDCHAR
STARTCHAR 2554
ENCODING 9556
SWIDTH 576 0
DWIDTH 8 0
BBX 6 11 3 -3
BITMAP
FC
FC
80
BC
BC
A0
A0
A0
A0
A0
A0
ENDCHAR
STARTCHAR 2555
ENCODING 9557
SWIDTH 576 0
DWIDTH 8 0
BBX 5 11 0 -3
BITMAP
F8
F8
08
F8
F8
08
08
08
08
08
08
ENDCHAR
STARTCHAR 2556
ENCODING 9558
SWIDTH 576 0
DWIDTH 8 0
BBX 6 10 0 -3
BITMAP
FC
FC
14
14
14
14
14
14
14
14
ENDCHAR
STARTCHAR 2557
ENCODING 9559
SWIDTH 576 0
DWIDTH 8 0
BBX 6 11 0 -3
BITMAP
FC
FC
04
F4
F4
14
14
14
14
14
14
ENDCHAR
STARTCHAR 2558
ENCODING 9560
SWIDTH 576 0
DWIDTH 8 0
BBX 5 10 4 3
BITMAP
80
80
80
80
80
80
80
F8
80
F8
ENDCHAR
STARTCHAR 2559
ENCODING 9561
SWIDTH 576 0
DWIDTH 8 0
BBX 6 9 3 4
BITMAP
A0
A0
A0
A0
A0
A0
A0
A0
FC
ENDCHAR
STARTCHAR 255A
ENCODING 9562
SWIDTH 576 0
DWIDTH 8 0
BBX 6 10 3 3
BITMAP
A0
A0
A0
A0
A0
A0
A0
BC
80
FC
ENDCHAR
STARTCHAR 255B
ENCODING 9563
SWIDTH 576 0
DWIDTH 8 0
BBX 5 10 0 3
BITMAP
08
08
08
08
08
08
08
F8
08
F8
ENDCHAR
STARTCHAR 255C
ENCODING 9564
SWIDTH 576 0
DWIDTH 8 0
BBX 6 9 0 4
BITMAP
14
14
14
14
14
14
14
14
FC
ENDCHAR
STARTCHAR 255D
ENCODING 9565
SWIDTH 576 0
DWIDTH 8 0
BBX 6 10 0 3
BITMAP
14
14
14
14
14
14
14
F4
04
FC
ENDCHAR
STARTCHAR 255E
ENCODING 9566
SWIDTH 576 0
DWIDTH 8 0
BBX 5 16 4 -3
BITMAP
80
80
80
80
80
F8
F8
80
F8
F8
80
80
80
80
80
80
ENDCHAR
STARTCHAR 255F
ENCODING 9567
SWIDTH 576 0
DWIDTH 8 0
BBX 6 16 3 -3
BITMAP
A0
A0
A0
A0
A0
A0
BC
BC
A0
A0
A0
A0
A0
A0
A0
A0
ENDCHAR
STARTCHAR 2560
ENCODING 9568
SWIDTH 576 0
DWIDTH 8 0
BBX 6 16 3 -3
BITMAP
A0
A0
A0
A0
A0
BC
BC
80
BC
BC
A0
A0
A0
A0
A0
A0
ENDCHAR
STARTCHAR 2561
ENCODING 9569
SWIDTH 576 0
DWIDTH 8 0
BBX 5 16 0 -3
BITMAP
08
08
08
08
08
F8
F8
08
F8
F8
08
08
08
08
08
08
ENDCHAR
STARTCHAR 2562
ENCODING 9570
SWIDTH 576 0
DWIDTH 8 0
BBX 6 16 0 -3
BITMAP
14
14
14
14
14
14
F4
F4
14
14
14
14
14
14
14
14
ENDCHAR
STARTCHAR 2563
ENCODING 9571
SWIDTH 576 0
DWIDTH 8 0
BBX 6 16 0 -3
BITMAP
14
14
14
14
14
F4
F4
04
F4
F4
14
14
14
14
14
14
ENDCHAR
STARTCHAR 2564
ENCODING 9572
SWIDTH 576 0
DWIDTH 8 0
BBX 9 11 0 -3
BITMAP
FF80
FF80
0000
FF80
FF80
0800
0800
0800
0800
0800
0800
ENDCHAR
STARTCHAR 2565
ENCODING 9573
SWIDTH 576 0
DWIDTH 8 0
BBX 9 10 0 -3
BITMAP
FF80
FF80
1400
1400
1400
1400
1400
1400
1400
1400
ENDCHAR
STARTCHAR 2566
ENCODING 9574
SWIDTH 576 0
DWIDTH 8 0
BBX 9 11 0 -3
BITMAP
FF80
FF80
0000
F780
F780
1400
1400
1400
1400
1400
1400
ENDCHAR
STARTCHAR 2567
ENCODING 9575
SWIDTH 576 0
DWIDTH 8 0
BBX 9 11 0 2
BITMAP
0800
0800
0800
0800
0800
0800
FF80
FF80
0000
FF80
FF80
ENDCHAR
STARTCHAR 2568
ENCODING 9576
SWIDTH 576 0
DWIDTH 8 0
BBX 9 9 0 4
BITMAP
1400
1400
1400
1400
1400
1400
1400
1400
FF80
ENDCHAR
STARTCHAR 2569
ENCODING 9577
SWIDTH 576 0
DWIDTH 8 0
BBX 9 11 0 2
BITMAP
1400
1400
1400
1400
1400
1400
F780
F780
0000
FF80
FF80
ENDCHAR
STARTCHAR 256A
ENCODING 9578
SWIDTH 576 0
DWIDTH 8 0
BBX 9 16 0 -3
BITMAP
0800
0800
0800
0800
0800
FF80
FF80
0800
FF80
FF80
0800
0800
0800
0800
0800
0800
ENDCHAR
STARTCHAR 256B
ENCODING 9579
SWIDTH 576 0
DWIDTH 8 0
BBX 9 16 0 -3
BITMAP
1400
1400
1400
1400
1400
1400
FF80
FF80
1400
1400
1400
1400
1400
1400
1400
1400
ENDCHAR
STARTCHAR 256C
ENCODING 9580
SWIDTH 576 0
DWIDTH 8 0
BBX 9 16 0 -3
BITMAP
1400
1400
1400
1400
1400
F780
F780
0000
F780
F780
1400
1400
1400
1400
1400
1400
ENDCHAR
STARTCHAR 256D
ENCODING 9581
SWIDTH 576 0
DWIDTH 8 0
BBX 5 10 4 -3
BITMAP
78
F8
80
80
80
80
80
80
80
80
ENDCHAR
STARTCHAR 256E
ENCODING 9582
SWIDTH 576 0
DWIDTH 8 0
BBX 5 10 0 -3
BITMAP
E0
F0
18
08
08
08
08
08
08
08
ENDCHAR
STARTCHAR 256F
ENCODING 9583
SWIDTH 576 0
DWIDTH 8 0
BBX 5 10 0 3
BITMAP
08
08
08
08
08
08
08
18
F0
E0
ENDCHAR
STARTCHAR 2570
ENCODING 9584
SWIDTH 576 0
DWIDTH 8 0
BBX 5 10 4 3
BITMAP
80
80
80
80
80
80
80
80
F8
78
ENDCHAR
STARTCHAR 2571
ENCODING 9585
SWIDTH 576 0
DWIDTH 8 0
BBX 10 16 -1 -3
BITMAP
00C0
0080
0180
0100
0300
0200
0600
0400
0C00
0800
1000
1000
2000
2000
4000
C000
ENDCHAR
STARTCHAR 2572
ENCODING 9586
SWIDTH 576 0
DWIDTH 8 0
BBX 10 16 -1 -3
BITMAP
C000
4000
2000
2000
1000
1000
0800
0C00
0400
0600
0200
0300
0100
0180
0080
00C0
ENDCHAR
STARTCHAR 2573
ENCODING 9587
SWIDTH 576 0
DWIDTH 8 0
BBX 10 16 -1 -3
BITMAP
C0C0
4080
2180
2100
1300
1200
0E00
0C00
0C00
0E00
1200
1300
2100
2180
4080
C0C0
ENDCHAR
STARTCHAR 2574
ENCODING 9588
SWIDTH 576 0
DWIDTH 8 0
BBX 4 2 0 4
BITMAP
F0
F0
ENDCHAR
STARTCHAR 2575
ENCODING 9589
SWIDTH 576 0
DWIDTH 8 0
BBX 1 8 4 5
BITMAP
80
80
80
80
80
80
80
80
ENDCHAR
STARTCHAR 2576
ENCODING 9590
SWIDTH 576 0
DWIDTH 8 0
BBX 5 2 4 4
BITMAP
F8
F8
ENDCHAR
STARTCHAR 2577
ENCODING 9591
SWIDTH 576 0
DWIDTH 8 0
BBX 1 8 4 -3
BITMAP
80
80
80
80
80
80
80
80
ENDCHAR
STARTCHAR 2578
ENCODING 9592
SWIDTH 576 0
DWIDTH 8 0
BBX 4 2 0 4
BITMAP
F0
F0
ENDCHAR
STARTCHAR 2579
ENCODING 9593
SWIDTH 576 0
DWIDTH 8 0
BBX 2 8 3 5
BITMAP
C0
C0
C0
C0
C0
C0
C0
C0
ENDCHAR
STARTCHAR 257A
ENCODING 9594
SWIDTH 576 0
DWIDTH 8 0
BBX 5 2 4 4
BITMAP
F8
F8
ENDCHAR
STARTCHAR 257B
ENCODING 9595
SWIDTH 576 0
DWIDTH 8 0
BBX 2 8 3 -3
BITMAP
C0
C0
C0
C0
C0
C0
C0
C0
ENDCHAR
STARTCHAR 257C
ENCODING 9596
SWIDTH 576 0
DWIDTH 8 0
BBX 9 2 0 4
BITMAP
FF80
FF80
ENDCHAR
STARTCHAR 257D
ENCODING 9597
SWIDTH 576 0
DWIDTH 8 0
BBX 2 16 3 -3
BITMAP
40
40
40
40
40
40
40
40
C0
C0
C0
C0
C0
C0
C0
C0
ENDCHAR
STARTCHAR 257E
ENCODING 9598
SWIDTH 576 0
DWIDTH 8 0
BBX 9 2 0 4
BITMAP
FF80
FF80
ENDCHAR
STARTCHAR 257F
ENCODING 9599
SWIDTH 576 0
DWIDTH 8 0
BBX 2 16 3 -3
BITMAP
C0
C0
C0
C0
C0
C0
C0
C0
40
40
40
40
40
40
40
40
ENDCHAR
STARTCHAR 2580
ENCODING 9600
SWIDTH 576 0
DWIDTH 8 0
BBX 8 8 0 5
BITMAP
FF
FF
FF
FF
FF
FF
FF
FF
ENDCHAR
STARTCHAR 2581
ENCODING 9601
SWIDTH 576 0
DWIDTH 8 0
BBX 8 2 0 -3
BITMAP
FF
FF
ENDCHAR
STARTCHAR 2582
ENCODING 9602
SWIDTH 576 0
DWIDTH 8 0
BBX 8 4 0 -3
BITMAP
FF
FF
FF
FF
ENDCHAR
STARTCHAR 2583
ENCODING 9603
SWIDTH 576 0
DWIDTH 8 0
BBX 8 6 0 -3
BITMAP
FF
FF
FF
FF
FF
FF
ENDCHAR
STARTCHAR 2584
ENCODING 9604
SWIDTH 576 0
DWIDTH 8 0
BBX 8 8 0 -3
BITMAP
FF
FF
FF
FF
FF
FF
FF
FF
ENDCHAR
STARTCHAR 2585
ENCODING 9605
SWIDTH 576 0
DWIDTH 8 0
BBX 8 10 0 -3
BITMAP
FF
FF
FF
FF
FF
FF
FF
FF
FF
FF
ENDCHAR
STARTCHAR 2586
ENCODING 9606
SWIDTH 576 0
DWIDTH 8 0
BBX 8 12 0 -3
BITMAP
FF
FF
FF
FF
FF
FF
FF
FF
FF
FF
FF
FF
ENDCHAR
STARTCHAR 2587
ENCODING 9607
SWIDTH 576 0
DWIDTH 8 0
BBX 8 14 0 -3
BITMAP
FF
FF
FF
FF
FF
FF
FF
FF
FF
FF
FF
FF
FF
FF
ENDCHAR
STARTCHAR 2588
ENCODING 9608
SWIDTH 576 0
DWIDTH 8 0
BBX 8 16 0 -3
BITMAP
FF
FF
FF
FF
FF
FF
FF
FF
FF
FF
FF
FF
FF
FF
FF
FF
ENDCHAR
STARTCHAR 2589
ENCODING 9609
SWIDTH 576 0
DWIDTH 8 0
BBX 7 16 0 -3
BITMAP
FE
FE
FE
FE
FE
FE
FE
FE
FE
FE
FE
FE
FE
FE
FE
FE
ENDCHAR
STARTCHAR 258A
ENCODING 9610
SWIDTH 576 0
DWIDTH 8 0
BBX 6 16 0 -3
BITMAP
FC
FC
FC
FC
FC
FC
FC
FC
FC
FC
FC
FC
FC
FC
FC
FC
ENDCHAR
STARTCHAR 258B
ENCODING 9611
SWIDTH 576 0
DWIDTH 8 0
BBX 5 16 0 -3
BITMAP
F8
F8
F8
F8
F8
F8
F8
F8
F8
F8
F8
F8
F8
F8
F8
F8
ENDCHAR
STARTCHAR 258C
ENCODING 9612
SWIDTH 576 0
DWIDTH 8 0
BBX 4 16 0 -3
BITMAP
F0
F0
F0
F0
F0
F0
F0
F0
F0
F0
F0
F0
F0
F0
F0
F0
ENDCHAR
STARTCHAR 258D
ENCODING 9613
SWIDTH 576 0
DWIDTH 8 0
BBX 3 16 0 -3
BITMAP
E0
E0
E0
E0
E0
E0
E0
E0
E0
E0
E0
E0
E0
E0
E0
E0
ENDCHAR
STARTCHAR 258E
ENCODING 9614
SWIDTH 576 0
DWIDTH 8 0
BBX 2 16 0 -3
BITMAP
C0
C0
C0
C0
C0
C0
C0
C0
C0
C0
C0
C0
C0
C0
C0
C0
ENDCHAR
STARTCHAR 258F
ENCODING 9615
SWIDTH 576 0
DWIDTH 8 0
BBX 1 16 0 -3
BITMAP
80
80
80
80
80
80
80
80
80
80
80
80
80
80
80
80
ENDCHAR
STARTCHAR 2590
ENCODING 9616
SWIDTH 576 0
DWIDTH 8 0
BBX 4 16 4 -3
BITMAP
F0
F0
F0
F0
F0
F0
F0
F0
F0
F0
F0
F0
F0
F0
F0
F0
ENDCHAR
STARTCHAR 2591
ENCODING 9617
SWIDTH 576 0
DWIDTH 8 0
BBX 7 16 0 -3
BITMAP
88
88
22
AA
88
00
22
22
88
88
22
22
88
88
22
22
ENDCHAR
STARTCHAR 2592
ENCODING 9618
SWIDTH 576 0
DWIDTH 8 0
BBX 8 16 0 -3
BITMAP
92
FF
6D
92
6D
6D
92
92
6D
92
92
6D
6D
92
6D
6D
ENDCHAR
STARTCHAR 2593
ENCODING 9619
SWIDTH 576 0
DWIDTH 8 0
BBX 8 16 0 -3
BITMAP
77
FF
DD
FF
77
FF
DD
FF
77
77
DD
DD
FF
77
FF
DD
ENDCHAR
STARTCHAR 2594
ENCODING 9620
SWIDTH 576 0
DWIDTH 8 0
BBX 8 2 0 11
BITMAP
FF
FF
ENDCHAR
STARTCHAR 2595
ENCODING 9621
SWIDTH 576 0
DWIDTH 8 0
BBX 1 16 7 -3
BITMAP
80
80
80
80
80
80
80
80
80
80
80
80
80
80
80
80
ENDCHAR
STARTCHAR 2596
ENCODING 9622
SWIDTH 576 0
DWIDTH 8 0
BBX 4 8 0 -3
BITMAP
F0
F0
F0
F0
F0
F0
F0
F0
ENDCHAR
STARTCHAR 2597
ENCODING 9623
SWIDTH 576 0
DWIDTH 8 0
BBX 4 8 4 -3
BITMAP
F0
F0
F0
F0
F0
F0
F0
F0
ENDCHAR
STARTCHAR 2598
ENCODING 9624
SWIDTH 576 0
DWIDTH 8 0
BBX 4 8 0 5
BITMAP
F0
F0
F0
F0
F0
F0
F0
F0
ENDCHAR
STARTCHAR 2599
ENCODING 9625
SWIDTH 576 0
DWIDTH 8 0
BBX 8 16 0 -3
BITMAP
F0
F0
F0
F0
F0
F0
F0
F0
FF
FF
FF
FF
FF
FF
FF
FF
ENDCHAR
STARTCHAR 259A
ENCODING 9626
SWIDTH 576 0
DWIDTH 8 0
BBX 8 16 0 -3
BITMAP
F0
F0
F0
F0
F0
F0
F0
F0
0F
0F
0F
0F
0F
0F
0F
0F
ENDCHAR
STARTCHAR 259B
ENCODING 9627
SWIDTH 576 0
DWIDTH 8 0
BBX 8 16 0 -3
BITMAP
FF
FF
FF
FF
FF
FF
FF
FF
F0
F0
F0
F0
F0
F0
F0
F0
ENDCHAR
STARTCHAR 259C
ENCODING 9628
SWIDTH 576 0
DWIDTH 8 0
BBX 8 16 0 -3
BITMAP
FF
FF
FF
FF
FF
FF
FF
FF
0F
0F
0F
0F
0F
0F
0F
0F
ENDCHAR
STARTCHAR 259D
ENCODING 9629
SWIDTH 576 0
DWIDTH 8 0
BBX 4 8 4 5
BITMAP
F0
F0
F0
F0
F0
F0
F0
F0
ENDCHAR
STARTCHAR 259E
ENCODING 9630
SWIDTH 576 0
DWIDTH 8 0
BBX 8 16 0 -3
BITMAP
0F
0F
0F
0F
0F
0F
0F
0F
F0
F0
F0
F0
F0
F0
F0
F0
ENDCHAR
STARTCHAR 259F
ENCODING 9631
SWIDTH 576 0
DWIDTH 8 0
BBX 8 16 0 -3
BITMAP
0F
0F
0F
0F
0F
0F
0F
0F
FF
FF
FF
FF
FF
FF
FF
FF
ENDCHAR
STARTCHAR 25A0
ENCODING 9632
SWIDTH 576 0
DWIDTH 8 0
BBX 8 8 0 0
BITMAP
FF
FF
FF
FF
FF
FF
FF
FF
ENDCHAR
STARTCHAR 25A1
ENCODING 9633
SWIDTH 576 0
DWIDTH 8 0
BBX 8 9 0 -1
BITMAP
FF
81
81
81
81
81
81
81
FF
ENDCHAR
STARTCHAR 25A2
ENCODING 9634
SWIDTH 576 0
DWIDTH 8 0
BBX 8 9 0 -1
BITMAP
7F
81
81
81
81
81
81
81
7F
ENDCHAR
STARTCHAR 25A3
ENCODING 9635
SWIDTH 576 0
DWIDTH 8 0
BBX 8 9 0 -1
BITMAP
FF
FF
FF
FF
FF
FF
FF
81
FF
ENDCHAR
STARTCHAR 25A4
ENCODING 9636
SWIDTH 576 0
DWIDTH 8 0
BBX 8 9 0 -1
BITMAP
FF
81
FF
FF
81
FF
FF
81
FF
ENDCHAR
STARTCHAR 25A5
ENCODING 9637
SWIDTH 576 0
DWIDTH 8 0
BBX 8 9 0 -1
BITMAP
FF
DB
DB
DB
DB
DB
DB
DB
FF
ENDCHAR
STARTCHAR 25A6
ENCODING 9638
SWIDTH 576 0
DWIDTH 8 0
BBX 8 8 0 0
BITMAP
FF
DB
FF
FF
DB
FF
FF
DB
ENDCHAR
STARTCHAR 25A7
ENCODING 9639
SWIDTH 576 0
DWIDTH 8 0
BBX 8 9 0 -1
BITMAP
FF
AB
D5
AB
D5
EB
AD
D7
FF
ENDCHAR
STARTCHAR 25A8
ENCODING 9640
SWIDTH 576 0
DWIDTH 8 0
BBX 8 9 0 -1
BITMAP
FF
D5
AD
DB
D5
AB
D5
AB
FF
ENDCHAR
STARTCHAR 25A9
ENCODING 9641
SWIDTH 576 0
DWIDTH 8 0
BBX 8 9 0 -1
BITMAP
FF
FF
FD
EB
D5
EB
FD
FF
FF
ENDCHAR
STARTCHAR 25AA
ENCODING 9642
SWIDTH 576 0
DWIDTH 8 0
BBX 6 6 1 1
BITMAP
FC
FC
FC
FC
FC
FC
ENDCHAR
STARTCHAR 25AB
ENCODING 9643
SWIDTH 576 0
DWIDTH 8 0
BBX 6 6 1 1
BITMAP
FC
84
84
84
84
FC
ENDCHAR
STARTCHAR 25AC
ENCODING 9644
SWIDTH 576 0
DWIDTH 8 0
BBX 8 4 0 2
BITMAP
FF
FF
FF
FF
ENDCHAR
STARTCHAR 25AD
ENCODING 9645
SWIDTH 576 0
DWIDTH 8 0
BBX 8 4 0 2
BITMAP
FF
81
81
FF
ENDCHAR
STARTCHAR 25AE
ENCODING 9646
SWIDTH 576 0
DWIDTH 8 0
BBX 4 8 2 0
BITMAP
F0
F0
F0
F0
F0
F0
F0
F0
ENDCHAR
STARTCHAR 25AF
ENCODING 9647
SWIDTH 576 0
DWIDTH 8 0
BBX 4 9 2 -1
BITMAP
F0
90
90
90
90
90
90
90
F0
ENDCHAR
STARTCHAR 25B0
ENCODING 9648
SWIDTH 576 0
DWIDTH 8 0
BBX 8 4 0 2
BITMAP
3F
7F
7E
FC
ENDCHAR
STARTCHAR 25B1
ENCODING 9649
SWIDTH 576 0
DWIDTH 8 0
BBX 8 4 0 2
BITMAP
3F
41
42
FC
ENDCHAR
STARTCHAR 25B2
ENCODING 9650
SWIDTH 576 0
DWIDTH 8 0
BBX 8 8 0 -1
BITMAP
08
18
1C
3C
3E
7E
7F
FF
ENDCHAR
STARTCHAR 25B3
ENCODING 9651
SWIDTH 576 0
DWIDTH 8 0
BBX 8 8 0 -1
BITMAP
08
18
14
24
22
42
41
FF
ENDCHAR
STARTCHAR 25B4
ENCODING 9652
SWIDTH 576 0
DWIDTH 8 0
BBX 6 5 1 1
BITMAP
10
30
38
78
FC
ENDCHAR
STARTCHAR 25B5
ENCODING 9653
SWIDTH 576 0
DWIDTH 8 0
BBX 6 5 1 1
BITMAP
10
30
28
48
FC
ENDCHAR
STARTCHAR 25B6
ENCODING 9654
SWIDTH 576 0
DWIDTH 8 0
BBX 8 9 0 -1
BITMAP
80
E0
F8
FE
FF
FC
F0
C0
80
ENDCHAR
STARTCHAR 25B7
ENCODING 9655
SWIDTH 576 0
DWIDTH 8 0
BBX 8 9 0 -1
BITMAP
80
E0
98
86
83
8C
B0
C0
80
ENDCHAR
STARTCHAR 25B8
ENCODING 9656
SWIDTH 576 0
DWIDTH 8 0
BBX 6 5 1 1
BITMAP
C0
F0
FC
F0
C0
ENDCHAR
STARTCHAR 25B9
ENCODING 9657
SWIDTH 576 0
DWIDTH 8 0
BBX 6 5 1 1
BITMAP
C0
B0
8C
B0
C0
ENDCHAR
STARTCHAR 25BA
ENCODING 9658
SWIDTH 576 0
DWIDTH 8 0
BBX 8 5 0 1
BITMAP
E0
FC
FF
F8
C0
ENDCHAR
STARTCHAR 25BB
ENCODING 9659
SWIDTH 576 0
DWIDTH 8 0
BBX 8 5 0 1
BITMAP
E0
9C
87
B8
C0
ENDCHAR
STARTCHAR 25BC
ENCODING 9660
SWIDTH 576 0
DWIDTH 8 0
BBX 8 8 0 0
BITMAP
FF
7F
7E
3E
3C
1C
18
08
ENDCHAR
STARTCHAR 25BD
ENCODING 9661
SWIDTH 576 0
DWIDTH 8 0
BBX 8 9 0 -1
BITMAP
FF
41
42
22
24
14
18
08
08
ENDCHAR
STARTCHAR 25BE
ENCODING 9662
SWIDTH 576 0
DWIDTH 8 0
BBX 6 6 1 0
BITMAP
FC
78
38
30
10
10
ENDCHAR
STARTCHAR 25BF
ENCODING 9663
SWIDTH 576 0
DWIDTH 8 0
BBX 6 6 1 1
BITMAP
FC
48
28
30
10
10
ENDCHAR
STARTCHAR 25C0
ENCODING 9664
SWIDTH 576 0
DWIDTH 8 0
BBX 8 9 0 -1
BITMAP
01
03
0F
3F
FF
3F
0F
03
01
ENDCHAR
STARTCHAR 25C1
ENCODING 9665
SWIDTH 576 0
DWIDTH 8 0
BBX 8 9 0 -1
BITMAP
01
03
0D
31
C1
31
0D
03
01
ENDCHAR
STARTCHAR 25C2
ENCODING 9666
SWIDTH 576 0
DWIDTH 8 0
BBX 6 5 1 1
BITMAP
0C
3C
FC
1C
04
ENDCHAR
STARTCHAR 25C3
ENCODING 9667
SWIDTH 576 0
DWIDTH 8 0
BBX 6 5 1 1
BITMAP
0C
34
C4
34
0C
ENDCHAR
STARTCHAR 25C4
ENCODING 9668
SWIDTH 576 0
DWIDTH 8 0
BBX 8 5 0 1
BITMAP
03
1F
FF
1F
01
ENDCHAR
STARTCHAR 25C5
ENCODING 9669
SWIDTH 576 0
DWIDTH 8 0
BBX 8 5 0 1
BITMAP
03
1D
E1
1D
03
ENDCHAR
STARTCHAR 25C6
ENCODING 9670
SWIDTH 576 0
DWIDTH 8 0
BBX 8 9 0 -1
BITMAP
08
18
3C
7E
FF
7E
3C
18
08
ENDCHAR
STARTCHAR 25C7
ENCODING 9671
SWIDTH 576 0
DWIDTH 8 0
BBX 8 9 0 -1
BITMAP
08
18
24
42
C1
62
34
18
08
ENDCHAR
STARTCHAR 25C8
ENCODING 9672
SWIDTH 576 0
DWIDTH 8 0
BBX 8 9 0 -1
BITMAP
08
18
2C
5E
BF
5E
2C
18
08
ENDCHAR
STARTCHAR 25C9
ENCODING 9673
SWIDTH 576 0
DWIDTH 8 0
BBX 8 9 0 -1
BITMAP
3C
7E
BF
BF
FF
BF
9D
62
3C
ENDCHAR
STARTCHAR 25CA
ENCODING 9674
SWIDTH 576 0
DWIDTH 8 0
BBX 7 14 1 -3
BITMAP
10
30
28
48
44
84
86
84
84
44
48
28
30
10
ENDCHAR
STARTCHAR 25CB
ENCODING 9675
SWIDTH 576 0
DWIDTH 8 0
BBX 8 8 0 0
BITMAP
3C
62
C1
81
81
C1
62
3C
ENDCHAR
STARTCHAR 25CC
ENCODING 9676
SWIDTH 576 0
DWIDTH 8 0
BBX 8 8 0 0
BITMAP
18
63
00
81
81
00
63
38
ENDCHAR
STARTCHAR 25CD
ENCODING 9677
SWIDTH 576 0
DWIDTH 8 0
BBX 8 9 0 -1
BITMAP
3C
7A
DB
DB
DB
DB
DB
7A
3C
ENDCHAR
STARTCHAR 25CE
ENCODING 9678
SWIDTH 576 0
DWIDTH 8 0
BBX 8 8 0 0
BITMAP
3C
62
D9
A5
A5
D9
62
3C
ENDCHAR
STARTCHAR 25CF
ENCODING 9679
SWIDTH 576 0
DWIDTH 8 0
BBX 8 9 0 -1
BITMAP
3C
7E
FF
FF
FF
FF
FF
7E
3C
ENDCHAR
STARTCHAR 25D0
ENCODING 9680
SWIDTH 576 0
DWIDTH 8 0
BBX 8 9 0 -1
BITMAP
3C
72
F1
F1
F1
F1
F1
72
3C
ENDCHAR
STARTCHAR 25D1
ENCODING 9681
SWIDTH 576 0
DWIDTH 8 0
BBX 8 9 0 -1
BITMAP
3C
6E
8F
8F
8F
8F
8F
6E
3C
ENDCHAR
STARTCHAR 25D2
ENCODING 9682
SWIDTH 576 0
DWIDTH 8 0
BBX 8 9 0 -1
BITMAP
3C
62
C1
81
81
FF
FF
7E
3C
ENDCHAR
STARTCHAR 25D3
ENCODING 9683
SWIDTH 576 0
DWIDTH 8 0
BBX 8 8 0 0
BITMAP
3C
7E
FF
FF
81
81
42
3C
ENDCHAR
STARTCHAR 25D4
ENCODING 9684
SWIDTH 576 0
DWIDTH 8 0
BBX 8 9 0 -1
BITMAP
3C
6E
8F
8F
8F
81
81
62
3C
ENDCHAR
STARTCHAR 25D5
ENCODING 9685
SWIDTH 576 0
DWIDTH 8 0
BBX 8 9 0 -1
BITMAP
3C
6E
CF
8F
8F
FF
FF
7E
3C
ENDCHAR
STARTCHAR 25D6
ENCODING 9686
SWIDTH 576 0
DWIDTH 8 0
BBX 4 9 2 -1
BITMAP
30
70
70
F0
F0
F0
70
70
30
ENDCHAR
STARTCHAR 25D7
ENCODING 9687
SWIDTH 576 0
DWIDTH 8 0
BBX 4 9 2 -1
BITMAP
C0
E0
F0
F0
F0
F0
F0
E0
C0
ENDCHAR
STARTCHAR 25D8
ENCODING 9688
SWIDTH 576 0
DWIDTH 8 0
BBX 9 11 0 0
BITMAP
FF80
FF80
FF80
E380
C380
C180
C380
E380
FF80
FF80
FF80
ENDCHAR
STARTCHAR 25D9
ENCODING 9689
SWIDTH 576 0
DWIDTH 8 0
BBX 9 14 0 -3
BITMAP
FF80
FF80
FF80
C380
9D80
FE80
FE80
FF80
FE80
FF80
DF80
FF80
FF80
FF80
ENDCHAR
STARTCHAR 25DA
ENCODING 9690
SWIDTH 576 0
DWIDTH 8 0
BBX 9 7 0 4
BITMAP
FF80
FF80
FF80
C380
BD80
FE80
FF80
ENDCHAR
STARTCHAR 25DB
ENCODING 9691
SWIDTH 576 0
DWIDTH 8 0
BBX 9 6 0 -3
BITMAP
FF80
FE80
FF80
FF80
FF80
FF80
ENDCHAR
STARTCHAR 25DC
ENCODING 9692
SWIDTH 576 0
DWIDTH 8 0
BBX 4 4 2 4
BITMAP
30
60
80
80
ENDCHAR
STARTCHAR 25DD
ENCODING 9693
SWIDTH 576 0
DWIDTH 8 0
BBX 4 4 2 4
BITMAP
C0
20
10
10
ENDCHAR
STARTCHAR 25DE
ENCODING 9694
SWIDTH 576 0
DWIDTH 8 0
BBX 4 5 2 -1
BITMAP
10
10
10
20
C0
ENDCHAR
STARTCHAR 25DF
ENCODING 9695
SWIDTH 576 0
DWIDTH 8 0
BBX 4 5 2 -1
BITMAP
80
80
40
60
30
ENDCHAR
STARTCHAR 25E0
ENCODING 9696
SWIDTH 576 0
DWIDTH 8 0
BBX 8 4 0 4
BITMAP
3C
66
C1
81
ENDCHAR
STARTCHAR 25E1
ENCODING 9697
SWIDTH 576 0
DWIDTH 8 0
BBX 8 5 0 -1
BITMAP
81
81
C1
62
3C
ENDCHAR
STARTCHAR 25E2
ENCODING 9698
SWIDTH 576 0
DWIDTH 8 0
BBX 8 8 0 -1
BITMAP
01
03
07
0F
1F
3F
3F
FF
ENDCHAR
STARTCHAR 25E3
ENCODING 9699
SWIDTH 576 0
DWIDTH 8 0
BBX 8 8 0 -1
BITMAP
80
C0
E0
F0
F8
FC
FE
FF
ENDCHAR
STARTCHAR 25E4
ENCODING 9700
SWIDTH 576 0
DWIDTH 8 0
BBX 8 8 0 0
BITMAP
FF
FE
FC
F8
F0
E0
C0
80
ENDCHAR
STARTCHAR 25E5
ENCODING 9701
SWIDTH 576 0
DWIDTH 8 0
BBX 8 8 0 0
BITMAP
FF
3F
3F
1F
0F
07
03
01
ENDCHAR
STARTCHAR 25E6
ENCODING 9702
SWIDTH 576 0
DWIDTH 8 0
BBX 5 6 2 2
BITMAP
70
90
88
88
90
70
ENDCHAR
STARTCHAR 25E7
ENCODING 9703
SWIDTH 576 0
DWIDTH 8 0
BBX 8 9 0 -1
BITMAP
FF
F1
F1
F1
F1
F1
F1
F1
FF
ENDCHAR
STARTCHAR 25E8
ENCODING 9704
SWIDTH 576 0
DWIDTH 8 0
BBX 8 9 0 -1
BITMAP
FF
8F
8F
8F
8F
8F
8F
8F
FF
ENDCHAR
STARTCHAR 25E9
ENCODING 9705
SWIDTH 576 0
DWIDTH 8 0
BBX 8 9 0 -1
BITMAP
FF
FF
FD
F9
F1
E1
C1
81
FF
ENDCHAR
STARTCHAR 25EA
ENCODING 9706
SWIDTH 576 0
DWIDTH 8 0
BBX 8 8 0 0
BITMAP
FF
81
83
87
8F
9F
BF
FF
ENDCHAR
STARTCHAR 25EB
ENCODING 9707
SWIDTH 576 0
DWIDTH 8 0
BBX 8 9 0 -1
BITMAP
FF
89
89
89
89
89
89
89
FF
ENDCHAR
STARTCHAR 25EC
ENCODING 9708
SWIDTH 576 0
DWIDTH 8 0
BBX 8 8 0 -1
BITMAP
08
18
14
24
3A
4A
41
FF
ENDCHAR
STARTCHAR 25ED
ENCODING 9709
SWIDTH 576 0
DWIDTH 8 0
BBX 8 8 0 -1
BITMAP
08
18
14
34
32
72
71
FF
ENDCHAR
STARTCHAR 25EE
ENCODING 9710
SWIDTH 576 0
DWIDTH 8 0
BBX 8 8 0 -1
BITMAP
08
18
1C
2C
2E
4E
4F
FF
ENDCHAR
STARTCHAR 25EF
ENCODING 9711
SWIDTH 576 0
DWIDTH 8 0
BBX 9 9 0 -1
BITMAP
3C00
4200
8100
8100
8080
8100
8100
4200
3C00
ENDCHAR
STARTCHAR 25F0
ENCODING 9712
SWIDTH 576 0
DWIDTH 8 0
BBX 8 9 0 -1
BITMAP
FF
89
89
89
F9
81
81
81
FF
ENDCHAR
STARTCHAR 25F1
ENCODING 9713
SWIDTH 576 0
DWIDTH 8 0
BBX 8 9 0 -1
BITMAP
FF
81
81
81
F9
89
89
89
FF
ENDCHAR
STARTCHAR 25F2
ENCODING 9714
SWIDTH 576 0
DWIDTH 8 0
BBX 8 9 0 -1
BITMAP
FF
81
81
81
8F
89
89
89
FF
ENDCHAR
STARTCHAR 25F3
ENCODING 9715
SWIDTH 576 0
DWIDTH 8 0
BBX 8 9 0 -1
BITMAP
FF
89
89
89
8F
81
81
81
FF
ENDCHAR
STARTCHAR 25F4
ENCODING 9716
SWIDTH 576 0
DWIDTH 8 0
BBX 8 9 0 -1
BITMAP
3C
4A
89
89
F9
81
81
42
3C
ENDCHAR
STARTCHAR 25F5
ENCODING 9717
SWIDTH 576 0
DWIDTH 8 0
BBX 8 8 0 0
BITMAP
3C
42
81
81
F9
89
49
3E
ENDCHAR
STARTCHAR 25F6
ENCODING 9718
SWIDTH 576 0
DWIDTH 8 0
BBX 8 8 0 0
BITMAP
3C
42
81
81
8F
89
49
3E
ENDCHAR
STARTCHAR 25F7
ENCODING 9719
SWIDTH 576 0
DWIDTH 8 0
BBX 8 9 0 -1
BITMAP
3C
4A
89
89
8F
81
81
62
3C
ENDCHAR
STARTCHAR 25F8
ENCODING 9720
SWIDTH 576 0
DWIDTH 8 0
BBX 8 9 0 -1
BITMAP
FF
82
84
88
90
A0
C0
80
80
ENDCHAR
STARTCHAR 25F9
ENCODING 9721
SWIDTH 576 0
DWIDTH 8 0
BBX 8 9 0 -1
BITMAP
FF
61
31
19
09
05
03
01
01
ENDCHAR
STARTCHAR 25FA
ENCODING 9722
SWIDTH 576 0
DWIDTH 8 0
BBX 8 9 0 -1
BITMAP
80
80
C0
A0
90
88
84
82
FF
ENDCHAR
STARTCHAR 25FB
ENCODING 9723
SWIDTH 576 0
DWIDTH 8 0
BBX 7 7 1 0
BITMAP
FE
82
82
82
82
82
FE
ENDCHAR
STARTCHAR 25FC
ENCODING 9724
SWIDTH 576 0
DWIDTH 8 0
BBX 7 7 1 0
BITMAP
FE
FE
FE
FE
FE
FE
FE
ENDCHAR
STARTCHAR 25FD
ENCODING 9725
SWIDTH 576 0
DWIDTH 8 0
BBX 6 6 1 1
BITMAP
FC
84
84
84
84
FC
ENDCHAR
STARTCHAR 25FE
ENCODING 9726
SWIDTH 576 0
DWIDTH 8 0
BBX 6 6 1 1
BITMAP
FC
FC
FC
FC
FC
FC
ENDCHAR
STARTCHAR 25FF
ENCODING 9727
SWIDTH 576 0
DWIDTH 8 0
BBX 8 9 0 -1
BITMAP
01
01
03
05
09
11
21
61
FF
ENDCHAR
STARTCHAR 266A
ENCODING 9834
SWIDTH 576 0
DWIDTH 8 0
BBX 8 12 0 -2
BITMAP
0C
0E
0F
0F
0D
0D
0E
0C
0C
7C
F8
78
ENDCHAR
STARTCHAR 2756
ENCODING 10070
SWIDTH 576 0
DWIDTH 8 0
BBX 8 8 0 0
BITMAP
08
18
3E
6E
F7
3A
1C
08
ENDCHAR
STARTCHAR 2768
ENCODING 10088
SWIDTH 576 0
DWIDTH 8 0
BBX 5 11 2 -1
BITMAP
18
60
C0
C0
C0
C0
C0
C0
C0
60
18
ENDCHAR
STARTCHAR 2769
ENCODING 10089
SWIDTH 576 0
DWIDTH 8 0
BBX 5 11 2 -1
BITMAP
C0
60
30
30
18
18
18
30
30
60
C0
ENDCHAR
STARTCHAR 276A
ENCODING 10090
SWIDTH 576 0
DWIDTH 8 0
BBX 4 10 2 -1
BITMAP
30
60
60
60
C0
C0
60
60
60
30
ENDCHAR
STARTCHAR 276B
ENCODING 10091
SWIDTH 576 0
DWIDTH 8 0
BBX 4 10 2 -1
BITMAP
E0
60
20
30
30
30
30
20
60
E0
ENDCHAR
STARTCHAR 276C
ENCODING 10092
SWIDTH 576 0
DWIDTH 8 0
BBX 4 10 2 -1
BITMAP
30
20
60
40
C0
C0
40
60
20
30
ENDCHAR
STARTCHAR 276D
ENCODING 10093
SWIDTH 576 0
DWIDTH 8 0
BBX 4 10 2 -1
BITMAP
C0
40
60
20
30
30
20
60
40
C0
ENDCHAR
STARTCHAR 276E
ENCODING 10094
SWIDTH 576 0
DWIDTH 8 0
BBX 6 10 1 -1
BITMAP
1C
18
30
70
60
E0
70
30
18
1C
ENDCHAR
STARTCHAR 276F
ENCODING 10095
SWIDTH 576 0
DWIDTH 8 0
BBX 6 10 1 -1
BITMAP
E0
70
30
18
1C
1C
18
30
70
E0
ENDCHAR
STARTCHAR 2770
ENCODING 10096
SWIDTH 576 0
DWIDTH 8 0
BBX 6 11 1 -1
BITMAP
1C
38
38
70
70
E0
70
70
38
38
1C
ENDCHAR
STARTCHAR 2771
ENCODING 10097
SWIDTH 576 0
DWIDTH 8 0
BBX 6 11 1 -1
BITMAP
E0
70
30
38
18
1C
18
38
30
70
E0
ENDCHAR
STARTCHAR 2772
ENCODING 10098
SWIDTH 576 0
DWIDTH 8 0
BBX 2 11 3 -2
BITMAP
40
80
80
80
80
80
80
80
80
80
40
ENDCHAR
STARTCHAR 2773
ENCODING 10099
SWIDTH 576 0
DWIDTH 8 0
BBX 2 12 3 -2
BITMAP
80
40
40
40
40
40
40
40
40
40
40
80
ENDCHAR
STARTCHAR 2774
ENCODING 10100
SWIDTH 576 0
DWIDTH 8 0
BBX 4 12 2 -2
BITMAP
30
60
60
60
60
60
C0
60
60
60
60
30
ENDCHAR
STARTCHAR 2775
ENCODING 10101
SWIDTH 576 0
DWIDTH 8 0
BBX 5 12 2 -2
BITMAP
E0
60
60
60
60
38
60
60
60
60
60
E0
ENDCHAR
STARTCHAR 2794
ENCODING 10132
SWIDTH 576 0
DWIDTH 8 0
BBX 7 5 1 2
BITMAP
18
0C
FE
0C
18
ENDCHAR
STARTCHAR 2798
ENCODING 10136
SWIDTH 576 0
DWIDTH 8 0
BBX 7 7 1 1
BITMAP
80
C0
60
34
1C
0C
3E
ENDCHAR
STARTCHAR 2799
ENCODING 10137
SWIDTH 576 0
DWIDTH 8 0
BBX 7 5 1 3
BITMAP
08
0C
FE
0C
08
ENDCHAR
STARTCHAR 279A
ENCODING 10138
SWIDTH 576 0
DWIDTH 8 0
BBX 7 7 1 1
BITMAP
3E
0C
1C
32
60
C0
80
ENDCHAR
STARTCHAR 279B
ENCODING 10139
SWIDTH 576 0
DWIDTH 8 0
BBX 8 5 0 2
BITMAP
10
08
FF
08
10
ENDCHAR
STARTCHAR 279C
ENCODING 10140
SWIDTH 576 0
DWIDTH 8 0
BBX 7 5 1 3
BITMAP
08
0C
FE
0C
08
ENDCHAR
STARTCHAR 279D
ENCODING 10141
SWIDTH 576 0
DWIDTH 8 0
BBX 7 5 1 3
BITMAP
08
04
FE
04
08
ENDCHAR
STARTCHAR 279E
ENCODING 10142
SWIDTH 576 0
DWIDTH 8 0
BBX 8 5 0 2
BITMAP
02
FE
FF
02
04
ENDCHAR
STARTCHAR 279F
ENCODING 10143
SWIDTH 576 0
DWIDTH 8 0
BBX 8 4 0 3
BITMAP
04
EE
EF
02
ENDCHAR
STARTCHAR 27A0
ENCODING 10144
SWIDTH 576 0
DWIDTH 8 0
BBX 7 5 1 3
BITMAP
08
DC
DE
DC
08
ENDCHAR
STARTCHAR 27A1
ENCODING 10145
SWIDTH 576 0
DWIDTH 8 0
BBX 7 4 1 3
BITMAP
08
FC
FE
04
ENDCHAR
STARTCHAR 27A2
ENCODING 10146
SWIDTH 576 0
DWIDTH 8 0
BBX 7 4 1 3
BITMAP
E0
5C
7A
C0
ENDCHAR
STARTCHAR 27A3
ENCODING 10147
SWIDTH 576 0
DWIDTH 8 0
BBX 7 4 1 3
BITMAP
C0
38
5E
E0
ENDCHAR
STARTCHAR 27A4
ENCODING 10148
SWIDTH 576 0
DWIDTH 8 0
BBX 7 6 1 2
BITMAP
80
70
7E
78
60
80
ENDCHAR
STARTCHAR 27A5
ENCODING 10149
SWIDTH 576 0
DWIDTH 8 0
BBX 8 5 0 3
BITMAP
84
FE
FF
7E
02
ENDCHAR
STARTCHAR 27A6
ENCODING 10150
SWIDTH 576 0
DWIDTH 8 0
BBX 8 5 0 3
BITMAP
04
7E
FF
FE
82
ENDCHAR
STARTCHAR 27A7
ENCODING 10151
SWIDTH 576 0
DWIDTH 8 0
BBX 4 7 2 2
BITMAP
20
20
F0
F0
F0
20
20
ENDCHAR
STARTCHAR 27A8
ENCODING 10152
SWIDTH 576 0
DWIDTH 8 0
BBX 8 5 0 2
BITMAP
04
FC
FF
FC
04
ENDCHAR
STARTCHAR 27A9
ENCODING 10153
SWIDTH 576 0
DWIDTH 8 0
BBX 7 5 1 2
BITMAP
18
F4
86
F4
18
ENDCHAR
STARTCHAR 27AA
ENCODING 10154
SWIDTH 576 0
DWIDTH 8 0
BBX 7 5 1 2
BITMAP
18
F4
82
F4
18
ENDCHAR
STARTCHAR 27AB
ENCODING 10155
SWIDTH 576 0
DWIDTH 8 0
BBX 8 6 0 1
BITMAP
02
3D
41
7B
FE
08
ENDCHAR
STARTCHAR 27AC
ENCODING 10156
SWIDTH 576 0
DWIDTH 8 0
BBX 7 5 1 1
BITMAP
10
FC
82
7A
04
ENDCHAR
STARTCHAR 27AD
ENCODING 10157
SWIDTH 576 0
DWIDTH 8 0
BBX 7 6 1 2
BITMAP
10
E8
84
86
EC
F8
ENDCHAR
STARTCHAR 27AE
ENCODING 10158
SWIDTH 576 0
DWIDTH 8 0
BBX 7 7 1 1
BITMAP
18
F8
EC
86
84
E8
10
ENDCHAR
STARTCHAR 27AF
ENCODING 10159
SWIDTH 576 0
DWIDTH 8 0
BBX 8 6 0 2
BITMAP
04
FA
41
43
FE
04
ENDCHAR
STARTCHAR 27B1
ENCODING 10161
SWIDTH 576 0
DWIDTH 8 0
BBX 8 6 0 2
BITMAP
04
FE
43
41
FA
04
ENDCHAR
STARTCHAR 27B2
ENCODING 10162
SWIDTH 576 0
DWIDTH 8 0
BBX 6 7 1 1
BITMAP
78
EC
04
04
04
EC
30
ENDCHAR
STARTCHAR 27B3
ENCODING 10163
SWIDTH 576 0
DWIDTH 8 0
BBX 7 4 1 2
BITMAP
C4
E4
FE
E4
ENDCHAR
STARTCHAR 27B4
ENCODING 10164
SWIDTH 576 0
DWIDTH 8 0
BBX 7 7 1 2
BITMAP
40
20
F0
70
30
0C
0E
ENDCHAR
STARTCHAR 27B5
ENCODING 10165
SWIDTH 576 0
DWIDTH 8 0
BBX 7 2 1 3
BITMAP
FE
E4
ENDCHAR
STARTCHAR 27B6
ENCODING 10166
SWIDTH 576 0
DWIDTH 8 0
BBX 7 7 1 1
BITMAP
0E
0C
30
70
F0
20
40
ENDCHAR
STARTCHAR 27B7
ENCODING 10167
SWIDTH 576 0
DWIDTH 8 0
BBX 7 7 1 2
BITMAP
40
60
F0
70
08
06
0E
ENDCHAR
STARTCHAR 27B8
ENCODING 10168
SWIDTH 576 0
DWIDTH 8 0
BBX 8 3 0 3
BITMAP
E2
7F
F2
ENDCHAR
STARTCHAR 27B9
ENCODING 10169
SWIDTH 576 0
DWIDTH 8 0
BBX 7 7 1 1
BITMAP
0E
04
0A
70
F0
60
40
ENDCHAR
STARTCHAR 27BA
ENCODING 10170
SWIDTH 576 0
DWIDTH 8 0
BBX 8 5 0 2
BITMAP
04
06
4D
F2
04
ENDCHAR
STARTCHAR 27BB
ENCODING 10171
SWIDTH 576 0
DWIDTH 8 0
BBX 8 4 0 2
BITMAP
62
FF
62
02
ENDCHAR
STARTCHAR 27BC
ENCODING 10172
SWIDTH 576 0
DWIDTH 8 0
BBX 8 3 0 3
BITMAP
F2
7F
F2
ENDCHAR
STARTCHAR 27BD
ENCODING 10173
SWIDTH 576 0
DWIDTH 8 0
BBX 8 5 0 3
BITMAP
04
FA
7F
7A
FC
ENDCHAR
STARTCHAR 27BE
ENCODING 10174
SWIDTH 576 0
DWIDTH 8 0
BBX 8 5 0 2
BITMAP
0C
0A
FB
FA
0E
ENDCHAR
STARTCHAR 27C2
ENCODING 10178
SWIDTH 576 0
DWIDTH 8 0
BBX 8 9 0 0
BITMAP
18
18
18
18
18
18
18
FF
FF
ENDCHAR
STARTCHAR 27C5
ENCODING 10181
SWIDTH 576 0
DWIDTH 8 0
BBX 5 13 2 -1
BITMAP
F0
30
30
30
60
60
40
C0
C0
C0
C0
F8
78
ENDCHAR
STARTCHAR 27C6
ENCODING 10182
SWIDTH 576 0
DWIDTH 8 0
BBX 5 14 2 -3
BITMAP
70
F8
C0
40
60
60
30
30
30
10
18
38
F0
C0
ENDCHAR
STARTCHAR 27DC
ENCODING 10204
SWIDTH 576 0
DWIDTH 8 0
BBX 8 4 0 3
BITMAP
70
9F
9F
60
ENDCHAR
STARTCHAR 27E0
ENCODING 10208
SWIDTH 576 0
DWIDTH 8 0
BBX 7 15 1 -3
BITMAP
10
10
30
48
48
44
84
FE
84
44
48
48
30
10
10
ENDCHAR
STARTCHAR 27E6
ENCODING 10214
SWIDTH 576 0
DWIDTH 8 0
BBX 5 13 2 -2
BITMAP
F8
A0
A0
A0
A0
A0
A0
A0
A0
A0
A0
A0
F8
ENDCHAR
STARTCHAR 27E7
ENCODING 10215
SWIDTH 576 0
DWIDTH 8 0
BBX 4 13 2 -2
BITMAP
F0
30
30
30
30
30
30
30
30
30
30
30
F0
ENDCHAR
STARTCHAR 27E8
ENCODING 10216
SWIDTH 576 0
DWIDTH 8 0
BBX 4 13 2 -2
BITMAP
30
30
60
60
60
40
C0
40
60
60
60
30
30
ENDCHAR
STARTCHAR 27E9
ENCODING 10217
SWIDTH 576 0
DWIDTH 8 0
BBX 4 13 2 -2
BITMAP
C0
60
60
60
20
30
30
30
20
60
60
60
C0
ENDCHAR
STARTCHAR 27EA
ENCODING 10218
SWIDTH 576 0
DWIDTH 8 0
BBX 7 13 1 -2
BITMAP
66
6C
6C
CC
C8
D8
98
D8
C8
CC
6C
6C
66
ENDCHAR
STARTCHAR 27EB
ENCODING 10219
SWIDTH 576 0
DWIDTH 8 0
BBX 7 13 1 -2
BITMAP
D8
D8
CC
4C
6C
64
26
64
6C
4C
CC
D8
D8
ENDCHAR
STARTCHAR 27F5
ENCODING 10229
SWIDTH 576 0
DWIDTH 8 0
BBX 10 5 -1 1
BITMAP
6000
FFC0
FFC0
6000
2000
ENDCHAR
STARTCHAR 27F6
ENCODING 10230
SWIDTH 576 0
DWIDTH 8 0
BBX 10 5 -1 1
BITMAP
0180
FFC0
FFC0
0180
0080
ENDCHAR
STARTCHAR 27F7
ENCODING 10231
SWIDTH 576 0
DWIDTH 8 0
BBX 10 5 -1 1
BITMAP
6180
FFC0
FFC0
6180
2080
ENDCHAR
STARTCHAR 2987
ENCODING 10631
SWIDTH 576 0
DWIDTH 8 0
BBX 5 13 2 -2
BITMAP
08
38
68
C8
C8
C8
88
C8
C8
C8
68
38
08
ENDCHAR
STARTCHAR 2988
ENCODING 10632
SWIDTH 576 0
DWIDTH 8 0
BBX 5 13 2 -2
BITMAP
80
C0
A0
B0
90
98
98
98
90
B0
A0
E0
80
ENDCHAR
STARTCHAR 2997
ENCODING 10647
SWIDTH 576 0
DWIDTH 8 0
BBX 4 13 3 -2
BITMAP
30
20
40
C0
C0
C0
C0
C0
C0
C0
C0
60
30
ENDCHAR
STARTCHAR 2998
ENCODING 10648
SWIDTH 576 0
DWIDTH 8 0
BBX 5 13 1 -2
BITMAP
C0
60
30
38
38
38
38
38
38
38
30
60
C0
ENDCHAR
STARTCHAR 29EB
ENCODING 10731
SWIDTH 576 0
DWIDTH 8 0
BBX 7 14 1 -3
BITMAP
10
30
30
78
78
FC
FE
FC
7C
78
78
30
30
10
ENDCHAR
STARTCHAR 29FA
ENCODING 10746
SWIDTH 576 0
DWIDTH 8 0
BBX 8 8 0 1
BITMAP
26
26
26
FF
FF
26
26
26
ENDCHAR
STARTCHAR 29FB
ENCODING 10747
SWIDTH 576 0
DWIDTH 8 0
BBX 8 8 0 1
BITMAP
5A
5A
5A
FF
FF
5A
5A
5A
ENDCHAR
STARTCHAR 2A00
ENCODING 10752
SWIDTH 576 0
DWIDTH 8 0
BBX 7 14 1 -3
BITMAP
78
7C
C4
84
86
86
B2
B2
B6
86
86
C4
7C
78
ENDCHAR
STARTCHAR 2A2F
ENCODING 10799
SWIDTH 576 0
DWIDTH 8 0
BBX 7 7 1 1
BITMAP
84
CE
78
30
78
CE
84
ENDCHAR
STARTCHAR 2A6A
ENCODING 10858
SWIDTH 576 0
DWIDTH 8 0
BBX 7 6 1 3
BITMAP
30
30
30
42
FE
9C
ENDCHAR
STARTCHAR 2A6B
ENCODING 10859
SWIDTH 576 0
DWIDTH 8 0
BBX 7 9 1 0
BITMAP
0C
0C
0C
62
FE
8C
E0
E0
E0
ENDCHAR
STARTCHAR 2B05
ENCODING 11013
SWIDTH 576 0
DWIDTH 8 0
BBX 7 4 1 3
BITMAP
40
FE
FE
40
ENDCHAR
STARTCHAR 2B06
ENCODING 11014
SWIDTH 576 0
DWIDTH 8 0
BBX 4 8 2 1
BITMAP
20
60
F0
60
60
60
60
60
ENDCHAR
STARTCHAR 2B07
ENCODING 11015
SWIDTH 576 0
DWIDTH 8 0
BBX 4 8 2 1
BITMAP
60
60
60
60
60
60
F0
20
ENDCHAR
STARTCHAR 2B08
ENCODING 11016
SWIDTH 576 0
DWIDTH 8 0
BBX 6 6 1 2
BITMAP
1C
1C
3C
70
E0
40
ENDCHAR
STARTCHAR 2B09
ENCODING 11017
SWIDTH 576 0
DWIDTH 8 0
BBX 5 6 2 2
BITMAP
E0
C0
E0
30
18
08
ENDCHAR
STARTCHAR 2B0A
ENCODING 11018
SWIDTH 576 0
DWIDTH 8 0
BBX 5 6 2 2
BITMAP
80
C0
60
38
18
38
ENDCHAR
STARTCHAR 2B0B
ENCODING 11019
SWIDTH 576 0
DWIDTH 8 0
BBX 6 6 1 2
BITMAP
08
1C
38
F0
E0
E0
ENDCHAR
STARTCHAR 2B0C
ENCODING 11020
SWIDTH 576 0
DWIDTH 8 0
BBX 7 4 1 3
BITMAP
48
FC
FE
44
ENDCHAR
STARTCHAR 2B0D
ENCODING 11021
SWIDTH 576 0
DWIDTH 8 0
BBX 4 7 2 1
BITMAP
20
F0
60
60
60
F0
20
ENDCHAR
STARTCHAR 2B16
ENCODING 11030
SWIDTH 576 0
DWIDTH 8 0
BBX 8 9 0 -1
BITMAP
08
18
34
72
F1
72
34
18
08
ENDCHAR
STARTCHAR 2B17
ENCODING 11031
SWIDTH 576 0
DWIDTH 8 0
BBX 8 9 0 -1
BITMAP
08
18
2C
4E
8F
4E
2C
18
08
ENDCHAR
STARTCHAR 2B18
ENCODING 11032
SWIDTH 576 0
DWIDTH 8 0
BBX 8 8 0 0
BITMAP
18
3C
7E
FF
41
22
24
18
ENDCHAR
STARTCHAR 2B19
ENCODING 11033
SWIDTH 576 0
DWIDTH 8 0
BBX 8 8 0 0
BITMAP
18
24
62
C1
7F
3E
3C
18
ENDCHAR
STARTCHAR 2B1A
ENCODING 11034
SWIDTH 576 0
DWIDTH 8 0
BBX 8 9 0 -1
BITMAP
B5
00
81
81
81
81
00
00
B5
ENDCHAR
STARTCHAR 2C7D
ENCODING 11389
SWIDTH 576 0
DWIDTH 8 0
BBX 5 6 2 5
BITMAP
98
90
D0
50
60
60
ENDCHAR
STARTCHAR 2E18
ENCODING 11800
SWIDTH 576 0
DWIDTH 8 0
BBX 6 11 1 0
BITMAP
10
38
00
00
10
10
30
70
D0
FC
78
ENDCHAR
STARTCHAR 2E1F
ENCODING 11807
SWIDTH 576 0
DWIDTH 8 0
BBX 7 6 1 0
BITMAP
62
FE
8C
30
30
30
ENDCHAR
STARTCHAR 2E22
ENCODING 11810
SWIDTH 576 0
DWIDTH 8 0
BBX 3 5 3 6
BITMAP
E0
E0
C0
C0
C0
ENDCHAR
STARTCHAR 2E23
ENCODING 11811
SWIDTH 576 0
DWIDTH 8 0
BBX 4 5 2 6
BITMAP
F0
F0
30
30
30
ENDCHAR
STARTCHAR 2E24
ENCODING 11812
SWIDTH 576 0
DWIDTH 8 0
BBX 3 5 3 -2
BITMAP
C0
C0
C0
C0
E0
ENDCHAR
STARTCHAR 2E25
ENCODING 11813
SWIDTH 576 0
DWIDTH 8 0
BBX 4 5 2 -2
BITMAP
30
30
30
30
F0
ENDCHAR
STARTCHAR 2E2E
ENCODING 11822
SWIDTH 576 0
DWIDTH 8 0
BBX 6 10 1 0
BITMAP
78
FC
C4
60
30
30
10
00
38
30
ENDCHAR
STARTCHAR E0A0
ENCODING 57504
SWIDTH 576 0
DWIDTH 8 0
BBX 6 14 2 -2
BITMAP
C0
C0
D8
FC
D0
D0
D0
90
60
C0
C0
C0
C0
C0
ENDCHAR
STARTCHAR E0A1
ENCODING 57505
SWIDTH 576 0
DWIDTH 8 0
BBX 5 15 2 -2
BITMAP
80
80
80
80
80
80
80
F0
48
68
68
68
58
58
58
ENDCHAR
STARTCHAR E0A2
ENCODING 57506
SWIDTH 576 0
DWIDTH 8 0
BBX 7 14 1 -2
BITMAP
38
48
4C
4C
4C
FC
FE
CE
CE
EE
EE
EE
FE
FE
ENDCHAR
STARTCHAR E0B0
ENCODING 57520
SWIDTH 576 0
DWIDTH 8 0
BBX 8 17 0 -3
BITMAP
80
80
C0
E0
F0
F0
F8
FC
FF
FE
FC
F8
F0
E0
C0
C0
80
ENDCHAR
STARTCHAR E0B1
ENCODING 57521
SWIDTH 576 0
DWIDTH 8 0
BBX 7 14 1 -2
BITMAP
80
40
20
10
08
04
06
02
04
08
10
20
40
C0
ENDCHAR
STARTCHAR E0B2
ENCODING 57522
SWIDTH 576 0
DWIDTH 8 0
BBX 8 17 1 -3
BITMAP
01
01
03
07
0F
1F
3F
7F
FF
FF
7F
3F
1F
0F
07
03
01
ENDCHAR
STARTCHAR E0B3
ENCODING 57523
SWIDTH 576 0
DWIDTH 8 0
BBX 7 14 0 -2
BITMAP
02
04
08
18
30
20
40
80
40
20
10
08
04
02
ENDCHAR
STARTCHAR FEFF
ENCODING 65279
SWIDTH 576 0
DWIDTH 8 0
BBX 0 0 0 0
BITMAP
ENDCHAR
ENDFONT
